<?xml version="1.0" encoding="UTF-8" standalone="no"?>
<!DOCTYPE svg PUBLIC "-//W3C//DTD SVG 1.1//EN"
 "http://www.w3.org/Graphics/SVG/1.1/DTD/svg11.dtd">
<!-- Generated by graphviz version 2.38.0 (20140413.2041)
 -->
<!-- Title: G Pages: 1 -->
<svg width="834pt" height="199pt"
 viewBox="0.00 0.00 834.28 199.00" xmlns="http://www.w3.org/2000/svg" xmlns:xlink="http://www.w3.org/1999/xlink">
<g id="graph0" class="graph" transform="scale(1 1) rotate(0) translate(4 195)">
<title>G</title>
<polygon fill="white" stroke="none" points="-4,4 -4,-195 830.284,-195 830.284,4 -4,4"/>
<!-- proposal -->
<g id="node1" class="node"><title>proposal</title>
<ellipse fill="#eeeeee" stroke="#eeeeee" cx="413.561" cy="-173" rx="42.451" ry="18"/>
<text text-anchor="middle" x="413.561" y="-169.9" font-family="Verdana" font-size="12.00">proposal</text>
</g>
<!-- Chief.COMPANY -->
<g id="node2" class="node"><title>Chief.COMPANY</title>
<ellipse fill="#eeeeee" stroke="#eeeeee" cx="69.5613" cy="-91" rx="69.6227" ry="18"/>
<text text-anchor="middle" x="69.5613" y="-87.9" font-family="Verdana" font-size="12.00">Chief.COMPANY</text>
</g>
<!-- proposal&#45;&gt;Chief.COMPANY -->
<g id="edge1" class="edge"><title>proposal&#45;&gt;Chief.COMPANY</title>
<path fill="none" stroke="#31cef0" d="M367.165,-161.21C302.549,-146.183 185.935,-119.064 119.486,-103.61"/>
<polygon fill="#31cef0" stroke="#31cef0" points="366.54,-164.658 377.073,-163.514 368.126,-157.84 366.54,-164.658"/>
<text text-anchor="middle" x="273.561" y="-129.8" font-family="Verdana" font-size="9.00">51%</text>
</g>
<!-- Treasurer.COMPANY -->
<g id="node3" class="node"><title>Treasurer.COMPANY</title>
<ellipse fill="#eeeeee" stroke="#eeeeee" cx="232.561" cy="-91" rx="86.3647" ry="18"/>
<text text-anchor="middle" x="232.561" y="-87.9" font-family="Verdana" font-size="12.00">Treasurer.COMPANY</text>
</g>
<!-- proposal&#45;&gt;Treasurer.COMPANY -->
<g id="edge2" class="edge"><title>proposal&#45;&gt;Treasurer.COMPANY</title>
<path fill="none" stroke="#31cef0" d="M375.869,-155.34C344.062,-141.282 298.869,-121.307 267.782,-107.567"/>
<polygon fill="#31cef0" stroke="#31cef0" points="374.719,-158.659 385.28,-159.5 377.549,-152.256 374.719,-158.659"/>
<text text-anchor="middle" x="345.561" y="-129.8" font-family="Verdana" font-size="9.00">33%</text>
</g>
<!-- Controller.COMPANY -->
<g id="node4" class="node"><title>Controller.COMPANY</title>
<ellipse fill="#eeeeee" stroke="#eeeeee" cx="413.561" cy="-91" rx="87.3268" ry="18"/>
<text text-anchor="middle" x="413.561" y="-87.9" font-family="Verdana" font-size="12.00">Controller.COMPANY</text>
</g>
<!-- proposal&#45;&gt;Controller.COMPANY -->
<g id="edge3" class="edge"><title>proposal&#45;&gt;Controller.COMPANY</title>
<path fill="none" stroke="#31cef0" d="M413.561,-144.428C413.561,-132.675 413.561,-119.334 413.561,-109.05"/>
<polygon fill="#31cef0" stroke="#31cef0" points="410.061,-144.641 413.561,-154.641 417.061,-144.641 410.061,-144.641"/>
<text text-anchor="middle" x="424.561" y="-129.8" font-family="Verdana" font-size="9.00">33%</text>
</g>
<!-- Tax.COMPANY -->
<g id="node5" class="node"><title>Tax.COMPANY</title>
<ellipse fill="#eeeeee" stroke="#eeeeee" cx="571.561" cy="-91" rx="64.0421" ry="18"/>
<text text-anchor="middle" x="571.561" y="-87.9" font-family="Verdana" font-size="12.00">Tax.COMPANY</text>
</g>
<!-- proposal&#45;&gt;Tax.COMPANY -->
<g id="edge4" class="edge"><title>proposal&#45;&gt;Tax.COMPANY</title>
<path fill="none" stroke="#31cef0" d="M448.704,-154.206C476.711,-140.026 515.483,-120.394 541.933,-107.002"/>
<polygon fill="#31cef0" stroke="#31cef0" points="446.992,-151.15 439.652,-158.79 450.154,-157.395 446.992,-151.15"/>
<text text-anchor="middle" x="512.561" y="-129.8" font-family="Verdana" font-size="9.00">10%</text>
</g>
<!-- Accounting.COMPANY -->
<g id="node6" class="node"><title>Accounting.COMPANY</title>
<ellipse fill="#eeeeee" stroke="#eeeeee" cx="734.561" cy="-91" rx="91.9455" ry="18"/>
<text text-anchor="middle" x="734.561" y="-87.9" font-family="Verdana" font-size="12.00">Accounting.COMPANY</text>
</g>
<!-- proposal&#45;&gt;Accounting.COMPANY -->
<g id="edge5" class="edge"><title>proposal&#45;&gt;Accounting.COMPANY</title>
<path fill="none" stroke="#31cef0" d="M459.148,-160.639C517.347,-146.134 617.931,-121.067 680.1,-105.573"/>
<polygon fill="#31cef0" stroke="#31cef0" points="457.997,-157.318 449.14,-163.133 459.69,-164.111 457.997,-157.318"/>
<text text-anchor="middle" x="603.561" y="-129.8" font-family="Verdana" font-size="9.00">10%</text>
</g>
<!-- a -->
<g id="node7" class="node"><title>a</title>
<ellipse fill="#eeeeee" stroke="#eeeeee" cx="561.561" cy="-18" rx="27" ry="18"/>
<text text-anchor="middle" x="561.561" y="-14.9" font-family="Verdana" font-size="12.00">a</text>
</g>
<!-- Treasurer.COMPANY&#45;&gt;a -->
<g id="edge6" class="edge"><title>Treasurer.COMPANY&#45;&gt;a</title>
<path fill="none" stroke="#31cef0" d="M303.926,-76.4825C310.228,-75.3003 316.508,-74.126 322.561,-73 412.293,-56.3074 437.528,-63.4888 524.561,-36 529.954,-34.2967 535.59,-31.9979 540.79,-29.642"/>
<polygon fill="#31cef0" stroke="#31cef0" points="303.219,-73.0541 294.038,-78.3409 304.512,-79.9336 303.219,-73.0541"/>
</g>
<!-- b -->
<g id="node8" class="node"><title>b</title>
<ellipse fill="#eeeeee" stroke="#eeeeee" cx="418.561" cy="-18" rx="27" ry="18"/>
<text text-anchor="middle" x="418.561" y="-14.9" font-family="Verdana" font-size="12.00">b</text>
</g>
<!-- Treasurer.COMPANY&#45;&gt;b -->
<g id="edge7" class="edge"><title>Treasurer.COMPANY&#45;&gt;b</title>
<path fill="none" stroke="#31cef0" d="M281.578,-71.2894C318.435,-57.2203 367.266,-38.5804 395.568,-27.7772"/>
<polygon fill="#31cef0" stroke="#31cef0" points="280.101,-68.1066 272.007,-74.9427 282.598,-74.6463 280.101,-68.1066"/>
</g>
<!-- c -->
<g id="node9" class="node"><title>c</title>
<ellipse fill="#eeeeee" stroke="#eeeeee" cx="493.561" cy="-18" rx="27" ry="18"/>
<text text-anchor="middle" x="493.561" y="-14.9" font-family="Verdana" font-size="12.00">c</text>
</g>
<!-- Treasurer.COMPANY&#45;&gt;c -->
<g id="edge8" class="edge"><title>Treasurer.COMPANY&#45;&gt;c</title>
<path fill="none" stroke="#31cef0" d="M300.13,-75.237C343,-65.3476 399.447,-51.3594 448.561,-36 455.894,-33.7068 463.769,-30.8662 470.848,-28.1679"/>
<polygon fill="#31cef0" stroke="#31cef0" points="299.335,-71.8283 290.369,-77.4721 300.898,-78.6517 299.335,-71.8283"/>
</g>
<!-- Controller.COMPANY&#45;&gt;a -->
<g id="edge9" class="edge"><title>Controller.COMPANY&#45;&gt;a</title>
<path fill="none" stroke="#31cef0" d="M490.301,-76.4025C506.168,-71.3496 522.122,-64.4397 535.561,-55 542.753,-49.9482 548.696,-42.2568 553.075,-35.2784"/>
<polygon fill="#31cef0" stroke="#31cef0" points="489.053,-73.1217 480.457,-79.3147 491.039,-79.8341 489.053,-73.1217"/>
</g>
<!-- Controller.COMPANY&#45;&gt;b -->
<g id="edge10" class="edge"><title>Controller.COMPANY&#45;&gt;b</title>
<path fill="none" stroke="#31cef0" d="M415.48,-62.7534C416.113,-53.7651 416.799,-44.0295 417.362,-36.0288"/>
<polygon fill="#31cef0" stroke="#31cef0" points="411.983,-62.5917 414.772,-72.8129 418.966,-63.0835 411.983,-62.5917"/>
</g>
<!-- Controller.COMPANY&#45;&gt;c -->
<g id="edge11" class="edge"><title>Controller.COMPANY&#45;&gt;c</title>
<path fill="none" stroke="#31cef0" d="M440.033,-66.5064C452.602,-55.3512 467.191,-42.4033 477.961,-32.8449"/>
<polygon fill="#31cef0" stroke="#31cef0" points="437.676,-63.9184 432.52,-73.174 442.323,-69.1539 437.676,-63.9184"/>
</g>
<!-- Tax.COMPANY&#45;&gt;a -->
<g id="edge12" class="edge"><title>Tax.COMPANY&#45;&gt;a</title>
<path fill="none" stroke="#31cef0" d="M567.724,-62.7534C566.458,-53.7651 565.087,-44.0295 563.96,-36.0288"/>
<polygon fill="#31cef0" stroke="#31cef0" points="564.28,-63.3988 569.141,-72.8129 571.212,-62.4224 564.28,-63.3988"/>
</g>
<!-- Tax.COMPANY&#45;&gt;b -->
<g id="edge13" class="edge"><title>Tax.COMPANY&#45;&gt;b</title>
<path fill="none" stroke="#31cef0" d="M530.771,-71.0711C501.729,-57.594 463.834,-40.0088 440.356,-29.1136"/>
<polygon fill="#31cef0" stroke="#31cef0" points="529.315,-74.2541 539.86,-75.2888 532.262,-67.9045 529.315,-74.2541"/>
</g>
<!-- Tax.COMPANY&#45;&gt;c -->
<g id="edge14" class="edge"><title>Tax.COMPANY&#45;&gt;c</title>
<path fill="none" stroke="#31cef0" d="M545.792,-66.5432C533.588,-55.4342 519.422,-42.5401 508.925,-32.9849"/>
<polygon fill="#31cef0" stroke="#31cef0" points="543.719,-69.3895 553.471,-73.5327 548.431,-64.2129 543.719,-69.3895"/>
</g>
<!-- Accounting.COMPANY&#45;&gt;a -->
<g id="edge15" class="edge"><title>Accounting.COMPANY&#45;&gt;a</title>
<path fill="none" stroke="#31cef0" d="M700.984,-68.3203C692.263,-63.2129 682.736,-58.0755 673.561,-54 644.704,-41.1816 609.733,-31.0547 586.63,-25.0593"/>
<polygon fill="#31cef0" stroke="#31cef0" points="699.36,-71.4277 709.733,-73.5863 702.97,-65.4304 699.36,-71.4277"/>
</g>
<!-- Accounting.COMPANY&#45;&gt;b -->
<g id="edge16" class="edge"><title>Accounting.COMPANY&#45;&gt;b</title>
<path fill="none" stroke="#31cef0" d="M658.974,-76.5054C591.732,-64.224 498.625,-46.4616 462.561,-36 455.326,-33.901 447.608,-31.1151 440.689,-28.4071"/>
<polygon fill="#31cef0" stroke="#31cef0" points="658.648,-80.0036 669.114,-78.3517 659.902,-73.1169 658.648,-80.0036"/>
</g>
<!-- Accounting.COMPANY&#45;&gt;c -->
<g id="edge17" class="edge"><title>Accounting.COMPANY&#45;&gt;c</title>
<path fill="none" stroke="#31cef0" d="M666.194,-74.7178C626.425,-65.1112 575.612,-51.5986 531.561,-36 526.111,-34.07 520.356,-31.6862 515.02,-29.3205"/>
<polygon fill="#31cef0" stroke="#31cef0" points="665.516,-78.1543 676.056,-77.0749 667.144,-71.346 665.516,-78.1543"/>
</g>
</g>
</svg>
