<?xml version="1.0" encoding="UTF-8" standalone="no"?>
<!DOCTYPE svg PUBLIC "-//W3C//DTD SVG 1.1//EN"
 "http://www.w3.org/Graphics/SVG/1.1/DTD/svg11.dtd">
<!-- Generated by graphviz version 2.38.0 (20140413.2041)
 -->
<!-- Title: foo Pages: 1 -->
<svg width="225pt" height="260pt"
 viewBox="0.00 0.00 224.50 260.00" xmlns="http://www.w3.org/2000/svg" xmlns:xlink="http://www.w3.org/1999/xlink">
<g id="graph0" class="graph" transform="scale(1 1) rotate(0) translate(4 256)">
<title>foo</title>
<polygon fill="white" stroke="none" points="-4,4 -4,-256 220.5,-256 220.5,4 -4,4"/>
<!-- P2P network -->
<g id="node1" class="node"><title>P2P network</title>
<polygon fill="#eeeeee" stroke="#eeeeee" points="160,-252 68,-252 68,-216 160,-216 160,-252"/>
<text text-anchor="middle" x="114" y="-230.9" font-family="Verdana" font-size="12.00">P2P network</text>
</g>
<!-- Trusted Full Node -->
<g id="node2" class="node"><title>Trusted Full Node</title>
<polygon fill="#eeeeee" stroke="#eeeeee" points="176.5,-180 51.5,-180 51.5,-144 176.5,-144 176.5,-180"/>
<text text-anchor="middle" x="114" y="-158.9" font-family="Verdana" font-size="12.00">Trusted Full Node</text>
</g>
<!-- P2P network&#45;&gt;Trusted Full Node -->
<g id="edge1" class="edge"><title>P2P network&#45;&gt;Trusted Full Node</title>
<path fill="none" stroke="#31cef0" d="M114,-205.665C114,-200.687 114,-195.491 114,-190.507"/>
<polygon fill="#31cef0" stroke="#31cef0" points="110.5,-205.697 114,-215.697 117.5,-205.697 110.5,-205.697"/>
<polygon fill="#31cef0" stroke="#31cef0" points="117.5,-190.104 114,-180.104 110.5,-190.104 117.5,-190.104"/>
</g>
<!-- Delayed Full Node -->
<g id="node3" class="node"><title>Delayed Full Node</title>
<polygon fill="#eeeeee" stroke="#eeeeee" points="128,-108 0,-108 0,-72 128,-72 128,-108"/>
<text text-anchor="middle" x="64" y="-86.9" font-family="Verdana" font-size="12.00">Delayed Full Node</text>
</g>
<!-- Trusted Full Node&#45;&gt;Delayed Full Node -->
<g id="edge2" class="edge"><title>Trusted Full Node&#45;&gt;Delayed Full Node</title>
<path fill="none" stroke="#31cef0" d="M101.64,-143.697C95.7672,-135.474 88.6309,-125.483 82.1576,-116.421"/>
<polygon fill="#31cef0" stroke="#31cef0" points="84.8779,-114.207 76.2174,-108.104 79.1817,-118.276 84.8779,-114.207"/>
</g>
<!-- Wallet -->
<g id="node5" class="node"><title>Wallet</title>
<polygon fill="#eeeeee" stroke="#eeeeee" points="193.5,-108 136.5,-108 136.5,-72 193.5,-72 193.5,-108"/>
<text text-anchor="middle" x="165" y="-86.9" font-family="Verdana" font-size="12.00">Wallet</text>
</g>
<!-- Trusted Full Node&#45;&gt;Wallet -->
<g id="edge4" class="edge"><title>Trusted Full Node&#45;&gt;Wallet</title>
<path fill="none" stroke="#31cef0" d="M126.607,-143.697C132.597,-135.474 139.876,-125.483 146.479,-116.421"/>
<polygon fill="#31cef0" stroke="#31cef0" points="149.478,-118.248 152.538,-108.104 143.821,-114.126 149.478,-118.248"/>
</g>
<!-- Deposit API -->
<g id="node4" class="node"><title>Deposit API</title>
<polygon fill="#eeeeee" stroke="#eeeeee" points="108.5,-36 19.5,-36 19.5,-0 108.5,-0 108.5,-36"/>
<text text-anchor="middle" x="64" y="-14.9" font-family="Verdana" font-size="12.00">Deposit API</text>
</g>
<!-- Delayed Full Node&#45;&gt;Deposit API -->
<g id="edge3" class="edge"><title>Delayed Full Node&#45;&gt;Deposit API</title>
<path fill="none" stroke="#31cef0" d="M64,-71.6966C64,-63.9827 64,-54.7125 64,-46.1124"/>
<polygon fill="#31cef0" stroke="#31cef0" points="67.5001,-46.1043 64,-36.1043 60.5001,-46.1044 67.5001,-46.1043"/>
</g>
<!-- Withdraw API -->
<g id="node6" class="node"><title>Withdraw API</title>
<polygon fill="#eeeeee" stroke="#eeeeee" points="216.5,-36 115.5,-36 115.5,-0 216.5,-0 216.5,-36"/>
<text text-anchor="middle" x="166" y="-14.9" font-family="Verdana" font-size="12.00">Withdraw API</text>
</g>
<!-- Wallet&#45;&gt;Withdraw API -->
<g id="edge5" class="edge"><title>Wallet&#45;&gt;Withdraw API</title>
<path fill="none" stroke="#31cef0" d="M165.247,-71.6966C165.357,-63.9827 165.49,-54.7125 165.613,-46.1124"/>
<polygon fill="#31cef0" stroke="#31cef0" points="169.112,-46.1533 165.756,-36.1043 162.113,-46.0533 169.112,-46.1533"/>
</g>
</g>
</svg>
