<?xml version="1.0" encoding="UTF-8" standalone="no"?>
<!DOCTYPE svg PUBLIC "-//W3C//DTD SVG 1.1//EN"
 "http://www.w3.org/Graphics/SVG/1.1/DTD/svg11.dtd">
<!-- Generated by graphviz version 2.38.0 (20140413.2041)
 -->
<!-- Title: foo Pages: 1 -->
<svg width="523pt" height="87pt"
 viewBox="0.00 0.00 523.00 87.00" xmlns="http://www.w3.org/2000/svg" xmlns:xlink="http://www.w3.org/1999/xlink">
<g id="graph0" class="graph" transform="scale(1 1) rotate(0) translate(4 83)">
<title>foo</title>
<polygon fill="white" stroke="none" points="-4,4 -4,-83 519,-83 519,4 -4,4"/>
<!-- P2P network -->
<g id="node1" class="node"><title>P2P network</title>
<polygon fill="#eeeeee" stroke="#eeeeee" points="92,-57 0,-57 0,-21 92,-21 92,-57"/>
<text text-anchor="middle" x="46" y="-35.9" font-family="Verdana" font-size="12.00">P2P network</text>
</g>
<!-- Trusted Full Node -->
<g id="node2" class="node"><title>Trusted Full Node</title>
<polygon fill="#eeeeee" stroke="#eeeeee" points="253,-57 128,-57 128,-21 253,-21 253,-57"/>
<text text-anchor="middle" x="190.5" y="-35.9" font-family="Verdana" font-size="12.00">Trusted Full Node</text>
</g>
<!-- P2P network&#45;&gt;Trusted Full Node -->
<g id="edge1" class="edge"><title>P2P network&#45;&gt;Trusted Full Node</title>
<path fill="none" stroke="#31cef0" d="M102.118,-39C102.118,-39 117.952,-39 117.952,-39"/>
<polygon fill="#31cef0" stroke="#31cef0" points="117.952,-42.5 127.952,-39 117.952,-35.5 117.952,-42.5"/>
<polygon fill="#31cef0" stroke="#31cef0" points="102.118,-35.5 92.118,-39 102.118,-42.5 102.118,-35.5"/>
</g>
<!-- Wallet -->
<g id="node3" class="node"><title>Wallet</title>
<polygon fill="#eeeeee" stroke="#eeeeee" points="371,-79 314,-79 314,-43 371,-43 371,-79"/>
<text text-anchor="middle" x="342.5" y="-57.9" font-family="Verdana" font-size="12.00">Wallet</text>
</g>
<!-- Trusted Full Node&#45;&gt;Wallet -->
<g id="edge2" class="edge"><title>Trusted Full Node&#45;&gt;Wallet</title>
<path fill="none" stroke="#31cef0" d="M263.202,-50C263.202,-50 303.952,-50 303.952,-50"/>
<polygon fill="#31cef0" stroke="#31cef0" points="303.952,-53.5 313.952,-50 303.952,-46.5 303.952,-53.5"/>
<polygon fill="#31cef0" stroke="#31cef0" points="263.202,-46.5 253.202,-50 263.202,-53.5 263.202,-46.5"/>
</g>
<!-- Blockchain API -->
<g id="node5" class="node"><title>Blockchain API</title>
<polygon fill="#eeeeee" stroke="#eeeeee" points="396,-36 289,-36 289,-0 396,-0 396,-36"/>
<text text-anchor="middle" x="342.5" y="-14.9" font-family="Verdana" font-size="12.00">Blockchain API</text>
</g>
<!-- Trusted Full Node&#45;&gt;Blockchain API -->
<g id="edge4" class="edge"><title>Trusted Full Node&#45;&gt;Blockchain API</title>
<path fill="none" stroke="#31cef0" d="M263.202,-28.5C263.202,-28.5 278.67,-28.5 278.67,-28.5"/>
<polygon fill="#31cef0" stroke="#31cef0" points="278.67,-32 288.67,-28.5 278.67,-25 278.67,-32"/>
<polygon fill="#31cef0" stroke="#31cef0" points="263.202,-25 253.202,-28.5 263.202,-32 263.202,-25"/>
</g>
<!-- Wallet API -->
<g id="node4" class="node"><title>Wallet API</title>
<polygon fill="#eeeeee" stroke="#eeeeee" points="515,-79 432,-79 432,-43 515,-43 515,-79"/>
<text text-anchor="middle" x="473.5" y="-57.9" font-family="Verdana" font-size="12.00">Wallet API</text>
</g>
<!-- Wallet&#45;&gt;Wallet API -->
<g id="edge3" class="edge"><title>Wallet&#45;&gt;Wallet API</title>
<path fill="none" stroke="#31cef0" d="M381.249,-61C381.249,-61 421.89,-61 421.89,-61"/>
<polygon fill="#31cef0" stroke="#31cef0" points="421.89,-64.5 431.89,-61 421.89,-57.5 421.89,-64.5"/>
<polygon fill="#31cef0" stroke="#31cef0" points="381.249,-57.5 371.249,-61 381.248,-64.5 381.249,-57.5"/>
</g>
</g>
</svg>
