<?xml version="1.0" encoding="UTF-8" standalone="no"?>
<!DOCTYPE svg PUBLIC "-//W3C//DTD SVG 1.1//EN"
 "http://www.w3.org/Graphics/SVG/1.1/DTD/svg11.dtd">
<!-- Generated by graphviz version 2.40.1 (20161225.0304)
 -->
<!-- Title: G Pages: 1 -->
<svg width="277pt" height="126pt"
 viewBox="0.00 0.00 277.12 126.00" xmlns="http://www.w3.org/2000/svg" xmlns:xlink="http://www.w3.org/1999/xlink">
<g id="graph0" class="graph" transform="scale(1 1) rotate(0) translate(4 122)">
<title>G</title>
<polygon fill="#ffffff" stroke="transparent" points="-4,4 -4,-122 273.12,-122 273.12,4 -4,4"/>
<!-- proposal -->
<g id="node1" class="node">
<title>proposal</title>
<ellipse fill="#eeeeee" stroke="#eeeeee" cx="134.8678" cy="-100" rx="41.7203" ry="18"/>
<text text-anchor="middle" x="134.8678" y="-96.9" font-family="Verdana" font-size="12.00" fill="#000000">proposal</text>
</g>
<!-- CEO.COMPANY -->
<g id="node2" class="node">
<title>CEO.COMPANY</title>
<ellipse fill="#eeeeee" stroke="#eeeeee" cx="65.8678" cy="-18" rx="65.7359" ry="18"/>
<text text-anchor="middle" x="65.8678" y="-14.9" font-family="Verdana" font-size="12.00" fill="#000000">CEO.COMPANY</text>
</g>
<!-- proposal&#45;&gt;CEO.COMPANY -->
<g id="edge1" class="edge">
<title>proposal&#45;&gt;CEO.COMPANY</title>
<path fill="none" stroke="#31cef0" d="M113.9124,-75.0965C103.2488,-62.4238 90.5329,-47.3122 80.8624,-35.8196"/>
<polygon fill="#31cef0" stroke="#31cef0" points="111.4544,-77.6115 120.571,-83.0095 116.8105,-73.1045 111.4544,-77.6115"/>
<text text-anchor="middle" x="115.8678" y="-56.8" font-family="Verdana" font-size="9.00" fill="#000000">51%</text>
</g>
<!-- CFO.COMPANY -->
<g id="node3" class="node">
<title>CFO.COMPANY</title>
<ellipse fill="#eeeeee" stroke="#eeeeee" cx="203.8678" cy="-18" rx="65.0054" ry="18"/>
<text text-anchor="middle" x="203.8678" y="-14.9" font-family="Verdana" font-size="12.00" fill="#000000">CFO.COMPANY</text>
</g>
<!-- proposal&#45;&gt;CFO.COMPANY -->
<g id="edge2" class="edge">
<title>proposal&#45;&gt;CFO.COMPANY</title>
<path fill="none" stroke="#31cef0" d="M155.8709,-75.0398C166.6132,-62.2736 179.4281,-47.0443 189.1132,-35.5345"/>
<polygon fill="#31cef0" stroke="#31cef0" points="152.9251,-73.1045 149.1647,-83.0095 158.2812,-77.6115 152.9251,-73.1045"/>
<text text-anchor="middle" x="183.8678" y="-56.8" font-family="Verdana" font-size="9.00" fill="#000000">51%</text>
</g>
</g>
</svg>
