<?xml version="1.0" encoding="UTF-8" standalone="no"?>
<!DOCTYPE svg PUBLIC "-//W3C//DTD SVG 1.1//EN"
 "http://www.w3.org/Graphics/SVG/1.1/DTD/svg11.dtd">
<!-- Generated by graphviz version 2.38.0 (20140413.2041)
 -->
<!-- Title: foo Pages: 1 -->
<svg width="440pt" height="87pt"
 viewBox="0.00 0.00 440.00 87.00" xmlns="http://www.w3.org/2000/svg" xmlns:xlink="http://www.w3.org/1999/xlink">
<g id="graph0" class="graph" transform="scale(1 1) rotate(0) translate(4 83)">
<title>foo</title>
<polygon fill="white" stroke="none" points="-4,4 -4,-83 436,-83 436,4 -4,4"/>
<!-- P2P network -->
<g id="node1" class="node"><title>P2P network</title>
<polygon fill="#eeeeee" stroke="#eeeeee" points="92,-61 0,-61 0,-25 92,-25 92,-61"/>
<text text-anchor="middle" x="46" y="-39.9" font-family="Verdana" font-size="12.00">P2P network</text>
</g>
<!-- Full Node -->
<g id="node2" class="node"><title>Full Node</title>
<polygon fill="#eeeeee" stroke="#eeeeee" points="201,-61 128,-61 128,-25 201,-25 201,-61"/>
<text text-anchor="middle" x="164.5" y="-39.9" font-family="Verdana" font-size="12.00">Full Node</text>
</g>
<!-- P2P network&#45;&gt;Full Node -->
<g id="edge1" class="edge"><title>P2P network&#45;&gt;Full Node</title>
<path fill="none" stroke="#31cef0" d="M102.155,-43C102.155,-43 117.82,-43 117.82,-43"/>
<polygon fill="#31cef0" stroke="#31cef0" points="117.82,-46.5 127.82,-43 117.82,-39.5 117.82,-46.5"/>
<polygon fill="#31cef0" stroke="#31cef0" points="102.155,-39.5 92.1545,-43 102.154,-46.5 102.155,-39.5"/>
</g>
<!-- Blockchain API -->
<g id="node3" class="node"><title>Blockchain API</title>
<polygon fill="#eeeeee" stroke="#eeeeee" points="432,-79 327,-79 327,-43 432,-43 432,-79"/>
<text text-anchor="middle" x="379.5" y="-57.9" font-family="Verdana" font-size="12.00">Blockchain API</text>
</g>
<!-- Full Node&#45;&gt;Blockchain API -->
<g id="edge2" class="edge"><title>Full Node&#45;&gt;Blockchain API</title>
<path fill="none" stroke="#31cef0" d="M211.46,-52C211.46,-52 326.939,-52 326.939,-52"/>
<polygon fill="#31cef0" stroke="#31cef0" points="211.46,-48.5001 201.46,-52 211.46,-55.5001 211.46,-48.5001"/>
</g>
<!-- Wallet -->
<g id="node4" class="node"><title>Wallet</title>
<polygon fill="#eeeeee" stroke="#eeeeee" points="291,-43 237,-43 237,-7 291,-7 291,-43"/>
<text text-anchor="middle" x="264" y="-21.9" font-family="Verdana" font-size="12.00">Wallet</text>
</g>
<!-- Full Node&#45;&gt;Wallet -->
<g id="edge3" class="edge"><title>Full Node&#45;&gt;Wallet</title>
<path fill="none" stroke="#31cef0" d="M211.267,-34C211.267,-34 236.715,-34 236.715,-34"/>
<polygon fill="#31cef0" stroke="#31cef0" points="211.267,-30.5001 201.267,-34 211.267,-37.5001 211.267,-30.5001"/>
</g>
<!-- Withdraw API -->
<g id="node5" class="node"><title>Withdraw API</title>
<polygon fill="#eeeeee" stroke="#eeeeee" points="429,-36 330,-36 330,-0 429,-0 429,-36"/>
<text text-anchor="middle" x="379.5" y="-14.9" font-family="Verdana" font-size="12.00">Withdraw API</text>
</g>
<!-- Wallet&#45;&gt;Withdraw API -->
<g id="edge4" class="edge"><title>Wallet&#45;&gt;Withdraw API</title>
<path fill="none" stroke="#31cef0" d="M301.08,-21.5C301.08,-21.5 329.943,-21.5 329.943,-21.5"/>
<polygon fill="#31cef0" stroke="#31cef0" points="301.08,-18.0001 291.08,-21.5 301.08,-25.0001 301.08,-18.0001"/>
</g>
</g>
</svg>
