<?xml version="1.0" encoding="UTF-8" standalone="no"?>
<!DOCTYPE svg PUBLIC "-//W3C//DTD SVG 1.1//EN"
 "http://www.w3.org/Graphics/SVG/1.1/DTD/svg11.dtd">
<!-- Generated by graphviz version 2.40.1 (20161225.0304)
 -->
<!-- Title: G Pages: 1 -->
<svg width="279pt" height="126pt"
 viewBox="0.00 0.00 279.17 126.00" xmlns="http://www.w3.org/2000/svg" xmlns:xlink="http://www.w3.org/1999/xlink">
<g id="graph0" class="graph" transform="scale(1 1) rotate(0) translate(4 122)">
<title>G</title>
<polygon fill="#ffffff" stroke="transparent" points="-4,4 -4,-122 275.1743,-122 275.1743,4 -4,4"/>
<!-- proposal -->
<g id="node1" class="node">
<title>proposal</title>
<ellipse fill="#eeeeee" stroke="#eeeeee" cx="123.0858" cy="-100" rx="41.7203" ry="18"/>
<text text-anchor="middle" x="123.0858" y="-96.9" font-family="Verdana" font-size="12.00" fill="#000000">proposal</text>
</g>
<!-- Alice -->
<g id="node2" class="node">
<title>Alice</title>
<ellipse fill="#eeeeee" stroke="#eeeeee" cx="27.0858" cy="-18" rx="27.1719" ry="18"/>
<text text-anchor="middle" x="27.0858" y="-14.9" font-family="Verdana" font-size="12.00" fill="#000000">Alice</text>
</g>
<!-- proposal&#45;&gt;Alice -->
<g id="edge1" class="edge">
<title>proposal&#45;&gt;Alice</title>
<path fill="none" stroke="#31cef0" d="M96.2503,-77.078C79.4109,-62.6943 58.2261,-44.599 43.7683,-32.2496"/>
<polygon fill="#31cef0" stroke="#31cef0" points="94.2423,-79.9659 104.1193,-83.7994 98.7888,-74.6432 94.2423,-79.9659"/>
<text text-anchor="middle" x="92.0858" y="-56.8" font-family="Verdana" font-size="9.00" fill="#000000">49%</text>
</g>
<!-- Bob -->
<g id="node3" class="node">
<title>Bob</title>
<ellipse fill="#eeeeee" stroke="#eeeeee" cx="88.0858" cy="-18" rx="27" ry="18"/>
<text text-anchor="middle" x="88.0858" y="-14.9" font-family="Verdana" font-size="12.00" fill="#000000">Bob</text>
</g>
<!-- proposal&#45;&gt;Bob -->
<g id="edge2" class="edge">
<title>proposal&#45;&gt;Bob</title>
<path fill="none" stroke="#31cef0" d="M111.4933,-72.8404C106.24,-60.5326 100.182,-46.3396 95.5452,-35.4764"/>
<polygon fill="#31cef0" stroke="#31cef0" points="108.3466,-74.384 115.4913,-82.2072 114.7847,-71.636 108.3466,-74.384"/>
<text text-anchor="middle" x="119.0858" y="-56.8" font-family="Verdana" font-size="9.00" fill="#000000">25%</text>
</g>
<!-- Charlie -->
<g id="node4" class="node">
<title>Charlie</title>
<ellipse fill="#eeeeee" stroke="#eeeeee" cx="158.0858" cy="-18" rx="36.1402" ry="18"/>
<text text-anchor="middle" x="158.0858" y="-14.9" font-family="Verdana" font-size="12.00" fill="#000000">Charlie</text>
</g>
<!-- proposal&#45;&gt;Charlie -->
<g id="edge3" class="edge">
<title>proposal&#45;&gt;Charlie</title>
<path fill="none" stroke="#31cef0" d="M134.6497,-72.9075C139.8644,-60.6903 145.8768,-46.604 150.5062,-35.7581"/>
<polygon fill="#31cef0" stroke="#31cef0" points="131.387,-71.636 130.6803,-82.2072 137.8251,-74.384 131.387,-71.636"/>
<text text-anchor="middle" x="153.0858" y="-56.8" font-family="Verdana" font-size="9.00" fill="#000000">25%</text>
</g>
<!-- Dennis -->
<g id="node5" class="node">
<title>Dennis</title>
<ellipse fill="#eeeeee" stroke="#eeeeee" cx="236.0858" cy="-18" rx="35.1771" ry="18"/>
<text text-anchor="middle" x="236.0858" y="-14.9" font-family="Verdana" font-size="12.00" fill="#000000">Dennis</text>
</g>
<!-- proposal&#45;&gt;Dennis -->
<g id="edge4" class="edge">
<title>proposal&#45;&gt;Dennis</title>
<path fill="none" stroke="#31cef0" d="M152.7245,-78.4923C172.5857,-64.0797 198.2185,-45.479 215.7858,-32.731"/>
<polygon fill="#31cef0" stroke="#31cef0" points="150.6442,-75.6774 144.6062,-84.3834 154.7554,-81.3429 150.6442,-75.6774"/>
<text text-anchor="middle" x="197.0858" y="-56.8" font-family="Verdana" font-size="9.00" fill="#000000">10%</text>
</g>
</g>
</svg>
