<?xml version="1.0" encoding="UTF-8" standalone="no"?>
<!DOCTYPE svg PUBLIC "-//W3C//DTD SVG 1.1//EN"
 "http://www.w3.org/Graphics/SVG/1.1/DTD/svg11.dtd">
<!-- Generated by graphviz version 2.38.0 (20140413.2041)
 -->
<!-- Title: G Pages: 1 -->
<svg width="912pt" height="199pt"
 viewBox="0.00 0.00 911.56 199.00" xmlns="http://www.w3.org/2000/svg" xmlns:xlink="http://www.w3.org/1999/xlink">
<g id="graph0" class="graph" transform="scale(1 1) rotate(0) translate(4 195)">
<title>G</title>
<polygon fill="white" stroke="none" points="-4,4 -4,-195 907.561,-195 907.561,4 -4,4"/>
<!-- proposal -->
<g id="node1" class="node"><title>proposal</title>
<ellipse fill="#eeeeee" stroke="#eeeeee" cx="413.561" cy="-173" rx="42.451" ry="18"/>
<text text-anchor="middle" x="413.561" y="-169.9" font-family="Verdana" font-size="12.00">proposal</text>
</g>
<!-- Chief.COMPANY -->
<g id="node2" class="node"><title>Chief.COMPANY</title>
<ellipse fill="#eeeeee" stroke="#eeeeee" cx="69.5613" cy="-91" rx="69.6227" ry="18"/>
<text text-anchor="middle" x="69.5613" y="-87.9" font-family="Verdana" font-size="12.00">Chief.COMPANY</text>
</g>
<!-- proposal&#45;&gt;Chief.COMPANY -->
<g id="edge1" class="edge"><title>proposal&#45;&gt;Chief.COMPANY</title>
<path fill="none" stroke="#31cef0" d="M367.165,-161.21C302.549,-146.183 185.935,-119.064 119.486,-103.61"/>
<polygon fill="#31cef0" stroke="#31cef0" points="366.54,-164.658 377.073,-163.514 368.126,-157.84 366.54,-164.658"/>
<text text-anchor="middle" x="273.561" y="-129.8" font-family="Verdana" font-size="9.00">51%</text>
</g>
<!-- Treasurer.COMPANY -->
<g id="node3" class="node"><title>Treasurer.COMPANY</title>
<ellipse fill="#eeeeee" stroke="#eeeeee" cx="232.561" cy="-91" rx="86.3647" ry="18"/>
<text text-anchor="middle" x="232.561" y="-87.9" font-family="Verdana" font-size="12.00">Treasurer.COMPANY</text>
</g>
<!-- proposal&#45;&gt;Treasurer.COMPANY -->
<g id="edge2" class="edge"><title>proposal&#45;&gt;Treasurer.COMPANY</title>
<path fill="none" stroke="#31cef0" d="M375.869,-155.34C344.062,-141.282 298.869,-121.307 267.782,-107.567"/>
<polygon fill="#31cef0" stroke="#31cef0" points="374.719,-158.659 385.28,-159.5 377.549,-152.256 374.719,-158.659"/>
<text text-anchor="middle" x="345.561" y="-129.8" font-family="Verdana" font-size="9.00">33%</text>
</g>
<!-- Controller.COMPANY -->
<g id="node4" class="node"><title>Controller.COMPANY</title>
<ellipse fill="#eeeeee" stroke="#eeeeee" cx="413.561" cy="-91" rx="87.3268" ry="18"/>
<text text-anchor="middle" x="413.561" y="-87.9" font-family="Verdana" font-size="12.00">Controller.COMPANY</text>
</g>
<!-- proposal&#45;&gt;Controller.COMPANY -->
<g id="edge3" class="edge"><title>proposal&#45;&gt;Controller.COMPANY</title>
<path fill="none" stroke="#31cef0" d="M413.561,-144.428C413.561,-132.675 413.561,-119.334 413.561,-109.05"/>
<polygon fill="#31cef0" stroke="#31cef0" points="410.061,-144.641 413.561,-154.641 417.061,-144.641 410.061,-144.641"/>
<text text-anchor="middle" x="424.561" y="-129.8" font-family="Verdana" font-size="9.00">33%</text>
</g>
<!-- Tax.COMPANY -->
<g id="node5" class="node"><title>Tax.COMPANY</title>
<ellipse fill="#eeeeee" stroke="#eeeeee" cx="571.561" cy="-91" rx="64.0421" ry="18"/>
<text text-anchor="middle" x="571.561" y="-87.9" font-family="Verdana" font-size="12.00">Tax.COMPANY</text>
</g>
<!-- proposal&#45;&gt;Tax.COMPANY -->
<g id="edge4" class="edge"><title>proposal&#45;&gt;Tax.COMPANY</title>
<path fill="none" stroke="#31cef0" d="M448.704,-154.206C476.711,-140.026 515.483,-120.394 541.933,-107.002"/>
<polygon fill="#31cef0" stroke="#31cef0" points="446.992,-151.15 439.652,-158.79 450.154,-157.395 446.992,-151.15"/>
<text text-anchor="middle" x="513.561" y="-129.8" font-family="Verdana" font-size="9.00">10%</text>
</g>
<!-- Accounting.COMPANY -->
<g id="node6" class="node"><title>Accounting.COMPANY</title>
<ellipse fill="#eeeeee" stroke="#eeeeee" cx="744.561" cy="-91" rx="91.9455" ry="18"/>
<text text-anchor="middle" x="744.561" y="-87.9" font-family="Verdana" font-size="12.00">Accounting.COMPANY</text>
</g>
<!-- proposal&#45;&gt;Accounting.COMPANY -->
<g id="edge5" class="edge"><title>proposal&#45;&gt;Accounting.COMPANY</title>
<path fill="none" stroke="#31cef0" d="M459.569,-160.88C519.623,-146.366 624.639,-120.984 689.048,-105.417"/>
<polygon fill="#31cef0" stroke="#31cef0" points="458.512,-157.535 449.614,-163.286 460.157,-164.339 458.512,-157.535"/>
<text text-anchor="middle" x="610.561" y="-129.8" font-family="Verdana" font-size="9.00">10%</text>
</g>
<!-- T1 -->
<g id="node7" class="node"><title>T1</title>
<ellipse fill="#eeeeee" stroke="#eeeeee" cx="171.561" cy="-18" rx="27" ry="18"/>
<text text-anchor="middle" x="171.561" y="-14.9" font-family="Verdana" font-size="12.00">T1</text>
</g>
<!-- Treasurer.COMPANY&#45;&gt;T1 -->
<g id="edge6" class="edge"><title>Treasurer.COMPANY&#45;&gt;T1</title>
<path fill="none" stroke="#31cef0" d="M211.57,-65.5678C202.641,-55.1742 192.503,-43.3742 184.666,-34.2531"/>
<polygon fill="#31cef0" stroke="#31cef0" points="208.934,-67.8698 218.105,-73.174 214.243,-63.3081 208.934,-67.8698"/>
</g>
<!-- T2 -->
<g id="node8" class="node"><title>T2</title>
<ellipse fill="#eeeeee" stroke="#eeeeee" cx="232.561" cy="-18" rx="27" ry="18"/>
<text text-anchor="middle" x="232.561" y="-14.9" font-family="Verdana" font-size="12.00">T2</text>
</g>
<!-- Treasurer.COMPANY&#45;&gt;T2 -->
<g id="edge7" class="edge"><title>Treasurer.COMPANY&#45;&gt;T2</title>
<path fill="none" stroke="#31cef0" d="M232.561,-62.7534C232.561,-53.7651 232.561,-44.0295 232.561,-36.0288"/>
<polygon fill="#31cef0" stroke="#31cef0" points="229.061,-62.8128 232.561,-72.8129 236.061,-62.8129 229.061,-62.8128"/>
</g>
<!-- T3 -->
<g id="node9" class="node"><title>T3</title>
<ellipse fill="#eeeeee" stroke="#eeeeee" cx="293.561" cy="-18" rx="27" ry="18"/>
<text text-anchor="middle" x="293.561" y="-14.9" font-family="Verdana" font-size="12.00">T3</text>
</g>
<!-- Treasurer.COMPANY&#45;&gt;T3 -->
<g id="edge8" class="edge"><title>Treasurer.COMPANY&#45;&gt;T3</title>
<path fill="none" stroke="#31cef0" d="M253.552,-65.5678C262.482,-55.1742 272.62,-43.3742 280.457,-34.2531"/>
<polygon fill="#31cef0" stroke="#31cef0" points="250.879,-63.3081 247.017,-73.174 256.189,-67.8698 250.879,-63.3081"/>
</g>
<!-- C1 -->
<g id="node10" class="node"><title>C1</title>
<ellipse fill="#eeeeee" stroke="#eeeeee" cx="371.561" cy="-18" rx="27" ry="18"/>
<text text-anchor="middle" x="371.561" y="-14.9" font-family="Verdana" font-size="12.00">C1</text>
</g>
<!-- Controller.COMPANY&#45;&gt;C1 -->
<g id="edge9" class="edge"><title>Controller.COMPANY&#45;&gt;C1</title>
<path fill="none" stroke="#31cef0" d="M398.15,-63.947C392.425,-54.2689 386.102,-43.5805 381.059,-35.0556"/>
<polygon fill="#31cef0" stroke="#31cef0" points="395.29,-65.988 403.394,-72.8129 401.315,-62.424 395.29,-65.988"/>
</g>
<!-- C2 -->
<g id="node11" class="node"><title>C2</title>
<ellipse fill="#eeeeee" stroke="#eeeeee" cx="432.561" cy="-18" rx="27" ry="18"/>
<text text-anchor="middle" x="432.561" y="-14.9" font-family="Verdana" font-size="12.00">C2</text>
</g>
<!-- Controller.COMPANY&#45;&gt;C2 -->
<g id="edge10" class="edge"><title>Controller.COMPANY&#45;&gt;C2</title>
<path fill="none" stroke="#31cef0" d="M420.774,-63.0462C423.201,-53.9769 425.84,-44.1164 428.004,-36.0288"/>
<polygon fill="#31cef0" stroke="#31cef0" points="417.365,-62.248 418.161,-72.8129 424.127,-64.0576 417.365,-62.248"/>
</g>
<!-- X1 -->
<g id="node12" class="node"><title>X1</title>
<ellipse fill="#eeeeee" stroke="#eeeeee" cx="510.561" cy="-18" rx="27" ry="18"/>
<text text-anchor="middle" x="510.561" y="-14.9" font-family="Verdana" font-size="12.00">X1</text>
</g>
<!-- Tax.COMPANY&#45;&gt;X1 -->
<g id="edge11" class="edge"><title>Tax.COMPANY&#45;&gt;X1</title>
<path fill="none" stroke="#31cef0" d="M550.57,-65.5678C541.641,-55.1742 531.503,-43.3742 523.666,-34.2531"/>
<polygon fill="#31cef0" stroke="#31cef0" points="547.934,-67.8698 557.105,-73.174 553.243,-63.3081 547.934,-67.8698"/>
</g>
<!-- X2 -->
<g id="node13" class="node"><title>X2</title>
<ellipse fill="#eeeeee" stroke="#eeeeee" cx="571.561" cy="-18" rx="27" ry="18"/>
<text text-anchor="middle" x="571.561" y="-14.9" font-family="Verdana" font-size="12.00">X2</text>
</g>
<!-- Tax.COMPANY&#45;&gt;X2 -->
<g id="edge12" class="edge"><title>Tax.COMPANY&#45;&gt;X2</title>
<path fill="none" stroke="#31cef0" d="M571.561,-62.7534C571.561,-53.7651 571.561,-44.0295 571.561,-36.0288"/>
<polygon fill="#31cef0" stroke="#31cef0" points="568.061,-62.8128 571.561,-72.8129 575.061,-62.8129 568.061,-62.8128"/>
</g>
<!-- A1 -->
<g id="node14" class="node"><title>A1</title>
<ellipse fill="#eeeeee" stroke="#eeeeee" cx="632.561" cy="-18" rx="27" ry="18"/>
<text text-anchor="middle" x="632.561" y="-14.9" font-family="Verdana" font-size="12.00">A1</text>
</g>
<!-- Accounting.COMPANY&#45;&gt;A1 -->
<g id="edge13" class="edge"><title>Accounting.COMPANY&#45;&gt;A1</title>
<path fill="none" stroke="#31cef0" d="M710.313,-68.2889C690.98,-56.0331 667.552,-41.1813 651.498,-31.0046"/>
<polygon fill="#31cef0" stroke="#31cef0" points="708.546,-71.3131 718.866,-73.7112 712.294,-65.4009 708.546,-71.3131"/>
</g>
<!-- A2 -->
<g id="node15" class="node"><title>A2</title>
<ellipse fill="#eeeeee" stroke="#eeeeee" cx="693.561" cy="-18" rx="27" ry="18"/>
<text text-anchor="middle" x="693.561" y="-14.9" font-family="Verdana" font-size="12.00">A2</text>
</g>
<!-- Accounting.COMPANY&#45;&gt;A2 -->
<g id="edge14" class="edge"><title>Accounting.COMPANY&#45;&gt;A2</title>
<path fill="none" stroke="#31cef0" d="M726.188,-64.4208C719.016,-54.4371 711.027,-43.3152 704.75,-34.5758"/>
<polygon fill="#31cef0" stroke="#31cef0" points="723.539,-66.7329 732.216,-72.8129 729.224,-62.6491 723.539,-66.7329"/>
</g>
<!-- A3 -->
<g id="node16" class="node"><title>A3</title>
<ellipse fill="#eeeeee" stroke="#eeeeee" cx="754.561" cy="-18" rx="27" ry="18"/>
<text text-anchor="middle" x="754.561" y="-14.9" font-family="Verdana" font-size="12.00">A3</text>
</g>
<!-- Accounting.COMPANY&#45;&gt;A3 -->
<g id="edge15" class="edge"><title>Accounting.COMPANY&#45;&gt;A3</title>
<path fill="none" stroke="#31cef0" d="M748.399,-62.7534C749.665,-53.7651 751.036,-44.0295 752.163,-36.0288"/>
<polygon fill="#31cef0" stroke="#31cef0" points="744.911,-62.4224 746.982,-72.8129 751.843,-63.3988 744.911,-62.4224"/>
</g>
<!-- A4 -->
<g id="node17" class="node"><title>A4</title>
<ellipse fill="#eeeeee" stroke="#eeeeee" cx="815.561" cy="-18" rx="27" ry="18"/>
<text text-anchor="middle" x="815.561" y="-14.9" font-family="Verdana" font-size="12.00">A4</text>
</g>
<!-- Accounting.COMPANY&#45;&gt;A4 -->
<g id="edge16" class="edge"><title>Accounting.COMPANY&#45;&gt;A4</title>
<path fill="none" stroke="#31cef0" d="M768.587,-65.9746C779.439,-55.1221 791.895,-42.6666 801.252,-33.3092"/>
<polygon fill="#31cef0" stroke="#31cef0" points="765.984,-63.628 761.387,-73.174 770.933,-68.5778 765.984,-63.628"/>
</g>
<!-- A5 -->
<g id="node18" class="node"><title>A5</title>
<ellipse fill="#eeeeee" stroke="#eeeeee" cx="876.561" cy="-18" rx="27" ry="18"/>
<text text-anchor="middle" x="876.561" y="-14.9" font-family="Verdana" font-size="12.00">A5</text>
</g>
<!-- Accounting.COMPANY&#45;&gt;A5 -->
<g id="edge17" class="edge"><title>Accounting.COMPANY&#45;&gt;A5</title>
<path fill="none" stroke="#31cef0" d="M783.937,-69.0723C802.634,-59.1032 825.276,-46.9843 845.561,-36 849.016,-34.1294 852.68,-32.1316 856.234,-30.1872"/>
<polygon fill="#31cef0" stroke="#31cef0" points="782.283,-65.9879 775.103,-73.7791 785.574,-72.1657 782.283,-65.9879"/>
</g>
</g>
</svg>
