<?xml version="1.0" encoding="UTF-8" standalone="no"?>
<!DOCTYPE svg PUBLIC "-//W3C//DTD SVG 1.1//EN"
 "http://www.w3.org/Graphics/SVG/1.1/DTD/svg11.dtd">
<!-- Generated by graphviz version 2.40.1 (20161225.0304)
 -->
<!-- Title: G Pages: 1 -->
<svg width="907pt" height="199pt"
 viewBox="0.00 0.00 906.95 199.00" xmlns="http://www.w3.org/2000/svg" xmlns:xlink="http://www.w3.org/1999/xlink">
<g id="graph0" class="graph" transform="scale(1 1) rotate(0) translate(4 195)">
<title>G</title>
<polygon fill="#ffffff" stroke="transparent" points="-4,4 -4,-195 902.9457,-195 902.9457,4 -4,4"/>
<!-- proposal -->
<g id="node1" class="node">
<title>proposal</title>
<ellipse fill="#eeeeee" stroke="#eeeeee" cx="409.9457" cy="-173" rx="41.7203" ry="18"/>
<text text-anchor="middle" x="409.9457" y="-169.9" font-family="Verdana" font-size="12.00" fill="#000000">proposal</text>
</g>
<!-- Chief.COMPANY -->
<g id="node2" class="node">
<title>Chief.COMPANY</title>
<ellipse fill="#eeeeee" stroke="#eeeeee" cx="68.9457" cy="-91" rx="68.8915" ry="18"/>
<text text-anchor="middle" x="68.9457" y="-87.9" font-family="Verdana" font-size="12.00" fill="#000000">Chief.COMPANY</text>
</g>
<!-- proposal&#45;&gt;Chief.COMPANY -->
<g id="edge1" class="edge">
<title>proposal&#45;&gt;Chief.COMPANY</title>
<path fill="none" stroke="#31cef0" d="M363.2045,-161.9476C309.7054,-149.2718 219.4637,-127.8126 141.9457,-109 134.5885,-107.2145 126.8178,-105.3141 119.1987,-103.4425"/>
<polygon fill="#31cef0" stroke="#31cef0" points="362.5398,-165.3869 373.0773,-164.2859 364.1532,-158.5754 362.5398,-165.3869"/>
<text text-anchor="middle" x="263.9457" y="-129.8" font-family="Verdana" font-size="9.00" fill="#000000">51%</text>
</g>
<!-- Treasurer.COMPANY -->
<g id="node3" class="node">
<title>Treasurer.COMPANY</title>
<ellipse fill="#eeeeee" stroke="#eeeeee" cx="230.9457" cy="-91" rx="86.3647" ry="18"/>
<text text-anchor="middle" x="230.9457" y="-87.9" font-family="Verdana" font-size="12.00" fill="#000000">Treasurer.COMPANY</text>
</g>
<!-- proposal&#45;&gt;Treasurer.COMPANY -->
<g id="edge2" class="edge">
<title>proposal&#45;&gt;Treasurer.COMPANY</title>
<path fill="none" stroke="#31cef0" d="M371.97,-155.6033C340.8796,-141.3608 297.2095,-121.3555 266.7305,-107.393"/>
<polygon fill="#31cef0" stroke="#31cef0" points="370.6371,-158.8424 381.1863,-159.8253 373.5525,-152.4784 370.6371,-158.8424"/>
<text text-anchor="middle" x="342.9457" y="-129.8" font-family="Verdana" font-size="9.00" fill="#000000">33%</text>
</g>
<!-- Controller.COMPANY -->
<g id="node4" class="node">
<title>Controller.COMPANY</title>
<ellipse fill="#eeeeee" stroke="#eeeeee" cx="409.9457" cy="-91" rx="86.3647" ry="18"/>
<text text-anchor="middle" x="409.9457" y="-87.9" font-family="Verdana" font-size="12.00" fill="#000000">Controller.COMPANY</text>
</g>
<!-- proposal&#45;&gt;Controller.COMPANY -->
<g id="edge3" class="edge">
<title>proposal&#45;&gt;Controller.COMPANY</title>
<path fill="none" stroke="#31cef0" d="M409.9457,-144.5658C409.9457,-132.816 409.9457,-119.5421 409.9457,-109.1476"/>
<polygon fill="#31cef0" stroke="#31cef0" points="406.4458,-144.8015 409.9457,-154.8015 413.4458,-144.8016 406.4458,-144.8015"/>
<text text-anchor="middle" x="420.9457" y="-129.8" font-family="Verdana" font-size="9.00" fill="#000000">33%</text>
</g>
<!-- Tax.COMPANY -->
<g id="node5" class="node">
<title>Tax.COMPANY</title>
<ellipse fill="#eeeeee" stroke="#eeeeee" cx="566.9457" cy="-91" rx="63.3111" ry="18"/>
<text text-anchor="middle" x="566.9457" y="-87.9" font-family="Verdana" font-size="12.00" fill="#000000">Tax.COMPANY</text>
</g>
<!-- proposal&#45;&gt;Tax.COMPANY -->
<g id="edge4" class="edge">
<title>proposal&#45;&gt;Tax.COMPANY</title>
<path fill="none" stroke="#31cef0" d="M445.4515,-154.4556C472.849,-140.1461 510.3504,-120.5593 536.4127,-106.9472"/>
<polygon fill="#31cef0" stroke="#31cef0" points="443.8222,-151.3579 436.5787,-159.0898 447.0629,-157.5626 443.8222,-151.3579"/>
<text text-anchor="middle" x="508.9457" y="-129.8" font-family="Verdana" font-size="9.00" fill="#000000">10%</text>
</g>
<!-- Accounting.COMPANY -->
<g id="node6" class="node">
<title>Accounting.COMPANY</title>
<ellipse fill="#eeeeee" stroke="#eeeeee" cx="738.9457" cy="-91" rx="89.7516" ry="18"/>
<text text-anchor="middle" x="738.9457" y="-87.9" font-family="Verdana" font-size="12.00" fill="#000000">Accounting.COMPANY</text>
</g>
<!-- proposal&#45;&gt;Accounting.COMPANY -->
<g id="edge5" class="edge">
<title>proposal&#45;&gt;Accounting.COMPANY</title>
<path fill="none" stroke="#31cef0" d="M456.2681,-161.4546C515.6722,-146.6487 618.6283,-120.9879 682.5348,-105.0599"/>
<polygon fill="#31cef0" stroke="#31cef0" points="455.2682,-158.0967 446.4115,-163.9113 456.9612,-164.8889 455.2682,-158.0967"/>
<text text-anchor="middle" x="605.9457" y="-129.8" font-family="Verdana" font-size="9.00" fill="#000000">10%</text>
</g>
<!-- T1 -->
<g id="node7" class="node">
<title>T1</title>
<ellipse fill="#eeeeee" stroke="#eeeeee" cx="169.9457" cy="-18" rx="27" ry="18"/>
<text text-anchor="middle" x="169.9457" y="-14.9" font-family="Verdana" font-size="12.00" fill="#000000">T1</text>
</g>
<!-- Treasurer.COMPANY&#45;&gt;T1 -->
<g id="edge6" class="edge">
<title>Treasurer.COMPANY&#45;&gt;T1</title>
<path fill="none" stroke="#31cef0" d="M209.4422,-65.2662C200.6934,-54.7964 190.86,-43.0286 183.1936,-33.854"/>
<polygon fill="#31cef0" stroke="#31cef0" points="206.7691,-67.5257 215.8671,-72.9551 212.1406,-63.0372 206.7691,-67.5257"/>
</g>
<!-- T2 -->
<g id="node8" class="node">
<title>T2</title>
<ellipse fill="#eeeeee" stroke="#eeeeee" cx="230.9457" cy="-18" rx="27" ry="18"/>
<text text-anchor="middle" x="230.9457" y="-14.9" font-family="Verdana" font-size="12.00" fill="#000000">T2</text>
</g>
<!-- Treasurer.COMPANY&#45;&gt;T2 -->
<g id="edge7" class="edge">
<title>Treasurer.COMPANY&#45;&gt;T2</title>
<path fill="none" stroke="#31cef0" d="M230.9457,-62.8688C230.9457,-53.8769 230.9457,-44.1687 230.9457,-36.0904"/>
<polygon fill="#31cef0" stroke="#31cef0" points="227.4458,-62.955 230.9457,-72.9551 234.4458,-62.9551 227.4458,-62.955"/>
</g>
<!-- T3 -->
<g id="node9" class="node">
<title>T3</title>
<ellipse fill="#eeeeee" stroke="#eeeeee" cx="291.9457" cy="-18" rx="27" ry="18"/>
<text text-anchor="middle" x="291.9457" y="-14.9" font-family="Verdana" font-size="12.00" fill="#000000">T3</text>
</g>
<!-- Treasurer.COMPANY&#45;&gt;T3 -->
<g id="edge8" class="edge">
<title>Treasurer.COMPANY&#45;&gt;T3</title>
<path fill="none" stroke="#31cef0" d="M252.4493,-65.2662C261.1981,-54.7964 271.0315,-43.0286 278.6979,-33.854"/>
<polygon fill="#31cef0" stroke="#31cef0" points="249.7508,-63.0372 246.0244,-72.9551 255.1224,-67.5257 249.7508,-63.0372"/>
</g>
<!-- C1 -->
<g id="node10" class="node">
<title>C1</title>
<ellipse fill="#eeeeee" stroke="#eeeeee" cx="368.9457" cy="-18" rx="27" ry="18"/>
<text text-anchor="middle" x="368.9457" y="-14.9" font-family="Verdana" font-size="12.00" fill="#000000">C1</text>
</g>
<!-- Controller.COMPANY&#45;&gt;C1 -->
<g id="edge9" class="edge">
<title>Controller.COMPANY&#45;&gt;C1</title>
<path fill="none" stroke="#31cef0" d="M394.8515,-64.125C389.4503,-54.5082 383.51,-43.9314 378.6817,-35.3347"/>
<polygon fill="#31cef0" stroke="#31cef0" points="391.8623,-65.95 399.8109,-72.9551 397.9656,-62.5221 391.8623,-65.95"/>
</g>
<!-- C2 -->
<g id="node11" class="node">
<title>C2</title>
<ellipse fill="#eeeeee" stroke="#eeeeee" cx="429.9457" cy="-18" rx="27" ry="18"/>
<text text-anchor="middle" x="429.9457" y="-14.9" font-family="Verdana" font-size="12.00" fill="#000000">C2</text>
</g>
<!-- Controller.COMPANY&#45;&gt;C2 -->
<g id="edge10" class="edge">
<title>Controller.COMPANY&#45;&gt;C2</title>
<path fill="none" stroke="#31cef0" d="M417.5938,-63.0848C420.0996,-53.9385 422.8143,-44.0299 425.0588,-35.8374"/>
<polygon fill="#31cef0" stroke="#31cef0" points="414.1564,-62.3856 414.8896,-72.9551 420.9076,-64.2353 414.1564,-62.3856"/>
</g>
<!-- X1 -->
<g id="node12" class="node">
<title>X1</title>
<ellipse fill="#eeeeee" stroke="#eeeeee" cx="505.9457" cy="-18" rx="27" ry="18"/>
<text text-anchor="middle" x="505.9457" y="-14.9" font-family="Verdana" font-size="12.00" fill="#000000">X1</text>
</g>
<!-- Tax.COMPANY&#45;&gt;X1 -->
<g id="edge11" class="edge">
<title>Tax.COMPANY&#45;&gt;X1</title>
<path fill="none" stroke="#31cef0" d="M545.7463,-65.6301C536.9727,-55.1306 527.0638,-43.2724 519.3277,-34.0145"/>
<polygon fill="#31cef0" stroke="#31cef0" points="543.0814,-67.8994 552.1793,-73.3287 548.4529,-63.4108 543.0814,-67.8994"/>
</g>
<!-- X2 -->
<g id="node13" class="node">
<title>X2</title>
<ellipse fill="#eeeeee" stroke="#eeeeee" cx="566.9457" cy="-18" rx="27" ry="18"/>
<text text-anchor="middle" x="566.9457" y="-14.9" font-family="Verdana" font-size="12.00" fill="#000000">X2</text>
</g>
<!-- Tax.COMPANY&#45;&gt;X2 -->
<g id="edge12" class="edge">
<title>Tax.COMPANY&#45;&gt;X2</title>
<path fill="none" stroke="#31cef0" d="M566.9457,-62.8688C566.9457,-53.8769 566.9457,-44.1687 566.9457,-36.0904"/>
<polygon fill="#31cef0" stroke="#31cef0" points="563.4458,-62.955 566.9457,-72.9551 570.4458,-62.9551 563.4458,-62.955"/>
</g>
<!-- A1 -->
<g id="node14" class="node">
<title>A1</title>
<ellipse fill="#eeeeee" stroke="#eeeeee" cx="627.9457" cy="-18" rx="27" ry="18"/>
<text text-anchor="middle" x="627.9457" y="-14.9" font-family="Verdana" font-size="12.00" fill="#000000">A1</text>
</g>
<!-- Accounting.COMPANY&#45;&gt;A1 -->
<g id="edge13" class="edge">
<title>Accounting.COMPANY&#45;&gt;A1</title>
<path fill="none" stroke="#31cef0" d="M704.0807,-68.0707C685.4025,-55.7869 663.0886,-41.112 647.4632,-30.8358"/>
<polygon fill="#31cef0" stroke="#31cef0" points="702.362,-71.1295 712.6403,-73.7 706.2084,-65.2809 702.362,-71.1295"/>
</g>
<!-- A2 -->
<g id="node15" class="node">
<title>A2</title>
<ellipse fill="#eeeeee" stroke="#eeeeee" cx="688.9457" cy="-18" rx="27" ry="18"/>
<text text-anchor="middle" x="688.9457" y="-14.9" font-family="Verdana" font-size="12.00" fill="#000000">A2</text>
</g>
<!-- Accounting.COMPANY&#45;&gt;A2 -->
<g id="edge14" class="edge">
<title>Accounting.COMPANY&#45;&gt;A2</title>
<path fill="none" stroke="#31cef0" d="M720.8582,-64.5922C714.0593,-54.6658 706.5202,-43.6587 700.4776,-34.8365"/>
<polygon fill="#31cef0" stroke="#31cef0" points="718.0476,-66.6826 726.5862,-72.9551 723.8229,-62.7269 718.0476,-66.6826"/>
</g>
<!-- A3 -->
<g id="node16" class="node">
<title>A3</title>
<ellipse fill="#eeeeee" stroke="#eeeeee" cx="749.9457" cy="-18" rx="27" ry="18"/>
<text text-anchor="middle" x="749.9457" y="-14.9" font-family="Verdana" font-size="12.00" fill="#000000">A3</text>
</g>
<!-- Accounting.COMPANY&#45;&gt;A3 -->
<g id="edge15" class="edge">
<title>Accounting.COMPANY&#45;&gt;A3</title>
<path fill="none" stroke="#31cef0" d="M743.1847,-62.8688C744.5396,-53.8769 746.0025,-44.1687 747.2198,-36.0904"/>
<polygon fill="#31cef0" stroke="#31cef0" points="739.694,-62.5451 741.6648,-72.9551 746.6159,-63.5882 739.694,-62.5451"/>
</g>
<!-- A4 -->
<g id="node17" class="node">
<title>A4</title>
<ellipse fill="#eeeeee" stroke="#eeeeee" cx="810.9457" cy="-18" rx="27" ry="18"/>
<text text-anchor="middle" x="810.9457" y="-14.9" font-family="Verdana" font-size="12.00" fill="#000000">A4</text>
</g>
<!-- Accounting.COMPANY&#45;&gt;A4 -->
<g id="edge16" class="edge">
<title>Accounting.COMPANY&#45;&gt;A4</title>
<path fill="none" stroke="#31cef0" d="M763.5655,-66.0383C774.3845,-55.069 786.732,-42.55 796.1091,-33.0427"/>
<polygon fill="#31cef0" stroke="#31cef0" points="760.9052,-63.7513 756.3749,-73.3287 765.889,-68.6668 760.9052,-63.7513"/>
</g>
<!-- A5 -->
<g id="node18" class="node">
<title>A5</title>
<ellipse fill="#eeeeee" stroke="#eeeeee" cx="871.9457" cy="-18" rx="27" ry="18"/>
<text text-anchor="middle" x="871.9457" y="-14.9" font-family="Verdana" font-size="12.00" fill="#000000">A5</text>
</g>
<!-- Accounting.COMPANY&#45;&gt;A5 -->
<g id="edge17" class="edge">
<title>Accounting.COMPANY&#45;&gt;A5</title>
<path fill="none" stroke="#31cef0" d="M779.6605,-69.4247C798.3998,-59.3975 820.8803,-47.2316 840.9457,-36 844.4213,-34.0546 848.0966,-31.9568 851.6545,-29.9046"/>
<polygon fill="#31cef0" stroke="#31cef0" points="777.9614,-66.3641 770.7887,-74.1618 781.2585,-72.539 777.9614,-66.3641"/>
</g>
</g>
</svg>
