<?xml version="1.0" encoding="UTF-8" standalone="no"?>
<!DOCTYPE svg PUBLIC "-//W3C//DTD SVG 1.1//EN"
 "http://www.w3.org/Graphics/SVG/1.1/DTD/svg11.dtd">
<!-- Generated by graphviz version 2.38.0 (20140413.2041)
 -->
<!-- Title: foo Pages: 1 -->
<svg width="531pt" height="226pt"
 viewBox="0.00 0.00 531.00 226.00" xmlns="http://www.w3.org/2000/svg" xmlns:xlink="http://www.w3.org/1999/xlink">
<g id="graph0" class="graph" transform="scale(1 1) rotate(0) translate(4 222)">
<title>foo</title>
<polygon fill="white" stroke="none" points="-4,4 -4,-222 527,-222 527,4 -4,4"/>
<!-- P2P network2 -->
<g id="node1" class="node"><title>P2P network2</title>
<polygon fill="#eeeeee" stroke="#eeeeee" points="0,-90.5 0,-126.5 100,-126.5 100,-90.5 0,-90.5"/>
<text text-anchor="middle" x="50" y="-105.4" font-family="Verdana" font-size="12.00">P2P network2</text>
</g>
<!-- Trusted Full Node -->
<g id="node2" class="node"><title>Trusted Full Node</title>
<polygon fill="#eeeeee" stroke="#eeeeee" points="136,-90.5 136,-126.5 261,-126.5 261,-90.5 136,-90.5"/>
<text text-anchor="middle" x="198.5" y="-105.4" font-family="Verdana" font-size="12.00">Trusted Full Node</text>
</g>
<!-- P2P network2&#45;&gt;Trusted Full Node -->
<g id="edge1" class="edge"><title>P2P network2&#45;&gt;Trusted Full Node</title>
<path fill="none" stroke="#31cef0" d="M110.275,-108.5C110.275,-108.5 125.899,-108.5 125.899,-108.5"/>
<polygon fill="#31cef0" stroke="#31cef0" points="125.899,-112 135.899,-108.5 125.899,-105 125.899,-112"/>
<polygon fill="#31cef0" stroke="#31cef0" points="110.275,-105 100.275,-108.5 110.275,-112 110.275,-105"/>
</g>
<!-- Wallet -->
<g id="node3" class="node"><title>Wallet</title>
<polygon fill="#eeeeee" stroke="#eeeeee" points="322,-181.5 322,-217.5 379,-217.5 379,-181.5 322,-181.5"/>
<text text-anchor="middle" x="350.5" y="-196.4" font-family="Verdana" font-size="12.00">Wallet</text>
</g>
<!-- Trusted Full Node&#45;&gt;Wallet -->
<g id="edge2" class="edge"><title>Trusted Full Node&#45;&gt;Wallet</title>
<path fill="none" stroke="#31cef0" d="M271.408,-114.667C271.408,-114.667 351,-114.667 351,-114.667 351,-114.667 351,-171.092 351,-171.092"/>
<polygon fill="#31cef0" stroke="#31cef0" points="271.408,-111.167 261.408,-114.667 271.408,-118.167 271.408,-111.167"/>
<polygon fill="#31cef0" stroke="#31cef0" points="347.5,-171.092 351,-181.092 354.5,-171.092 347.5,-171.092"/>
</g>
<!-- Blockchain API -->
<g id="node5" class="node"><title>Blockchain API</title>
<polygon fill="#eeeeee" stroke="#eeeeee" points="297,-0.5 297,-36.5 404,-36.5 404,-0.5 297,-0.5"/>
<text text-anchor="middle" x="350.5" y="-15.4" font-family="Verdana" font-size="12.00">Blockchain API</text>
</g>
<!-- Trusted Full Node&#45;&gt;Blockchain API -->
<g id="edge4" class="edge"><title>Trusted Full Node&#45;&gt;Blockchain API</title>
<path fill="none" stroke="#31cef0" d="M271.094,-102.333C271.094,-102.333 310,-102.333 310,-102.333 310,-102.333 310,-46.6906 310,-46.6906"/>
<polygon fill="#31cef0" stroke="#31cef0" points="271.095,-98.8334 261.094,-102.333 271.094,-105.833 271.095,-98.8334"/>
<polygon fill="#31cef0" stroke="#31cef0" points="313.5,-46.6905 310,-36.6906 306.5,-46.6906 313.5,-46.6905"/>
</g>
<!-- Wallet API -->
<g id="node4" class="node"><title>Wallet API</title>
<polygon fill="#eeeeee" stroke="#eeeeee" points="440,-181.5 440,-217.5 523,-217.5 523,-181.5 440,-181.5"/>
<text text-anchor="middle" x="481.5" y="-196.4" font-family="Verdana" font-size="12.00">Wallet API</text>
</g>
<!-- Wallet&#45;&gt;Wallet API -->
<g id="edge3" class="edge"><title>Wallet&#45;&gt;Wallet API</title>
<path fill="none" stroke="#31cef0" d="M389.249,-199.5C389.249,-199.5 429.89,-199.5 429.89,-199.5"/>
<polygon fill="#31cef0" stroke="#31cef0" points="429.89,-203 439.89,-199.5 429.89,-196 429.89,-203"/>
<polygon fill="#31cef0" stroke="#31cef0" points="389.249,-196 379.249,-199.5 389.248,-203 389.249,-196"/>
</g>
</g>
</svg>
