<?xml version="1.0" encoding="UTF-8" standalone="no"?>
<!DOCTYPE svg PUBLIC "-//W3C//DTD SVG 1.1//EN"
 "http://www.w3.org/Graphics/SVG/1.1/DTD/svg11.dtd">
<!-- Generated by graphviz version 2.38.0 (20140413.2041)
 -->
<!-- Title: foo Pages: 1 -->
<svg width="523pt" height="226pt"
 viewBox="0.00 0.00 523.00 226.00" xmlns="http://www.w3.org/2000/svg" xmlns:xlink="http://www.w3.org/1999/xlink">
<g id="graph0" class="graph" transform="scale(1 1) rotate(0) translate(4 222)">
<title>foo</title>
<polygon fill="white" stroke="none" points="-4,4 -4,-222 519,-222 519,4 -4,4"/>
<!-- P2P network -->
<g id="node1" class="node"><title>P2P network</title>
<polygon fill="#eeeeee" stroke="#eeeeee" points="0,-90.5 0,-126.5 92,-126.5 92,-90.5 0,-90.5"/>
<text text-anchor="middle" x="46" y="-105.4" font-family="Verdana" font-size="12.00">P2P network</text>
</g>
<!-- Trusted Full Node -->
<g id="node2" class="node"><title>Trusted Full Node</title>
<polygon fill="#eeeeee" stroke="#eeeeee" points="128,-90.5 128,-126.5 253,-126.5 253,-90.5 128,-90.5"/>
<text text-anchor="middle" x="190.5" y="-105.4" font-family="Verdana" font-size="12.00">Trusted Full Node</text>
</g>
<!-- P2P network&#45;&gt;Trusted Full Node -->
<g id="edge1" class="edge"><title>P2P network&#45;&gt;Trusted Full Node</title>
<path fill="none" stroke="#31cef0" d="M102.118,-108.5C102.118,-108.5 117.952,-108.5 117.952,-108.5"/>
<polygon fill="#31cef0" stroke="#31cef0" points="117.952,-112 127.952,-108.5 117.952,-105 117.952,-112"/>
<polygon fill="#31cef0" stroke="#31cef0" points="102.118,-105 92.118,-108.5 102.118,-112 102.118,-105"/>
</g>
<!-- Wallet -->
<g id="node3" class="node"><title>Wallet</title>
<polygon fill="#eeeeee" stroke="#eeeeee" points="314,-181.5 314,-217.5 371,-217.5 371,-181.5 314,-181.5"/>
<text text-anchor="middle" x="342.5" y="-196.4" font-family="Verdana" font-size="12.00">Wallet</text>
</g>
<!-- Trusted Full Node&#45;&gt;Wallet -->
<g id="edge2" class="edge"><title>Trusted Full Node&#45;&gt;Wallet</title>
<path fill="none" stroke="#31cef0" d="M263.408,-114.667C263.408,-114.667 343,-114.667 343,-114.667 343,-114.667 343,-171.092 343,-171.092"/>
<polygon fill="#31cef0" stroke="#31cef0" points="263.408,-111.167 253.408,-114.667 263.408,-118.167 263.408,-111.167"/>
<polygon fill="#31cef0" stroke="#31cef0" points="339.5,-171.092 343,-181.092 346.5,-171.092 339.5,-171.092"/>
</g>
<!-- Blockchain API -->
<g id="node5" class="node"><title>Blockchain API</title>
<polygon fill="#eeeeee" stroke="#eeeeee" points="289,-0.5 289,-36.5 396,-36.5 396,-0.5 289,-0.5"/>
<text text-anchor="middle" x="342.5" y="-15.4" font-family="Verdana" font-size="12.00">Blockchain API</text>
</g>
<!-- Trusted Full Node&#45;&gt;Blockchain API -->
<g id="edge4" class="edge"><title>Trusted Full Node&#45;&gt;Blockchain API</title>
<path fill="none" stroke="#31cef0" d="M263.094,-102.333C263.094,-102.333 302,-102.333 302,-102.333 302,-102.333 302,-46.6906 302,-46.6906"/>
<polygon fill="#31cef0" stroke="#31cef0" points="263.095,-98.8334 253.094,-102.333 263.094,-105.833 263.095,-98.8334"/>
<polygon fill="#31cef0" stroke="#31cef0" points="305.5,-46.6905 302,-36.6906 298.5,-46.6906 305.5,-46.6905"/>
</g>
<!-- Wallet API -->
<g id="node4" class="node"><title>Wallet API</title>
<polygon fill="#eeeeee" stroke="#eeeeee" points="432,-181.5 432,-217.5 515,-217.5 515,-181.5 432,-181.5"/>
<text text-anchor="middle" x="473.5" y="-196.4" font-family="Verdana" font-size="12.00">Wallet API</text>
</g>
<!-- Wallet&#45;&gt;Wallet API -->
<g id="edge3" class="edge"><title>Wallet&#45;&gt;Wallet API</title>
<path fill="none" stroke="#31cef0" d="M381.249,-199.5C381.249,-199.5 421.89,-199.5 421.89,-199.5"/>
<polygon fill="#31cef0" stroke="#31cef0" points="421.89,-203 431.89,-199.5 421.89,-196 421.89,-203"/>
<polygon fill="#31cef0" stroke="#31cef0" points="381.249,-196 371.249,-199.5 381.248,-203 381.249,-196"/>
</g>
</g>
</svg>
