<?xml version="1.0" encoding="UTF-8" standalone="no"?>
<!DOCTYPE svg PUBLIC "-//W3C//DTD SVG 1.1//EN"
 "http://www.w3.org/Graphics/SVG/1.1/DTD/svg11.dtd">
<!-- Generated by graphviz version 2.38.0 (20140413.2041)
 -->
<!-- Title: foo Pages: 1 -->
<svg width="511pt" height="83pt"
 viewBox="0.00 0.00 511.27 83.00" xmlns="http://www.w3.org/2000/svg" xmlns:xlink="http://www.w3.org/1999/xlink">
<g id="graph0" class="graph" transform="scale(1 1) rotate(0) translate(4 79)">
<title>foo</title>
<polygon fill="white" stroke="none" points="-4,4 -4,-79 507.268,-79 507.268,4 -4,4"/>
<!-- Wallet API -->
<g id="node1" class="node"><title>Wallet API</title>
<polygon fill="none" stroke="#ffffff" points="410.768,-0.5 410.768,-36.5 490.768,-36.5 490.768,-0.5 410.768,-0.5"/>
<text text-anchor="middle" x="450.768" y="-15.4" font-family="Verdana" font-size="12.00">Wallet API</text>
</g>
<!-- Blockchain API -->
<g id="node2" class="node"><title>Blockchain API</title>
<polygon fill="none" stroke="#ffffff" points="398.268,-38.5 398.268,-74.5 503.268,-74.5 503.268,-38.5 398.268,-38.5"/>
<text text-anchor="middle" x="450.768" y="-53.4" font-family="Verdana" font-size="12.00">Blockchain API</text>
</g>
<!-- P2P network -->
<g id="node3" class="node"><title>P2P network</title>
<ellipse fill="none" stroke="#999999" cx="56.634" cy="-45.5" rx="56.7683" ry="18"/>
<text text-anchor="middle" x="56.634" y="-42.4" font-family="Verdana" font-size="12.00">P2P network</text>
</g>
<!-- Trusted Full Node -->
<g id="node4" class="node"><title>Trusted Full Node</title>
<polygon fill="#eeeeee" stroke="#eeeeee" points="149.268,-27.5 149.268,-63.5 272.268,-63.5 272.268,-27.5 149.268,-27.5"/>
<text text-anchor="middle" x="210.768" y="-42.4" font-family="Verdana" font-size="12.00">Trusted Full Node</text>
</g>
<!-- P2P network&#45;&gt;Trusted Full Node -->
<g id="edge1" class="edge"><title>P2P network&#45;&gt;Trusted Full Node</title>
<path fill="none" stroke="#31cef0" d="M123.59,-45.5C123.59,-45.5 139.126,-45.5 139.126,-45.5"/>
<polygon fill="#31cef0" stroke="#31cef0" points="139.126,-49 149.126,-45.5 139.126,-42 139.126,-49"/>
<polygon fill="#31cef0" stroke="#31cef0" points="123.59,-42 113.59,-45.5 123.59,-49 123.59,-42"/>
</g>
<!-- Trusted Full Node&#45;&gt;Blockchain API -->
<g id="edge4" class="edge"><title>Trusted Full Node&#45;&gt;Blockchain API</title>
<path fill="none" stroke="#31cef0" d="M282.574,-54.5C282.574,-54.5 388.118,-54.5 388.118,-54.5"/>
<polygon fill="#31cef0" stroke="#31cef0" points="388.118,-58 398.118,-54.5 388.118,-51 388.118,-58"/>
<polygon fill="#31cef0" stroke="#31cef0" points="282.574,-51 272.574,-54.5 282.574,-58 282.574,-51"/>
</g>
<!-- Wallet -->
<g id="node5" class="node"><title>Wallet</title>
<polygon fill="#eeeeee" stroke="#eeeeee" points="308.268,-8.5 308.268,-44.5 362.268,-44.5 362.268,-8.5 308.268,-8.5"/>
<text text-anchor="middle" x="335.268" y="-23.4" font-family="Verdana" font-size="12.00">Wallet</text>
</g>
<!-- Trusted Full Node&#45;&gt;Wallet -->
<g id="edge2" class="edge"><title>Trusted Full Node&#45;&gt;Wallet</title>
<path fill="none" stroke="#31cef0" d="M282.289,-36C282.289,-36 298.193,-36 298.193,-36"/>
<polygon fill="#31cef0" stroke="#31cef0" points="298.193,-39.5 308.193,-36 298.193,-32.5 298.193,-39.5"/>
<polygon fill="#31cef0" stroke="#31cef0" points="282.289,-32.5 272.289,-36 282.289,-39.5 282.289,-32.5"/>
</g>
<!-- Wallet&#45;&gt;Wallet API -->
<g id="edge3" class="edge"><title>Wallet&#45;&gt;Wallet API</title>
<path fill="none" stroke="#31cef0" d="M372.348,-22.5C372.348,-22.5 400.721,-22.5 400.721,-22.5"/>
<polygon fill="#31cef0" stroke="#31cef0" points="400.721,-26 410.721,-22.5 400.721,-19 400.721,-26"/>
<polygon fill="#31cef0" stroke="#31cef0" points="372.348,-19 362.348,-22.5 372.348,-26 372.348,-19"/>
</g>
</g>
</svg>
