<?xml version="1.0" encoding="UTF-8" standalone="no"?>
<!DOCTYPE svg PUBLIC "-//W3C//DTD SVG 1.1//EN"
 "http://www.w3.org/Graphics/SVG/1.1/DTD/svg11.dtd">
<!-- Generated by graphviz version 2.38.0 (20140413.2041)
 -->
<!-- Title: G Pages: 1 -->
<svg width="637pt" height="332pt"
 viewBox="0.00 0.00 636.57 332.00" xmlns="http://www.w3.org/2000/svg" xmlns:xlink="http://www.w3.org/1999/xlink">
<g id="graph0" class="graph" transform="scale(1 1) rotate(0) translate(4 328)">
<title>G</title>
<polygon fill="white" stroke="none" points="-4,4 -4,-328 632.567,-328 632.567,4 -4,4"/>
<!-- proposal -->
<g id="node1" class="node"><title>proposal</title>
<ellipse fill="#eeeeee" stroke="#eeeeee" cx="305.707" cy="-306" rx="42.451" ry="18"/>
<text text-anchor="middle" x="305.707" y="-302.9" font-family="Verdana" font-size="12.00">proposal</text>
</g>
<!-- Level_1a -->
<g id="node2" class="node"><title>Level_1a</title>
<ellipse fill="#eeeeee" stroke="#eeeeee" cx="211.707" cy="-234" rx="43.9143" ry="18"/>
<text text-anchor="middle" x="211.707" y="-230.9" font-family="Verdana" font-size="12.00">Level_1a</text>
</g>
<!-- proposal&#45;&gt;Level_1a -->
<g id="edge1" class="edge"><title>proposal&#45;&gt;Level_1a</title>
<path fill="none" stroke="#31cef0" d="M277.122,-283.713C262.576,-272.881 245.235,-259.968 232.063,-250.159"/>
<polygon fill="#31cef0" stroke="#31cef0" points="275.199,-286.645 285.31,-289.811 279.38,-281.031 275.199,-286.645"/>
</g>
<!-- Level_1b -->
<g id="node3" class="node"><title>Level_1b</title>
<ellipse fill="#eeeeee" stroke="#eeeeee" cx="305.707" cy="-234" rx="43.9143" ry="18"/>
<text text-anchor="middle" x="305.707" y="-230.9" font-family="Verdana" font-size="12.00">Level_1b</text>
</g>
<!-- proposal&#45;&gt;Level_1b -->
<g id="edge2" class="edge"><title>proposal&#45;&gt;Level_1b</title>
<path fill="none" stroke="#31cef0" d="M305.707,-277.665C305.707,-269.054 305.707,-259.791 305.707,-252.104"/>
<polygon fill="#31cef0" stroke="#31cef0" points="302.207,-277.697 305.707,-287.697 309.207,-277.697 302.207,-277.697"/>
</g>
<!-- Level_1c -->
<g id="node4" class="node"><title>Level_1c</title>
<ellipse fill="#eeeeee" stroke="#eeeeee" cx="446.707" cy="-234" rx="43.1824" ry="18"/>
<text text-anchor="middle" x="446.707" y="-230.9" font-family="Verdana" font-size="12.00">Level_1c</text>
</g>
<!-- proposal&#45;&gt;Level_1c -->
<g id="edge3" class="edge"><title>proposal&#45;&gt;Level_1c</title>
<path fill="none" stroke="#31cef0" d="M341.503,-287.229C365.87,-275.132 397.608,-259.375 419.825,-248.345"/>
<polygon fill="#31cef0" stroke="#31cef0" points="339.628,-284.252 332.228,-291.834 342.741,-290.522 339.628,-284.252"/>
</g>
<!-- Level_2a -->
<g id="node5" class="node"><title>Level_2a</title>
<ellipse fill="#eeeeee" stroke="#eeeeee" cx="117.707" cy="-162" rx="43.9143" ry="18"/>
<text text-anchor="middle" x="117.707" y="-158.9" font-family="Verdana" font-size="12.00">Level_2a</text>
</g>
<!-- Level_1b&#45;&gt;Level_2a -->
<g id="edge4" class="edge"><title>Level_1b&#45;&gt;Level_2a</title>
<path fill="none" stroke="#31cef0" d="M264.828,-217.779C230.006,-204.813 180.702,-186.456 148.963,-174.638"/>
<polygon fill="#31cef0" stroke="#31cef0" points="263.647,-221.074 274.24,-221.284 266.09,-214.514 263.647,-221.074"/>
</g>
<!-- Level_2b -->
<g id="node6" class="node"><title>Level_2b</title>
<ellipse fill="#eeeeee" stroke="#eeeeee" cx="211.707" cy="-162" rx="43.9143" ry="18"/>
<text text-anchor="middle" x="211.707" y="-158.9" font-family="Verdana" font-size="12.00">Level_2b</text>
</g>
<!-- Level_1b&#45;&gt;Level_2b -->
<g id="edge5" class="edge"><title>Level_1b&#45;&gt;Level_2b</title>
<path fill="none" stroke="#31cef0" d="M277.122,-211.713C262.576,-200.881 245.235,-187.968 232.063,-178.159"/>
<polygon fill="#31cef0" stroke="#31cef0" points="275.199,-214.645 285.31,-217.811 279.38,-209.031 275.199,-214.645"/>
</g>
<!-- Level_2c -->
<g id="node7" class="node"><title>Level_2c</title>
<ellipse fill="#eeeeee" stroke="#eeeeee" cx="305.707" cy="-162" rx="43.1824" ry="18"/>
<text text-anchor="middle" x="305.707" y="-158.9" font-family="Verdana" font-size="12.00">Level_2c</text>
</g>
<!-- Level_1b&#45;&gt;Level_2c -->
<g id="edge6" class="edge"><title>Level_1b&#45;&gt;Level_2c</title>
<path fill="none" stroke="#31cef0" d="M305.707,-205.665C305.707,-197.054 305.707,-187.791 305.707,-180.104"/>
<polygon fill="#31cef0" stroke="#31cef0" points="302.207,-205.697 305.707,-215.697 309.207,-205.697 302.207,-205.697"/>
</g>
<!-- Level_2d -->
<g id="node8" class="node"><title>Level_2d</title>
<ellipse fill="#eeeeee" stroke="#eeeeee" cx="399.707" cy="-162" rx="43.9143" ry="18"/>
<text text-anchor="middle" x="399.707" y="-158.9" font-family="Verdana" font-size="12.00">Level_2d</text>
</g>
<!-- Level_1c&#45;&gt;Level_2d -->
<g id="edge7" class="edge"><title>Level_1c&#45;&gt;Level_2d</title>
<path fill="none" stroke="#31cef0" d="M429.975,-208.08C423.595,-198.579 416.488,-187.994 410.765,-179.47"/>
<polygon fill="#31cef0" stroke="#31cef0" points="427.088,-210.06 435.568,-216.411 432.9,-206.158 427.088,-210.06"/>
</g>
<!-- Level_2e -->
<g id="node9" class="node"><title>Level_2e</title>
<ellipse fill="#eeeeee" stroke="#eeeeee" cx="493.707" cy="-162" rx="43.9143" ry="18"/>
<text text-anchor="middle" x="493.707" y="-158.9" font-family="Verdana" font-size="12.00">Level_2e</text>
</g>
<!-- Level_1c&#45;&gt;Level_2e -->
<g id="edge8" class="edge"><title>Level_1c&#45;&gt;Level_2e</title>
<path fill="none" stroke="#31cef0" d="M463.439,-208.08C469.818,-198.579 476.925,-187.994 482.648,-179.47"/>
<polygon fill="#31cef0" stroke="#31cef0" points="460.514,-206.158 457.845,-216.411 466.325,-210.06 460.514,-206.158"/>
</g>
<!-- Level_2f -->
<g id="node10" class="node"><title>Level_2f</title>
<ellipse fill="#eeeeee" stroke="#eeeeee" cx="586.707" cy="-162" rx="41.7203" ry="18"/>
<text text-anchor="middle" x="586.707" y="-158.9" font-family="Verdana" font-size="12.00">Level_2f</text>
</g>
<!-- Level_1c&#45;&gt;Level_2f -->
<g id="edge9" class="edge"><title>Level_1c&#45;&gt;Level_2f</title>
<path fill="none" stroke="#31cef0" d="M482.585,-215.061C506.782,-202.962 538.18,-187.263 560.143,-176.282"/>
<polygon fill="#31cef0" stroke="#31cef0" points="480.748,-212.066 473.369,-219.669 483.879,-218.327 480.748,-212.066"/>
</g>
<!-- Level_3a -->
<g id="node11" class="node"><title>Level_3a</title>
<ellipse fill="#eeeeee" stroke="#eeeeee" cx="43.7067" cy="-90" rx="43.9143" ry="18"/>
<text text-anchor="middle" x="43.7067" y="-86.9" font-family="Verdana" font-size="12.00">Level_3a</text>
</g>
<!-- Level_2a&#45;&gt;Level_3a -->
<g id="edge10" class="edge"><title>Level_2a&#45;&gt;Level_3a</title>
<path fill="none" stroke="#31cef0" d="M93.4043,-138.011C82.6057,-127.796 70.1649,-116.028 60.432,-106.821"/>
<polygon fill="#31cef0" stroke="#31cef0" points="91.245,-140.787 100.915,-145.116 96.0554,-135.701 91.245,-140.787"/>
</g>
<!-- Level_3b -->
<g id="node12" class="node"><title>Level_3b</title>
<ellipse fill="#eeeeee" stroke="#eeeeee" cx="137.707" cy="-90" rx="43.9143" ry="18"/>
<text text-anchor="middle" x="137.707" y="-86.9" font-family="Verdana" font-size="12.00">Level_3b</text>
</g>
<!-- Level_2a&#45;&gt;Level_3b -->
<g id="edge11" class="edge"><title>Level_2a&#45;&gt;Level_3b</title>
<path fill="none" stroke="#31cef0" d="M125.338,-134.29C127.83,-125.567 130.531,-116.115 132.771,-108.275"/>
<polygon fill="#31cef0" stroke="#31cef0" points="121.93,-133.478 122.548,-144.055 128.661,-135.401 121.93,-133.478"/>
</g>
<!-- Level_2b&#45;&gt;Level_3b -->
<g id="edge12" class="edge"><title>Level_2b&#45;&gt;Level_3b</title>
<path fill="none" stroke="#31cef0" d="M187.404,-138.011C176.606,-127.796 164.165,-116.028 154.432,-106.821"/>
<polygon fill="#31cef0" stroke="#31cef0" points="185.245,-140.787 194.915,-145.116 190.055,-135.701 185.245,-140.787"/>
</g>
<!-- Level_3c -->
<g id="node13" class="node"><title>Level_3c</title>
<ellipse fill="#eeeeee" stroke="#eeeeee" cx="231.707" cy="-90" rx="43.1824" ry="18"/>
<text text-anchor="middle" x="231.707" y="-86.9" font-family="Verdana" font-size="12.00">Level_3c</text>
</g>
<!-- Level_2b&#45;&gt;Level_3c -->
<g id="edge13" class="edge"><title>Level_2b&#45;&gt;Level_3c</title>
<path fill="none" stroke="#31cef0" d="M219.338,-134.29C221.83,-125.567 224.531,-116.115 226.771,-108.275"/>
<polygon fill="#31cef0" stroke="#31cef0" points="215.93,-133.478 216.548,-144.055 222.661,-135.401 215.93,-133.478"/>
</g>
<!-- Level_4a -->
<g id="node17" class="node"><title>Level_4a</title>
<ellipse fill="#eeeeee" stroke="#eeeeee" cx="305.707" cy="-18" rx="43.9143" ry="18"/>
<text text-anchor="middle" x="305.707" y="-14.9" font-family="Verdana" font-size="12.00">Level_4a</text>
</g>
<!-- Level_2c&#45;&gt;Level_4a -->
<g id="edge22" class="edge"><title>Level_2c&#45;&gt;Level_4a</title>
<path fill="none" stroke="#31cef0" d="M305.707,-133.679C305.707,-104.888 305.707,-60.4244 305.707,-36.1893"/>
<polygon fill="#31cef0" stroke="#31cef0" points="302.207,-133.871 305.707,-143.871 309.207,-133.872 302.207,-133.871"/>
</g>
<!-- Level_3e -->
<g id="node14" class="node"><title>Level_3e</title>
<ellipse fill="#eeeeee" stroke="#eeeeee" cx="493.707" cy="-90" rx="43.9143" ry="18"/>
<text text-anchor="middle" x="493.707" y="-86.9" font-family="Verdana" font-size="12.00">Level_3e</text>
</g>
<!-- Level_2e&#45;&gt;Level_3e -->
<g id="edge14" class="edge"><title>Level_2e&#45;&gt;Level_3e</title>
<path fill="none" stroke="#31cef0" d="M493.707,-133.665C493.707,-125.054 493.707,-115.791 493.707,-108.104"/>
<polygon fill="#31cef0" stroke="#31cef0" points="490.207,-133.697 493.707,-143.697 497.207,-133.697 490.207,-133.697"/>
</g>
<!-- Level_3d -->
<g id="node15" class="node"><title>Level_3d</title>
<ellipse fill="#eeeeee" stroke="#eeeeee" cx="399.707" cy="-90" rx="43.9143" ry="18"/>
<text text-anchor="middle" x="399.707" y="-86.9" font-family="Verdana" font-size="12.00">Level_3d</text>
</g>
<!-- Level_2e&#45;&gt;Level_3d -->
<g id="edge15" class="edge"><title>Level_2e&#45;&gt;Level_3d</title>
<path fill="none" stroke="#31cef0" d="M465.122,-139.713C450.576,-128.881 433.235,-115.968 420.063,-106.159"/>
<polygon fill="#31cef0" stroke="#31cef0" points="463.199,-142.645 473.31,-145.811 467.38,-137.031 463.199,-142.645"/>
</g>
<!-- Level_2f&#45;&gt;Level_3e -->
<g id="edge16" class="edge"><title>Level_2f&#45;&gt;Level_3e</title>
<path fill="none" stroke="#31cef0" d="M558.426,-139.713C544.035,-128.881 526.879,-115.968 513.847,-106.159"/>
<polygon fill="#31cef0" stroke="#31cef0" points="556.433,-142.594 566.527,-145.811 560.642,-137.001 556.433,-142.594"/>
</g>
<!-- Level_3f -->
<g id="node16" class="node"><title>Level_3f</title>
<ellipse fill="#eeeeee" stroke="#eeeeee" cx="586.707" cy="-90" rx="41.7203" ry="18"/>
<text text-anchor="middle" x="586.707" y="-86.9" font-family="Verdana" font-size="12.00">Level_3f</text>
</g>
<!-- Level_2f&#45;&gt;Level_3f -->
<g id="edge17" class="edge"><title>Level_2f&#45;&gt;Level_3f</title>
<path fill="none" stroke="#31cef0" d="M586.707,-133.665C586.707,-125.054 586.707,-115.791 586.707,-108.104"/>
<polygon fill="#31cef0" stroke="#31cef0" points="583.207,-133.697 586.707,-143.697 590.207,-133.697 583.207,-133.697"/>
</g>
<!-- Level_4b -->
<g id="node18" class="node"><title>Level_4b</title>
<ellipse fill="#eeeeee" stroke="#eeeeee" cx="399.707" cy="-18" rx="43.9143" ry="18"/>
<text text-anchor="middle" x="399.707" y="-14.9" font-family="Verdana" font-size="12.00">Level_4b</text>
</g>
<!-- Level_3e&#45;&gt;Level_4b -->
<g id="edge20" class="edge"><title>Level_3e&#45;&gt;Level_4b</title>
<path fill="none" stroke="#31cef0" d="M465.122,-67.7132C450.576,-56.8814 433.235,-43.9681 420.063,-34.1593"/>
<polygon fill="#31cef0" stroke="#31cef0" points="463.199,-70.6455 473.31,-73.811 467.38,-65.0312 463.199,-70.6455"/>
</g>
<!-- Level_4c -->
<g id="node19" class="node"><title>Level_4c</title>
<ellipse fill="#eeeeee" stroke="#eeeeee" cx="493.707" cy="-18" rx="43.1824" ry="18"/>
<text text-anchor="middle" x="493.707" y="-14.9" font-family="Verdana" font-size="12.00">Level_4c</text>
</g>
<!-- Level_3e&#45;&gt;Level_4c -->
<g id="edge21" class="edge"><title>Level_3e&#45;&gt;Level_4c</title>
<path fill="none" stroke="#31cef0" d="M493.707,-61.6651C493.707,-53.0537 493.707,-43.7913 493.707,-36.1043"/>
<polygon fill="#31cef0" stroke="#31cef0" points="490.207,-61.6966 493.707,-71.6966 497.207,-61.6967 490.207,-61.6966"/>
</g>
<!-- Level_3d&#45;&gt;Level_4a -->
<g id="edge18" class="edge"><title>Level_3d&#45;&gt;Level_4a</title>
<path fill="none" stroke="#31cef0" d="M371.122,-67.7132C356.576,-56.8814 339.235,-43.9681 326.063,-34.1593"/>
<polygon fill="#31cef0" stroke="#31cef0" points="369.199,-70.6455 379.31,-73.811 373.38,-65.0312 369.199,-70.6455"/>
</g>
<!-- Level_3d&#45;&gt;Level_4b -->
<g id="edge19" class="edge"><title>Level_3d&#45;&gt;Level_4b</title>
<path fill="none" stroke="#31cef0" d="M399.707,-61.6651C399.707,-53.0537 399.707,-43.7913 399.707,-36.1043"/>
<polygon fill="#31cef0" stroke="#31cef0" points="396.207,-61.6966 399.707,-71.6966 403.207,-61.6967 396.207,-61.6966"/>
</g>
</g>
</svg>
