<?xml version="1.0" encoding="UTF-8" standalone="no"?>
<!DOCTYPE svg PUBLIC "-//W3C//DTD SVG 1.1//EN"
 "http://www.w3.org/Graphics/SVG/1.1/DTD/svg11.dtd">
<!-- Generated by graphviz version 2.38.0 (20140413.2041)
 -->
<!-- Title: G Pages: 1 -->
<svg width="279pt" height="126pt"
 viewBox="0.00 0.00 279.17 126.00" xmlns="http://www.w3.org/2000/svg" xmlns:xlink="http://www.w3.org/1999/xlink">
<g id="graph0" class="graph" transform="scale(1 1) rotate(0) translate(4 122)">
<title>G</title>
<polygon fill="white" stroke="none" points="-4,4 -4,-122 275.174,-122 275.174,4 -4,4"/>
<!-- proposal -->
<g id="node1" class="node"><title>proposal</title>
<ellipse fill="#eeeeee" stroke="#eeeeee" cx="123.086" cy="-100" rx="41.7203" ry="18"/>
<text text-anchor="middle" x="123.086" y="-96.9" font-family="Verdana" font-size="12.00">proposal</text>
</g>
<!-- Alice -->
<g id="node2" class="node"><title>Alice</title>
<ellipse fill="#eeeeee" stroke="#eeeeee" cx="27.0858" cy="-18" rx="27.1719" ry="18"/>
<text text-anchor="middle" x="27.0858" y="-14.9" font-family="Verdana" font-size="12.00">Alice</text>
</g>
<!-- proposal&#45;&gt;Alice -->
<g id="edge1" class="edge"><title>proposal&#45;&gt;Alice</title>
<path fill="none" stroke="#31cef0" d="M96.612,-76.9384C79.5342,-62.707 57.8714,-44.6547 43.303,-32.5143"/>
<polygon fill="#31cef0" stroke="#31cef0" points="94.6532,-79.8621 104.576,-83.5752 99.1345,-74.4845 94.6532,-79.8621"/>
<text text-anchor="middle" x="92.0858" y="-56.8" font-family="Verdana" font-size="9.00">33%</text>
</g>
<!-- Bob -->
<g id="node3" class="node"><title>Bob</title>
<ellipse fill="#eeeeee" stroke="#eeeeee" cx="88.0858" cy="-18" rx="27" ry="18"/>
<text text-anchor="middle" x="88.0858" y="-14.9" font-family="Verdana" font-size="12.00">Bob</text>
</g>
<!-- proposal&#45;&gt;Bob -->
<g id="edge2" class="edge"><title>proposal&#45;&gt;Bob</title>
<path fill="none" stroke="#31cef0" d="M111.578,-72.6954C106.196,-60.3946 99.9546,-46.1287 95.2583,-35.3943"/>
<polygon fill="#31cef0" stroke="#31cef0" points="108.448,-74.2754 115.663,-82.0341 114.862,-71.4696 108.448,-74.2754"/>
<text text-anchor="middle" x="119.086" y="-56.8" font-family="Verdana" font-size="9.00">33%</text>
</g>
<!-- Charlie -->
<g id="node4" class="node"><title>Charlie</title>
<ellipse fill="#eeeeee" stroke="#eeeeee" cx="158.086" cy="-18" rx="36.1402" ry="18"/>
<text text-anchor="middle" x="158.086" y="-14.9" font-family="Verdana" font-size="12.00">Charlie</text>
</g>
<!-- proposal&#45;&gt;Charlie -->
<g id="edge3" class="edge"><title>proposal&#45;&gt;Charlie</title>
<path fill="none" stroke="#31cef0" d="M134.565,-72.7611C139.908,-60.5493 146.103,-46.3888 150.794,-35.6672"/>
<polygon fill="#31cef0" stroke="#31cef0" points="131.31,-71.4696 130.508,-82.0341 137.723,-74.2754 131.31,-71.4696"/>
<text text-anchor="middle" x="153.086" y="-56.8" font-family="Verdana" font-size="9.00">33%</text>
</g>
<!-- Dennis -->
<g id="node5" class="node"><title>Dennis</title>
<ellipse fill="#eeeeee" stroke="#eeeeee" cx="236.086" cy="-18" rx="35.1771" ry="18"/>
<text text-anchor="middle" x="236.086" y="-14.9" font-family="Verdana" font-size="12.00">Dennis</text>
</g>
<!-- proposal&#45;&gt;Dennis -->
<g id="edge4" class="edge"><title>proposal&#45;&gt;Dennis</title>
<path fill="none" stroke="#31cef0" d="M152.018,-78.5173C172.148,-64.2655 198.464,-45.6349 216.249,-33.0437"/>
<polygon fill="#31cef0" stroke="#31cef0" points="149.951,-75.692 143.812,-84.3268 153.996,-81.4051 149.951,-75.692"/>
<text text-anchor="middle" x="197.086" y="-56.8" font-family="Verdana" font-size="9.00">33%</text>
</g>
</g>
</svg>
