<?xml version="1.0" encoding="UTF-8" standalone="no"?>
<!DOCTYPE svg PUBLIC "-//W3C//DTD SVG 1.1//EN"
 "http://www.w3.org/Graphics/SVG/1.1/DTD/svg11.dtd">
<!-- Generated by graphviz version 2.38.0 (20140413.2041)
 -->
<!-- Title: foo Pages: 1 -->
<svg width="589pt" height="121pt"
 viewBox="0.00 0.00 589.27 121.00" xmlns="http://www.w3.org/2000/svg" xmlns:xlink="http://www.w3.org/1999/xlink">
<g id="graph0" class="graph" transform="scale(1 1) rotate(0) translate(4 117)">
<title>foo</title>
<polygon fill="white" stroke="none" points="-4,4 -4,-117 585.268,-117 585.268,4 -4,4"/>
<!-- Deposit API -->
<g id="node1" class="node"><title>Deposit API</title>
<polygon fill="none" stroke="#ffffff" points="483.268,-38.5 483.268,-74.5 572.268,-74.5 572.268,-38.5 483.268,-38.5"/>
<text text-anchor="middle" x="527.768" y="-53.4" font-family="Verdana" font-size="12.00">Deposit API</text>
</g>
<!-- Withdraw API -->
<g id="node2" class="node"><title>Withdraw API</title>
<polygon fill="none" stroke="#ffffff" points="477.268,-0.5 477.268,-36.5 578.268,-36.5 578.268,-0.5 477.268,-0.5"/>
<text text-anchor="middle" x="527.768" y="-15.4" font-family="Verdana" font-size="12.00">Withdraw API</text>
</g>
<!-- Blockchain API -->
<g id="node3" class="node"><title>Blockchain API</title>
<polygon fill="none" stroke="#ffffff" points="474.268,-76.5 474.268,-112.5 581.268,-112.5 581.268,-76.5 474.268,-76.5"/>
<text text-anchor="middle" x="527.768" y="-91.4" font-family="Verdana" font-size="12.00">Blockchain API</text>
</g>
<!-- P2P network -->
<g id="node4" class="node"><title>P2P network</title>
<ellipse fill="none" stroke="#999999" cx="56.634" cy="-56.5" rx="56.7683" ry="18"/>
<text text-anchor="middle" x="56.634" y="-53.4" font-family="Verdana" font-size="12.00">P2P network</text>
</g>
<!-- Trusted Full Node -->
<g id="node5" class="node"><title>Trusted Full Node</title>
<polygon fill="#eeeeee" stroke="#eeeeee" points="149.268,-38.5 149.268,-74.5 274.268,-74.5 274.268,-38.5 149.268,-38.5"/>
<text text-anchor="middle" x="211.768" y="-53.4" font-family="Verdana" font-size="12.00">Trusted Full Node</text>
</g>
<!-- P2P network&#45;&gt;Trusted Full Node -->
<g id="edge1" class="edge"><title>P2P network&#45;&gt;Trusted Full Node</title>
<path fill="none" stroke="#31cef0" d="M123.519,-56.5C123.519,-56.5 139.134,-56.5 139.134,-56.5"/>
<polygon fill="#31cef0" stroke="#31cef0" points="139.134,-60 149.134,-56.5 139.134,-53 139.134,-60"/>
<polygon fill="#31cef0" stroke="#31cef0" points="123.519,-53 113.519,-56.5 123.519,-60 123.519,-53"/>
</g>
<!-- Trusted Full Node&#45;&gt;Blockchain API -->
<g id="edge2" class="edge"><title>Trusted Full Node&#45;&gt;Blockchain API</title>
<path fill="none" stroke="#31cef0" d="M212.268,-84.6097C212.268,-84.6097 212.268,-94.5 212.268,-94.5 212.268,-94.5 464.248,-94.5 464.248,-94.5"/>
<polygon fill="#31cef0" stroke="#31cef0" points="215.768,-84.6096 212.268,-74.6097 208.768,-84.6097 215.768,-84.6096"/>
<polygon fill="#31cef0" stroke="#31cef0" points="464.248,-98.0001 474.248,-94.5 464.248,-91.0001 464.248,-98.0001"/>
</g>
<!-- Delayed Full Node -->
<g id="node6" class="node"><title>Delayed Full Node</title>
<polygon fill="#eeeeee" stroke="#eeeeee" points="310.268,-38.5 310.268,-74.5 438.268,-74.5 438.268,-38.5 310.268,-38.5"/>
<text text-anchor="middle" x="374.268" y="-53.4" font-family="Verdana" font-size="12.00">Delayed Full Node</text>
</g>
<!-- Trusted Full Node&#45;&gt;Delayed Full Node -->
<g id="edge3" class="edge"><title>Trusted Full Node&#45;&gt;Delayed Full Node</title>
<path fill="none" stroke="#31cef0" d="M284.595,-56.5C284.595,-56.5 300.267,-56.5 300.267,-56.5"/>
<polygon fill="#31cef0" stroke="#31cef0" points="300.267,-60 310.267,-56.5 300.267,-53 300.267,-60"/>
<polygon fill="#31cef0" stroke="#31cef0" points="284.595,-53 274.595,-56.5 284.595,-60 284.595,-53"/>
</g>
<!-- Wallet -->
<g id="node7" class="node"><title>Wallet</title>
<polygon fill="#eeeeee" stroke="#eeeeee" points="345.768,-0.5 345.768,-36.5 402.768,-36.5 402.768,-0.5 345.768,-0.5"/>
<text text-anchor="middle" x="374.268" y="-15.4" font-family="Verdana" font-size="12.00">Wallet</text>
</g>
<!-- Trusted Full Node&#45;&gt;Wallet -->
<g id="edge5" class="edge"><title>Trusted Full Node&#45;&gt;Wallet</title>
<path fill="none" stroke="#31cef0" d="M212.268,-28.3903C212.268,-28.3903 212.268,-18.5 212.268,-18.5 212.268,-18.5 335.679,-18.5 335.679,-18.5"/>
<polygon fill="#31cef0" stroke="#31cef0" points="208.768,-28.3903 212.268,-38.3903 215.768,-28.3904 208.768,-28.3903"/>
<polygon fill="#31cef0" stroke="#31cef0" points="335.679,-22.0001 345.679,-18.5 335.679,-15.0001 335.679,-22.0001"/>
</g>
<!-- Delayed Full Node&#45;&gt;Deposit API -->
<g id="edge4" class="edge"><title>Delayed Full Node&#45;&gt;Deposit API</title>
<path fill="none" stroke="#31cef0" d="M448.476,-56.5C448.476,-56.5 472.937,-56.5 472.937,-56.5"/>
<polygon fill="#31cef0" stroke="#31cef0" points="472.937,-60 482.937,-56.5 472.937,-53 472.937,-60"/>
<polygon fill="#31cef0" stroke="#31cef0" points="448.476,-53 438.476,-56.5 448.476,-60 448.476,-53"/>
</g>
<!-- Wallet&#45;&gt;Withdraw API -->
<g id="edge6" class="edge"><title>Wallet&#45;&gt;Withdraw API</title>
<path fill="none" stroke="#31cef0" d="M412.78,-18.5C412.78,-18.5 467.041,-18.5 467.041,-18.5"/>
<polygon fill="#31cef0" stroke="#31cef0" points="467.041,-22 477.041,-18.5 467.041,-15 467.041,-22"/>
<polygon fill="#31cef0" stroke="#31cef0" points="412.78,-15 402.78,-18.5 412.78,-22 412.78,-15"/>
</g>
</g>
</svg>
