<?xml version="1.0" encoding="UTF-8" standalone="no"?>
<!DOCTYPE svg PUBLIC "-//W3C//DTD SVG 1.1//EN"
 "http://www.w3.org/Graphics/SVG/1.1/DTD/svg11.dtd">
<!-- Generated by graphviz version 2.38.0 (20140413.2041)
 -->
<!-- Title: G Pages: 1 -->
<svg width="285pt" height="126pt"
 viewBox="0.00 0.00 284.64 126.00" xmlns="http://www.w3.org/2000/svg" xmlns:xlink="http://www.w3.org/1999/xlink">
<g id="graph0" class="graph" transform="scale(1 1) rotate(0) translate(4 122)">
<title>G</title>
<polygon fill="white" stroke="none" points="-4,4 -4,-122 280.637,-122 280.637,4 -4,4"/>
<!-- proposal -->
<g id="node1" class="node"><title>proposal</title>
<ellipse fill="#eeeeee" stroke="#eeeeee" cx="125.317" cy="-100" rx="42.451" ry="18"/>
<text text-anchor="middle" x="125.317" y="-96.9" font-family="Verdana" font-size="12.00">proposal</text>
</g>
<!-- Alice -->
<g id="node2" class="node"><title>Alice</title>
<ellipse fill="#eeeeee" stroke="#eeeeee" cx="28.317" cy="-18" rx="28.1352" ry="18"/>
<text text-anchor="middle" x="28.317" y="-14.9" font-family="Verdana" font-size="12.00">Alice</text>
</g>
<!-- proposal&#45;&gt;Alice -->
<g id="edge1" class="edge"><title>proposal&#45;&gt;Alice</title>
<path fill="none" stroke="#31cef0" d="M98.6193,-76.9813C81.4788,-62.8448 59.7504,-44.9245 45.0195,-32.7752"/>
<polygon fill="#31cef0" stroke="#31cef0" points="96.6728,-79.9127 106.614,-83.5752 101.127,-74.5124 96.6728,-79.9127"/>
<text text-anchor="middle" x="94.317" y="-56.8" font-family="Verdana" font-size="9.00">49%</text>
</g>
<!-- Bob -->
<g id="node3" class="node"><title>Bob</title>
<ellipse fill="#eeeeee" stroke="#eeeeee" cx="90.317" cy="-18" rx="27" ry="18"/>
<text text-anchor="middle" x="90.317" y="-14.9" font-family="Verdana" font-size="12.00">Bob</text>
</g>
<!-- proposal&#45;&gt;Bob -->
<g id="edge2" class="edge"><title>proposal&#45;&gt;Bob</title>
<path fill="none" stroke="#31cef0" d="M113.809,-72.6954C108.427,-60.3946 102.186,-46.1287 97.4895,-35.3943"/>
<polygon fill="#31cef0" stroke="#31cef0" points="110.68,-74.2754 117.894,-82.0341 117.093,-71.4696 110.68,-74.2754"/>
<text text-anchor="middle" x="121.317" y="-56.8" font-family="Verdana" font-size="9.00">25%</text>
</g>
<!-- Charlie -->
<g id="node4" class="node"><title>Charlie</title>
<ellipse fill="#eeeeee" stroke="#eeeeee" cx="160.317" cy="-18" rx="36.1402" ry="18"/>
<text text-anchor="middle" x="160.317" y="-14.9" font-family="Verdana" font-size="12.00">Charlie</text>
</g>
<!-- proposal&#45;&gt;Charlie -->
<g id="edge3" class="edge"><title>proposal&#45;&gt;Charlie</title>
<path fill="none" stroke="#31cef0" d="M136.797,-72.7611C142.139,-60.5493 148.334,-46.3888 153.025,-35.6672"/>
<polygon fill="#31cef0" stroke="#31cef0" points="133.541,-71.4696 132.74,-82.0341 139.954,-74.2754 133.541,-71.4696"/>
<text text-anchor="middle" x="156.317" y="-56.8" font-family="Verdana" font-size="9.00">25%</text>
</g>
<!-- Dennis -->
<g id="node5" class="node"><title>Dennis</title>
<ellipse fill="#eeeeee" stroke="#eeeeee" cx="240.317" cy="-18" rx="36.1402" ry="18"/>
<text text-anchor="middle" x="240.317" y="-14.9" font-family="Verdana" font-size="12.00">Dennis</text>
</g>
<!-- proposal&#45;&gt;Dennis -->
<g id="edge4" class="edge"><title>proposal&#45;&gt;Dennis</title>
<path fill="none" stroke="#31cef0" d="M154.761,-78.5173C175.248,-64.2655 202.029,-45.6349 220.129,-33.0437"/>
<polygon fill="#31cef0" stroke="#31cef0" points="152.62,-75.7429 146.41,-84.3268 156.618,-81.4893 152.62,-75.7429"/>
<text text-anchor="middle" x="201.317" y="-56.8" font-family="Verdana" font-size="9.00">10%</text>
</g>
</g>
</svg>
