<?xml version="1.0" encoding="UTF-8" standalone="no"?>
<!DOCTYPE svg PUBLIC "-//W3C//DTD SVG 1.1//EN"
 "http://www.w3.org/Graphics/SVG/1.1/DTD/svg11.dtd">
<!-- Generated by graphviz version 2.38.0 (20140413.2041)
 -->
<!-- Title: foo Pages: 1 -->
<svg width="446pt" height="87pt"
 viewBox="0.00 0.00 446.00 87.00" xmlns="http://www.w3.org/2000/svg" xmlns:xlink="http://www.w3.org/1999/xlink">
<g id="graph0" class="graph" transform="scale(1 1) rotate(0) translate(4 83)">
<title>foo</title>
<polygon fill="white" stroke="none" points="-4,4 -4,-83 442,-83 442,4 -4,4"/>
<!-- P2P network -->
<g id="node1" class="node"><title>P2P network</title>
<polygon fill="#eeeeee" stroke="#eeeeee" points="92,-61 0,-61 0,-25 92,-25 92,-61"/>
<text text-anchor="middle" x="46" y="-39.9" font-family="Verdana" font-size="12.00">P2P network</text>
</g>
<!-- Full Node -->
<g id="node2" class="node"><title>Full Node</title>
<polygon fill="#eeeeee" stroke="#eeeeee" points="202,-61 128,-61 128,-25 202,-25 202,-61"/>
<text text-anchor="middle" x="165" y="-39.9" font-family="Verdana" font-size="12.00">Full Node</text>
</g>
<!-- P2P network&#45;&gt;Full Node -->
<g id="edge1" class="edge"><title>P2P network&#45;&gt;Full Node</title>
<path fill="none" stroke="#31cef0" d="M102.009,-43C102.009,-43 117.955,-43 117.955,-43"/>
<polygon fill="#31cef0" stroke="#31cef0" points="117.955,-46.5 127.955,-43 117.955,-39.5 117.955,-46.5"/>
<polygon fill="#31cef0" stroke="#31cef0" points="102.009,-39.5 92.0085,-43 102.008,-46.5 102.009,-39.5"/>
</g>
<!-- Blockchain API -->
<g id="node3" class="node"><title>Blockchain API</title>
<polygon fill="#eeeeee" stroke="#eeeeee" points="438,-79 331,-79 331,-43 438,-43 438,-79"/>
<text text-anchor="middle" x="384.5" y="-57.9" font-family="Verdana" font-size="12.00">Blockchain API</text>
</g>
<!-- Full Node&#45;&gt;Blockchain API -->
<g id="edge2" class="edge"><title>Full Node&#45;&gt;Blockchain API</title>
<path fill="none" stroke="#31cef0" d="M212.235,-52C212.235,-52 330.593,-52 330.593,-52"/>
<polygon fill="#31cef0" stroke="#31cef0" points="212.235,-48.5001 202.235,-52 212.235,-55.5001 212.235,-48.5001"/>
</g>
<!-- Wallet -->
<g id="node4" class="node"><title>Wallet</title>
<polygon fill="#eeeeee" stroke="#eeeeee" points="295,-43 238,-43 238,-7 295,-7 295,-43"/>
<text text-anchor="middle" x="266.5" y="-21.9" font-family="Verdana" font-size="12.00">Wallet</text>
</g>
<!-- Full Node&#45;&gt;Wallet -->
<g id="edge3" class="edge"><title>Full Node&#45;&gt;Wallet</title>
<path fill="none" stroke="#31cef0" d="M212.219,-34C212.219,-34 237.872,-34 237.872,-34"/>
<polygon fill="#31cef0" stroke="#31cef0" points="212.219,-30.5001 202.219,-34 212.218,-37.5001 212.219,-30.5001"/>
</g>
<!-- Withdraw API -->
<g id="node5" class="node"><title>Withdraw API</title>
<polygon fill="#eeeeee" stroke="#eeeeee" points="435,-36 334,-36 334,-0 435,-0 435,-36"/>
<text text-anchor="middle" x="384.5" y="-14.9" font-family="Verdana" font-size="12.00">Withdraw API</text>
</g>
<!-- Wallet&#45;&gt;Withdraw API -->
<g id="edge4" class="edge"><title>Wallet&#45;&gt;Withdraw API</title>
<path fill="none" stroke="#31cef0" d="M305.065,-21.5C305.065,-21.5 333.617,-21.5 333.617,-21.5"/>
<polygon fill="#31cef0" stroke="#31cef0" points="305.065,-18.0001 295.065,-21.5 305.064,-25.0001 305.065,-18.0001"/>
</g>
</g>
</svg>
