<?xml version="1.0" encoding="UTF-8" standalone="no"?>
<!DOCTYPE svg PUBLIC "-//W3C//DTD SVG 1.1//EN"
 "http://www.w3.org/Graphics/SVG/1.1/DTD/svg11.dtd">
<!-- Generated by graphviz version 2.38.0 (20140413.2041)
 -->
<!-- Title: G Pages: 1 -->
<svg width="279pt" height="126pt"
 viewBox="0.00 0.00 278.74 126.00" xmlns="http://www.w3.org/2000/svg" xmlns:xlink="http://www.w3.org/1999/xlink">
<g id="graph0" class="graph" transform="scale(1 1) rotate(0) translate(4 122)">
<title>G</title>
<polygon fill="white" stroke="none" points="-4,4 -4,-122 274.736,-122 274.736,4 -4,4"/>
<!-- proposal -->
<g id="node1" class="node"><title>proposal</title>
<ellipse fill="#eeeeee" stroke="#eeeeee" cx="134.868" cy="-100" rx="42.451" ry="18"/>
<text text-anchor="middle" x="134.868" y="-96.9" font-family="Verdana" font-size="12.00">proposal</text>
</g>
<!-- CEO.COMPANY -->
<g id="node2" class="node"><title>CEO.COMPANY</title>
<ellipse fill="#eeeeee" stroke="#eeeeee" cx="65.8678" cy="-18" rx="65.7359" ry="18"/>
<text text-anchor="middle" x="65.8678" y="-14.9" font-family="Verdana" font-size="12.00">CEO.COMPANY</text>
</g>
<!-- proposal&#45;&gt;CEO.COMPANY -->
<g id="edge1" class="edge"><title>proposal&#45;&gt;CEO.COMPANY</title>
<path fill="none" stroke="#31cef0" d="M114.105,-74.9271C103.189,-62.2711 90.0804,-47.0726 80.2852,-35.7158"/>
<polygon fill="#31cef0" stroke="#31cef0" points="111.723,-77.5243 120.905,-82.8108 117.024,-72.9523 111.723,-77.5243"/>
<text text-anchor="middle" x="115.868" y="-56.8" font-family="Verdana" font-size="9.00">51%</text>
</g>
<!-- CFO.COMPANY -->
<g id="node3" class="node"><title>CFO.COMPANY</title>
<ellipse fill="#eeeeee" stroke="#eeeeee" cx="204.868" cy="-18" rx="65.7359" ry="18"/>
<text text-anchor="middle" x="204.868" y="-14.9" font-family="Verdana" font-size="12.00">CFO.COMPANY</text>
</g>
<!-- proposal&#45;&gt;CFO.COMPANY -->
<g id="edge2" class="edge"><title>proposal&#45;&gt;CFO.COMPANY</title>
<path fill="none" stroke="#31cef0" d="M155.932,-74.9271C167.006,-62.2711 180.304,-47.0726 190.241,-35.7158"/>
<polygon fill="#31cef0" stroke="#31cef0" points="152.984,-72.9802 149.033,-82.8108 158.252,-77.5898 152.984,-72.9802"/>
<text text-anchor="middle" x="185.868" y="-56.8" font-family="Verdana" font-size="9.00">51%</text>
</g>
</g>
</svg>
