<?xml version="1.0" encoding="UTF-8" standalone="no"?>
<!DOCTYPE svg PUBLIC "-//W3C//DTD SVG 1.1//EN"
 "http://www.w3.org/Graphics/SVG/1.1/DTD/svg11.dtd">
<!-- Generated by graphviz version 2.38.0 (20140413.2041)
 -->
<!-- Title: foo Pages: 1 -->
<svg width="523pt" height="154pt"
 viewBox="0.00 0.00 523.00 154.00" xmlns="http://www.w3.org/2000/svg" xmlns:xlink="http://www.w3.org/1999/xlink">
<g id="graph0" class="graph" transform="scale(1 1) rotate(0) translate(4 150)">
<title>foo</title>
<polygon fill="white" stroke="none" points="-4,4 -4,-150 519,-150 519,4 -4,4"/>
<!-- P2P network -->
<g id="node1" class="node"><title>P2P network</title>
<polygon fill="#eeeeee" stroke="#eeeeee" points="0,-54.5 0,-90.5 92,-90.5 92,-54.5 0,-54.5"/>
<text text-anchor="middle" x="46" y="-69.4" font-family="Verdana" font-size="12.00">P2P network</text>
</g>
<!-- Trusted Full Node -->
<g id="node2" class="node"><title>Trusted Full Node</title>
<polygon fill="#eeeeee" stroke="#eeeeee" points="128,-54.5 128,-90.5 253,-90.5 253,-54.5 128,-54.5"/>
<text text-anchor="middle" x="190.5" y="-69.4" font-family="Verdana" font-size="12.00">Trusted Full Node</text>
</g>
<!-- P2P network&#45;&gt;Trusted Full Node -->
<g id="edge1" class="edge"><title>P2P network&#45;&gt;Trusted Full Node</title>
<path fill="none" stroke="#31cef0" d="M102.118,-72.5C102.118,-72.5 117.952,-72.5 117.952,-72.5"/>
<polygon fill="#31cef0" stroke="#31cef0" points="117.952,-76 127.952,-72.5 117.952,-69 117.952,-76"/>
<polygon fill="#31cef0" stroke="#31cef0" points="102.118,-69 92.118,-72.5 102.118,-76 102.118,-69"/>
</g>
<!-- Wallet -->
<g id="node3" class="node"><title>Wallet</title>
<polygon fill="#eeeeee" stroke="#eeeeee" points="314,-109.5 314,-145.5 371,-145.5 371,-109.5 314,-109.5"/>
<text text-anchor="middle" x="342.5" y="-124.4" font-family="Verdana" font-size="12.00">Wallet</text>
</g>
<!-- Trusted Full Node&#45;&gt;Wallet -->
<g id="edge2" class="edge"><title>Trusted Full Node&#45;&gt;Wallet</title>
<path fill="none" stroke="#31cef0" d="M263.408,-78.6667C263.408,-78.6667 343,-78.6667 343,-78.6667 343,-78.6667 343,-99.3163 343,-99.3163"/>
<polygon fill="#31cef0" stroke="#31cef0" points="263.408,-75.1668 253.408,-78.6667 263.408,-82.1668 263.408,-75.1668"/>
<polygon fill="#31cef0" stroke="#31cef0" points="339.5,-99.3162 343,-109.316 346.5,-99.3163 339.5,-99.3162"/>
</g>
<!-- Blockchain API -->
<g id="node5" class="node"><title>Blockchain API</title>
<polygon fill="#eeeeee" stroke="#eeeeee" points="289,-0.5 289,-36.5 396,-36.5 396,-0.5 289,-0.5"/>
<text text-anchor="middle" x="342.5" y="-15.4" font-family="Verdana" font-size="12.00">Blockchain API</text>
</g>
<!-- Trusted Full Node&#45;&gt;Blockchain API -->
<g id="edge4" class="edge"><title>Trusted Full Node&#45;&gt;Blockchain API</title>
<path fill="none" stroke="#31cef0" d="M263.094,-66.3333C263.094,-66.3333 302,-66.3333 302,-66.3333 302,-66.3333 302,-46.5837 302,-46.5837"/>
<polygon fill="#31cef0" stroke="#31cef0" points="263.095,-62.8334 253.094,-66.3333 263.094,-69.8334 263.095,-62.8334"/>
<polygon fill="#31cef0" stroke="#31cef0" points="305.5,-46.5837 302,-36.5837 298.5,-46.5838 305.5,-46.5837"/>
</g>
<!-- Wallet API -->
<g id="node4" class="node"><title>Wallet API</title>
<polygon fill="#eeeeee" stroke="#eeeeee" points="432,-109.5 432,-145.5 515,-145.5 515,-109.5 432,-109.5"/>
<text text-anchor="middle" x="473.5" y="-124.4" font-family="Verdana" font-size="12.00">Wallet API</text>
</g>
<!-- Wallet&#45;&gt;Wallet API -->
<g id="edge3" class="edge"><title>Wallet&#45;&gt;Wallet API</title>
<path fill="none" stroke="#31cef0" d="M381.249,-127.5C381.249,-127.5 421.89,-127.5 421.89,-127.5"/>
<polygon fill="#31cef0" stroke="#31cef0" points="421.89,-131 431.89,-127.5 421.89,-124 421.89,-131"/>
<polygon fill="#31cef0" stroke="#31cef0" points="381.249,-124 371.249,-127.5 381.248,-131 381.249,-124"/>
</g>
</g>
</svg>
