<?xml version="1.0" encoding="UTF-8" standalone="no"?>
<!DOCTYPE svg PUBLIC "-//W3C//DTD SVG 1.1//EN"
 "http://www.w3.org/Graphics/SVG/1.1/DTD/svg11.dtd">
<!-- Generated by graphviz version 2.38.0 (20140413.2041)
 -->
<!-- Title: foo Pages: 1 -->
<svg width="518pt" height="83pt"
 viewBox="0.00 0.00 518.27 83.00" xmlns="http://www.w3.org/2000/svg" xmlns:xlink="http://www.w3.org/1999/xlink">
<g id="graph0" class="graph" transform="scale(1 1) rotate(0) translate(4 79)">
<title>foo</title>
<polygon fill="white" stroke="none" points="-4,4 -4,-79 514.268,-79 514.268,4 -4,4"/>
<!-- Wallet API -->
<g id="node1" class="node"><title>Wallet API</title>
<polygon fill="none" stroke="#ffffff" points="415.268,-0.5 415.268,-36.5 498.268,-36.5 498.268,-0.5 415.268,-0.5"/>
<text text-anchor="middle" x="456.768" y="-15.4" font-family="Verdana" font-size="12.00">Wallet API</text>
</g>
<!-- Blockchain API -->
<g id="node2" class="node"><title>Blockchain API</title>
<polygon fill="none" stroke="#ffffff" points="403.268,-38.5 403.268,-74.5 510.268,-74.5 510.268,-38.5 403.268,-38.5"/>
<text text-anchor="middle" x="456.768" y="-53.4" font-family="Verdana" font-size="12.00">Blockchain API</text>
</g>
<!-- P2P network -->
<g id="node3" class="node"><title>P2P network</title>
<ellipse fill="none" stroke="#999999" cx="56.634" cy="-45.5" rx="56.7683" ry="18"/>
<text text-anchor="middle" x="56.634" y="-42.4" font-family="Verdana" font-size="12.00">P2P network</text>
</g>
<!-- Trusted Full Node -->
<g id="node4" class="node"><title>Trusted Full Node</title>
<polygon fill="#eeeeee" stroke="#eeeeee" points="149.268,-27.5 149.268,-63.5 274.268,-63.5 274.268,-27.5 149.268,-27.5"/>
<text text-anchor="middle" x="211.768" y="-42.4" font-family="Verdana" font-size="12.00">Trusted Full Node</text>
</g>
<!-- P2P network&#45;&gt;Trusted Full Node -->
<g id="edge1" class="edge"><title>P2P network&#45;&gt;Trusted Full Node</title>
<path fill="none" stroke="#31cef0" d="M123.519,-45.5C123.519,-45.5 139.134,-45.5 139.134,-45.5"/>
<polygon fill="#31cef0" stroke="#31cef0" points="139.134,-49 149.134,-45.5 139.134,-42 139.134,-49"/>
<polygon fill="#31cef0" stroke="#31cef0" points="123.519,-42 113.519,-45.5 123.519,-49 123.519,-42"/>
</g>
<!-- Trusted Full Node&#45;&gt;Blockchain API -->
<g id="edge4" class="edge"><title>Trusted Full Node&#45;&gt;Blockchain API</title>
<path fill="none" stroke="#31cef0" d="M284.543,-54.5C284.543,-54.5 392.883,-54.5 392.883,-54.5"/>
<polygon fill="#31cef0" stroke="#31cef0" points="392.883,-58 402.883,-54.5 392.883,-51 392.883,-58"/>
<polygon fill="#31cef0" stroke="#31cef0" points="284.543,-51 274.543,-54.5 284.543,-58 284.543,-51"/>
</g>
<!-- Wallet -->
<g id="node5" class="node"><title>Wallet</title>
<polygon fill="#eeeeee" stroke="#eeeeee" points="310.268,-8.5 310.268,-44.5 367.268,-44.5 367.268,-8.5 310.268,-8.5"/>
<text text-anchor="middle" x="338.768" y="-23.4" font-family="Verdana" font-size="12.00">Wallet</text>
</g>
<!-- Trusted Full Node&#45;&gt;Wallet -->
<g id="edge2" class="edge"><title>Trusted Full Node&#45;&gt;Wallet</title>
<path fill="none" stroke="#31cef0" d="M284.524,-36C284.524,-36 300.197,-36 300.197,-36"/>
<polygon fill="#31cef0" stroke="#31cef0" points="300.197,-39.5 310.197,-36 300.197,-32.5 300.197,-39.5"/>
<polygon fill="#31cef0" stroke="#31cef0" points="284.524,-32.5 274.524,-36 284.524,-39.5 284.524,-32.5"/>
</g>
<!-- Wallet&#45;&gt;Wallet API -->
<g id="edge3" class="edge"><title>Wallet&#45;&gt;Wallet API</title>
<path fill="none" stroke="#31cef0" d="M377.333,-22.5C377.333,-22.5 405.077,-22.5 405.077,-22.5"/>
<polygon fill="#31cef0" stroke="#31cef0" points="405.077,-26 415.077,-22.5 405.077,-19 405.077,-26"/>
<polygon fill="#31cef0" stroke="#31cef0" points="377.333,-19 367.333,-22.5 377.333,-26 377.333,-19"/>
</g>
</g>
</svg>
