<?xml version="1.0" encoding="UTF-8" standalone="no"?>
<!DOCTYPE svg PUBLIC "-//W3C//DTD SVG 1.1//EN"
 "http://www.w3.org/Graphics/SVG/1.1/DTD/svg11.dtd">
<!-- Generated by graphviz version 2.38.0 (20140413.2041)
 -->
<!-- Title: foo Pages: 1 -->
<svg width="473pt" height="44pt"
 viewBox="0.00 0.00 473.00 44.00" xmlns="http://www.w3.org/2000/svg" xmlns:xlink="http://www.w3.org/1999/xlink">
<g id="graph0" class="graph" transform="scale(1 1) rotate(0) translate(4 40)">
<title>foo</title>
<polygon fill="white" stroke="none" points="-4,4 -4,-40 469,-40 469,4 -4,4"/>
<!-- P2P network -->
<g id="node1" class="node"><title>P2P network</title>
<polygon fill="#eeeeee" stroke="#eeeeee" points="92,-36 0,-36 0,-0 92,-0 92,-36"/>
<text text-anchor="middle" x="46" y="-14.9" font-family="Verdana" font-size="12.00">P2P network</text>
</g>
<!-- Trusted Full Node -->
<g id="node2" class="node"><title>Trusted Full Node</title>
<polygon fill="#eeeeee" stroke="#eeeeee" points="253,-36 128,-36 128,-0 253,-0 253,-36"/>
<text text-anchor="middle" x="190.5" y="-14.9" font-family="Verdana" font-size="12.00">Trusted Full Node</text>
</g>
<!-- P2P network&#45;&gt;Trusted Full Node -->
<g id="edge1" class="edge"><title>P2P network&#45;&gt;Trusted Full Node</title>
<path fill="none" stroke="#31cef0" d="M102.14,-18C107.257,-18 112.49,-18 117.728,-18"/>
<polygon fill="#31cef0" stroke="#31cef0" points="102.088,-14.5001 92.0879,-18 102.088,-21.5001 102.088,-14.5001"/>
<polygon fill="#31cef0" stroke="#31cef0" points="117.774,-21.5001 127.774,-18 117.774,-14.5001 117.774,-21.5001"/>
</g>
<!-- Wallet -->
<g id="node3" class="node"><title>Wallet</title>
<polygon fill="#eeeeee" stroke="#eeeeee" points="346,-36 289,-36 289,-0 346,-0 346,-36"/>
<text text-anchor="middle" x="317.5" y="-14.9" font-family="Verdana" font-size="12.00">Wallet</text>
</g>
<!-- Trusted Full Node&#45;&gt;Wallet -->
<g id="edge2" class="edge"><title>Trusted Full Node&#45;&gt;Wallet</title>
<path fill="none" stroke="#31cef0" d="M253.268,-18C261.907,-18 270.564,-18 278.58,-18"/>
<polygon fill="#31cef0" stroke="#31cef0" points="278.693,-21.5001 288.693,-18 278.693,-14.5001 278.693,-21.5001"/>
</g>
<!-- Wallet API -->
<g id="node4" class="node"><title>Wallet API</title>
<polygon fill="#eeeeee" stroke="#eeeeee" points="465,-36 382,-36 382,-0 465,-0 465,-36"/>
<text text-anchor="middle" x="423.5" y="-14.9" font-family="Verdana" font-size="12.00">Wallet API</text>
</g>
<!-- Wallet&#45;&gt;Wallet API -->
<g id="edge3" class="edge"><title>Wallet&#45;&gt;Wallet API</title>
<path fill="none" stroke="#31cef0" d="M346.097,-18C353.969,-18 362.806,-18 371.601,-18"/>
<polygon fill="#31cef0" stroke="#31cef0" points="371.845,-21.5001 381.845,-18 371.845,-14.5001 371.845,-21.5001"/>
</g>
</g>
</svg>
