<?xml version="1.0" encoding="UTF-8" standalone="no"?>
<!DOCTYPE svg PUBLIC "-//W3C//DTD SVG 1.1//EN"
 "http://www.w3.org/Graphics/SVG/1.1/DTD/svg11.dtd">
<!-- Generated by graphviz version 2.38.0 (20140413.2041)
 -->
<!-- Title: foo Pages: 1 -->
<svg width="583pt" height="121pt"
 viewBox="0.00 0.00 583.27 121.00" xmlns="http://www.w3.org/2000/svg" xmlns:xlink="http://www.w3.org/1999/xlink">
<g id="graph0" class="graph" transform="scale(1 1) rotate(0) translate(4 117)">
<title>foo</title>
<polygon fill="white" stroke="none" points="-4,4 -4,-117 579.268,-117 579.268,4 -4,4"/>
<!-- Deposit API -->
<g id="node1" class="node"><title>Deposit API</title>
<polygon fill="none" stroke="#ffffff" points="479.268,-38.5 479.268,-74.5 566.268,-74.5 566.268,-38.5 479.268,-38.5"/>
<text text-anchor="middle" x="522.768" y="-53.4" font-family="Verdana" font-size="12.00">Deposit API</text>
</g>
<!-- Withdraw API -->
<g id="node2" class="node"><title>Withdraw API</title>
<polygon fill="none" stroke="#ffffff" points="473.268,-0.5 473.268,-36.5 572.268,-36.5 572.268,-0.5 473.268,-0.5"/>
<text text-anchor="middle" x="522.768" y="-15.4" font-family="Verdana" font-size="12.00">Withdraw API</text>
</g>
<!-- Blockchain API -->
<g id="node3" class="node"><title>Blockchain API</title>
<polygon fill="none" stroke="#ffffff" points="470.268,-76.5 470.268,-112.5 575.268,-112.5 575.268,-76.5 470.268,-76.5"/>
<text text-anchor="middle" x="522.768" y="-91.4" font-family="Verdana" font-size="12.00">Blockchain API</text>
</g>
<!-- P2P network -->
<g id="node4" class="node"><title>P2P network</title>
<ellipse fill="none" stroke="#999999" cx="56.634" cy="-56.5" rx="56.7683" ry="18"/>
<text text-anchor="middle" x="56.634" y="-53.4" font-family="Verdana" font-size="12.00">P2P network</text>
</g>
<!-- Trusted Full Node -->
<g id="node5" class="node"><title>Trusted Full Node</title>
<polygon fill="#eeeeee" stroke="#eeeeee" points="149.268,-38.5 149.268,-74.5 272.268,-74.5 272.268,-38.5 149.268,-38.5"/>
<text text-anchor="middle" x="210.768" y="-53.4" font-family="Verdana" font-size="12.00">Trusted Full Node</text>
</g>
<!-- P2P network&#45;&gt;Trusted Full Node -->
<g id="edge1" class="edge"><title>P2P network&#45;&gt;Trusted Full Node</title>
<path fill="none" stroke="#31cef0" d="M123.59,-56.5C123.59,-56.5 139.126,-56.5 139.126,-56.5"/>
<polygon fill="#31cef0" stroke="#31cef0" points="139.126,-60 149.126,-56.5 139.126,-53 139.126,-60"/>
<polygon fill="#31cef0" stroke="#31cef0" points="123.59,-53 113.59,-56.5 123.59,-60 123.59,-53"/>
</g>
<!-- Trusted Full Node&#45;&gt;Blockchain API -->
<g id="edge2" class="edge"><title>Trusted Full Node&#45;&gt;Blockchain API</title>
<path fill="none" stroke="#31cef0" d="M211.268,-84.6097C211.268,-84.6097 211.268,-94.5 211.268,-94.5 211.268,-94.5 459.926,-94.5 459.926,-94.5"/>
<polygon fill="#31cef0" stroke="#31cef0" points="214.768,-84.6096 211.268,-74.6097 207.768,-84.6097 214.768,-84.6096"/>
<polygon fill="#31cef0" stroke="#31cef0" points="459.926,-98.0001 469.926,-94.5 459.926,-91.0001 459.926,-98.0001"/>
</g>
<!-- Delayed Full Node -->
<g id="node6" class="node"><title>Delayed Full Node</title>
<polygon fill="#eeeeee" stroke="#eeeeee" points="308.268,-38.5 308.268,-74.5 434.268,-74.5 434.268,-38.5 308.268,-38.5"/>
<text text-anchor="middle" x="371.268" y="-53.4" font-family="Verdana" font-size="12.00">Delayed Full Node</text>
</g>
<!-- Trusted Full Node&#45;&gt;Delayed Full Node -->
<g id="edge3" class="edge"><title>Trusted Full Node&#45;&gt;Delayed Full Node</title>
<path fill="none" stroke="#31cef0" d="M282.362,-56.5C282.362,-56.5 298.244,-56.5 298.244,-56.5"/>
<polygon fill="#31cef0" stroke="#31cef0" points="298.244,-60 308.244,-56.5 298.244,-53 298.244,-60"/>
<polygon fill="#31cef0" stroke="#31cef0" points="282.362,-53 272.362,-56.5 282.362,-60 282.362,-53"/>
</g>
<!-- Wallet -->
<g id="node7" class="node"><title>Wallet</title>
<polygon fill="#eeeeee" stroke="#eeeeee" points="344.268,-0.5 344.268,-36.5 398.268,-36.5 398.268,-0.5 344.268,-0.5"/>
<text text-anchor="middle" x="371.268" y="-15.4" font-family="Verdana" font-size="12.00">Wallet</text>
</g>
<!-- Trusted Full Node&#45;&gt;Wallet -->
<g id="edge5" class="edge"><title>Trusted Full Node&#45;&gt;Wallet</title>
<path fill="none" stroke="#31cef0" d="M211.268,-28.3903C211.268,-28.3903 211.268,-18.5 211.268,-18.5 211.268,-18.5 334.126,-18.5 334.126,-18.5"/>
<polygon fill="#31cef0" stroke="#31cef0" points="207.768,-28.3903 211.268,-38.3903 214.768,-28.3904 207.768,-28.3903"/>
<polygon fill="#31cef0" stroke="#31cef0" points="334.126,-22.0001 344.126,-18.5 334.126,-15.0001 334.126,-22.0001"/>
</g>
<!-- Delayed Full Node&#45;&gt;Deposit API -->
<g id="edge4" class="edge"><title>Delayed Full Node&#45;&gt;Deposit API</title>
<path fill="none" stroke="#31cef0" d="M444.64,-56.5C444.64,-56.5 468.973,-56.5 468.973,-56.5"/>
<polygon fill="#31cef0" stroke="#31cef0" points="468.973,-60 478.973,-56.5 468.973,-53 468.973,-60"/>
<polygon fill="#31cef0" stroke="#31cef0" points="444.64,-53 434.64,-56.5 444.64,-60 444.64,-53"/>
</g>
<!-- Wallet&#45;&gt;Withdraw API -->
<g id="edge6" class="edge"><title>Wallet&#45;&gt;Withdraw API</title>
<path fill="none" stroke="#31cef0" d="M408.353,-18.5C408.353,-18.5 463.26,-18.5 463.26,-18.5"/>
<polygon fill="#31cef0" stroke="#31cef0" points="463.26,-22 473.26,-18.5 463.26,-15 463.26,-22"/>
<polygon fill="#31cef0" stroke="#31cef0" points="408.353,-15 398.353,-18.5 408.353,-22 408.353,-15"/>
</g>
</g>
</svg>
