<?xml version="1.0" encoding="UTF-8" standalone="no"?>
<!DOCTYPE svg PUBLIC "-//W3C//DTD SVG 1.1//EN"
 "http://www.w3.org/Graphics/SVG/1.1/DTD/svg11.dtd">
<!-- Generated by graphviz version 2.38.0 (20140413.2041)
 -->
<!-- Title: G Pages: 1 -->
<svg width="907pt" height="199pt"
 viewBox="0.00 0.00 906.95 199.00" xmlns="http://www.w3.org/2000/svg" xmlns:xlink="http://www.w3.org/1999/xlink">
<g id="graph0" class="graph" transform="scale(1 1) rotate(0) translate(4 195)">
<title>G</title>
<polygon fill="white" stroke="none" points="-4,4 -4,-195 902.946,-195 902.946,4 -4,4"/>
<!-- proposal -->
<g id="node1" class="node"><title>proposal</title>
<ellipse fill="#eeeeee" stroke="#eeeeee" cx="409.946" cy="-173" rx="41.7203" ry="18"/>
<text text-anchor="middle" x="409.946" y="-169.9" font-family="Verdana" font-size="12.00">proposal</text>
</g>
<!-- Chief.COMPANY -->
<g id="node2" class="node"><title>Chief.COMPANY</title>
<ellipse fill="#eeeeee" stroke="#eeeeee" cx="68.9457" cy="-91" rx="68.8915" ry="18"/>
<text text-anchor="middle" x="68.9457" y="-87.9" font-family="Verdana" font-size="12.00">Chief.COMPANY</text>
</g>
<!-- proposal&#45;&gt;Chief.COMPANY -->
<g id="edge1" class="edge"><title>proposal&#45;&gt;Chief.COMPANY</title>
<path fill="none" stroke="#31cef0" d="M364.295,-161.29C300.348,-146.288 184.55,-119.121 118.544,-103.636"/>
<polygon fill="#31cef0" stroke="#31cef0" points="363.562,-164.713 374.097,-163.59 365.161,-157.898 363.562,-164.713"/>
<text text-anchor="middle" x="270.946" y="-129.8" font-family="Verdana" font-size="9.00">51%</text>
</g>
<!-- Treasurer.COMPANY -->
<g id="node3" class="node"><title>Treasurer.COMPANY</title>
<ellipse fill="#eeeeee" stroke="#eeeeee" cx="230.946" cy="-91" rx="86.3647" ry="18"/>
<text text-anchor="middle" x="230.946" y="-87.9" font-family="Verdana" font-size="12.00">Treasurer.COMPANY</text>
</g>
<!-- proposal&#45;&gt;Treasurer.COMPANY -->
<g id="edge2" class="edge"><title>proposal&#45;&gt;Treasurer.COMPANY</title>
<path fill="none" stroke="#31cef0" d="M372.67,-155.34C341.214,-141.282 296.521,-121.307 265.777,-107.567"/>
<polygon fill="#31cef0" stroke="#31cef0" points="371.419,-158.615 381.977,-159.5 374.275,-152.224 371.419,-158.615"/>
<text text-anchor="middle" x="342.946" y="-129.8" font-family="Verdana" font-size="9.00">33%</text>
</g>
<!-- Controller.COMPANY -->
<g id="node4" class="node"><title>Controller.COMPANY</title>
<ellipse fill="#eeeeee" stroke="#eeeeee" cx="409.946" cy="-91" rx="86.3647" ry="18"/>
<text text-anchor="middle" x="409.946" y="-87.9" font-family="Verdana" font-size="12.00">Controller.COMPANY</text>
</g>
<!-- proposal&#45;&gt;Controller.COMPANY -->
<g id="edge3" class="edge"><title>proposal&#45;&gt;Controller.COMPANY</title>
<path fill="none" stroke="#31cef0" d="M409.946,-144.428C409.946,-132.675 409.946,-119.334 409.946,-109.05"/>
<polygon fill="#31cef0" stroke="#31cef0" points="406.446,-144.641 409.946,-154.641 413.446,-144.641 406.446,-144.641"/>
<text text-anchor="middle" x="420.946" y="-129.8" font-family="Verdana" font-size="9.00">33%</text>
</g>
<!-- Tax.COMPANY -->
<g id="node5" class="node"><title>Tax.COMPANY</title>
<ellipse fill="#eeeeee" stroke="#eeeeee" cx="566.946" cy="-91" rx="63.3111" ry="18"/>
<text text-anchor="middle" x="566.946" y="-87.9" font-family="Verdana" font-size="12.00">Tax.COMPANY</text>
</g>
<!-- proposal&#45;&gt;Tax.COMPANY -->
<g id="edge4" class="edge"><title>proposal&#45;&gt;Tax.COMPANY</title>
<path fill="none" stroke="#31cef0" d="M444.866,-154.206C472.695,-140.026 511.222,-120.394 537.505,-107.002"/>
<polygon fill="#31cef0" stroke="#31cef0" points="443.192,-151.131 435.871,-158.79 446.37,-157.368 443.192,-151.131"/>
<text text-anchor="middle" x="508.946" y="-129.8" font-family="Verdana" font-size="9.00">10%</text>
</g>
<!-- Accounting.COMPANY -->
<g id="node6" class="node"><title>Accounting.COMPANY</title>
<ellipse fill="#eeeeee" stroke="#eeeeee" cx="738.946" cy="-91" rx="89.7516" ry="18"/>
<text text-anchor="middle" x="738.946" y="-87.9" font-family="Verdana" font-size="12.00">Accounting.COMPANY</text>
</g>
<!-- proposal&#45;&gt;Accounting.COMPANY -->
<g id="edge5" class="edge"><title>proposal&#45;&gt;Accounting.COMPANY</title>
<path fill="none" stroke="#31cef0" d="M455.373,-160.954C515.159,-146.416 620.15,-120.886 684.236,-105.303"/>
<polygon fill="#31cef0" stroke="#31cef0" points="454.357,-157.599 445.467,-163.363 456.011,-164.401 454.357,-157.599"/>
<text text-anchor="middle" x="605.946" y="-129.8" font-family="Verdana" font-size="9.00">10%</text>
</g>
<!-- T1 -->
<g id="node7" class="node"><title>T1</title>
<ellipse fill="#eeeeee" stroke="#eeeeee" cx="169.946" cy="-18" rx="27" ry="18"/>
<text text-anchor="middle" x="169.946" y="-14.9" font-family="Verdana" font-size="12.00">T1</text>
</g>
<!-- Treasurer.COMPANY&#45;&gt;T1 -->
<g id="edge6" class="edge"><title>Treasurer.COMPANY&#45;&gt;T1</title>
<path fill="none" stroke="#31cef0" d="M209.955,-65.5678C201.025,-55.1742 190.887,-43.3742 183.051,-34.2531"/>
<polygon fill="#31cef0" stroke="#31cef0" points="207.318,-67.8698 216.49,-73.174 212.628,-63.3081 207.318,-67.8698"/>
</g>
<!-- T2 -->
<g id="node8" class="node"><title>T2</title>
<ellipse fill="#eeeeee" stroke="#eeeeee" cx="230.946" cy="-18" rx="27" ry="18"/>
<text text-anchor="middle" x="230.946" y="-14.9" font-family="Verdana" font-size="12.00">T2</text>
</g>
<!-- Treasurer.COMPANY&#45;&gt;T2 -->
<g id="edge7" class="edge"><title>Treasurer.COMPANY&#45;&gt;T2</title>
<path fill="none" stroke="#31cef0" d="M230.946,-62.7534C230.946,-53.7651 230.946,-44.0295 230.946,-36.0288"/>
<polygon fill="#31cef0" stroke="#31cef0" points="227.446,-62.8128 230.946,-72.8129 234.446,-62.8129 227.446,-62.8128"/>
</g>
<!-- T3 -->
<g id="node9" class="node"><title>T3</title>
<ellipse fill="#eeeeee" stroke="#eeeeee" cx="291.946" cy="-18" rx="27" ry="18"/>
<text text-anchor="middle" x="291.946" y="-14.9" font-family="Verdana" font-size="12.00">T3</text>
</g>
<!-- Treasurer.COMPANY&#45;&gt;T3 -->
<g id="edge8" class="edge"><title>Treasurer.COMPANY&#45;&gt;T3</title>
<path fill="none" stroke="#31cef0" d="M251.937,-65.5678C260.867,-55.1742 271.005,-43.3742 278.841,-34.2531"/>
<polygon fill="#31cef0" stroke="#31cef0" points="249.264,-63.3081 245.402,-73.174 254.573,-67.8698 249.264,-63.3081"/>
</g>
<!-- C1 -->
<g id="node10" class="node"><title>C1</title>
<ellipse fill="#eeeeee" stroke="#eeeeee" cx="368.946" cy="-18" rx="27" ry="18"/>
<text text-anchor="middle" x="368.946" y="-14.9" font-family="Verdana" font-size="12.00">C1</text>
</g>
<!-- Controller.COMPANY&#45;&gt;C1 -->
<g id="edge9" class="edge"><title>Controller.COMPANY&#45;&gt;C1</title>
<path fill="none" stroke="#31cef0" d="M394.901,-63.947C389.312,-54.2689 383.14,-43.5805 378.217,-35.0556"/>
<polygon fill="#31cef0" stroke="#31cef0" points="391.989,-65.9033 400.021,-72.8129 398.051,-62.4028 391.989,-65.9033"/>
</g>
<!-- C2 -->
<g id="node11" class="node"><title>C2</title>
<ellipse fill="#eeeeee" stroke="#eeeeee" cx="429.946" cy="-18" rx="27" ry="18"/>
<text text-anchor="middle" x="429.946" y="-14.9" font-family="Verdana" font-size="12.00">C2</text>
</g>
<!-- Controller.COMPANY&#45;&gt;C2 -->
<g id="edge10" class="edge"><title>Controller.COMPANY&#45;&gt;C2</title>
<path fill="none" stroke="#31cef0" d="M417.538,-63.0462C420.093,-53.9769 422.871,-44.1164 425.149,-36.0288"/>
<polygon fill="#31cef0" stroke="#31cef0" points="414.13,-62.2385 414.787,-72.8129 420.868,-64.1365 414.13,-62.2385"/>
</g>
<!-- X1 -->
<g id="node12" class="node"><title>X1</title>
<ellipse fill="#eeeeee" stroke="#eeeeee" cx="505.946" cy="-18" rx="27" ry="18"/>
<text text-anchor="middle" x="505.946" y="-14.9" font-family="Verdana" font-size="12.00">X1</text>
</g>
<!-- Tax.COMPANY&#45;&gt;X1 -->
<g id="edge11" class="edge"><title>Tax.COMPANY&#45;&gt;X1</title>
<path fill="none" stroke="#31cef0" d="M545.955,-65.5678C537.025,-55.1742 526.887,-43.3742 519.051,-34.2531"/>
<polygon fill="#31cef0" stroke="#31cef0" points="543.318,-67.8698 552.49,-73.174 548.628,-63.3081 543.318,-67.8698"/>
</g>
<!-- X2 -->
<g id="node13" class="node"><title>X2</title>
<ellipse fill="#eeeeee" stroke="#eeeeee" cx="566.946" cy="-18" rx="27" ry="18"/>
<text text-anchor="middle" x="566.946" y="-14.9" font-family="Verdana" font-size="12.00">X2</text>
</g>
<!-- Tax.COMPANY&#45;&gt;X2 -->
<g id="edge12" class="edge"><title>Tax.COMPANY&#45;&gt;X2</title>
<path fill="none" stroke="#31cef0" d="M566.946,-62.7534C566.946,-53.7651 566.946,-44.0295 566.946,-36.0288"/>
<polygon fill="#31cef0" stroke="#31cef0" points="563.446,-62.8128 566.946,-72.8129 570.446,-62.8129 563.446,-62.8128"/>
</g>
<!-- A1 -->
<g id="node14" class="node"><title>A1</title>
<ellipse fill="#eeeeee" stroke="#eeeeee" cx="627.946" cy="-18" rx="27" ry="18"/>
<text text-anchor="middle" x="627.946" y="-14.9" font-family="Verdana" font-size="12.00">A1</text>
</g>
<!-- Accounting.COMPANY&#45;&gt;A1 -->
<g id="edge13" class="edge"><title>Accounting.COMPANY&#45;&gt;A1</title>
<path fill="none" stroke="#31cef0" d="M705.003,-68.2889C685.843,-56.0331 662.624,-41.1813 646.714,-31.0046"/>
<polygon fill="#31cef0" stroke="#31cef0" points="703.17,-71.2712 713.48,-73.7112 706.942,-65.3743 703.17,-71.2712"/>
</g>
<!-- A2 -->
<g id="node15" class="node"><title>A2</title>
<ellipse fill="#eeeeee" stroke="#eeeeee" cx="688.946" cy="-18" rx="27" ry="18"/>
<text text-anchor="middle" x="688.946" y="-14.9" font-family="Verdana" font-size="12.00">A2</text>
</g>
<!-- Accounting.COMPANY&#45;&gt;A2 -->
<g id="edge14" class="edge"><title>Accounting.COMPANY&#45;&gt;A2</title>
<path fill="none" stroke="#31cef0" d="M720.932,-64.4208C713.901,-54.4371 706.069,-43.3152 699.915,-34.5758"/>
<polygon fill="#31cef0" stroke="#31cef0" points="718.223,-66.652 726.842,-72.8129 723.946,-62.6216 718.223,-66.652"/>
</g>
<!-- A3 -->
<g id="node16" class="node"><title>A3</title>
<ellipse fill="#eeeeee" stroke="#eeeeee" cx="749.946" cy="-18" rx="27" ry="18"/>
<text text-anchor="middle" x="749.946" y="-14.9" font-family="Verdana" font-size="12.00">A3</text>
</g>
<!-- Accounting.COMPANY&#45;&gt;A3 -->
<g id="edge15" class="edge"><title>Accounting.COMPANY&#45;&gt;A3</title>
<path fill="none" stroke="#31cef0" d="M743.167,-62.7534C744.56,-53.7651 746.068,-44.0295 747.307,-36.0288"/>
<polygon fill="#31cef0" stroke="#31cef0" points="739.681,-62.3949 741.609,-72.8129 746.598,-63.4667 739.681,-62.3949"/>
</g>
<!-- A4 -->
<g id="node17" class="node"><title>A4</title>
<ellipse fill="#eeeeee" stroke="#eeeeee" cx="810.946" cy="-18" rx="27" ry="18"/>
<text text-anchor="middle" x="810.946" y="-14.9" font-family="Verdana" font-size="12.00">A4</text>
</g>
<!-- Accounting.COMPANY&#45;&gt;A4 -->
<g id="edge16" class="edge"><title>Accounting.COMPANY&#45;&gt;A4</title>
<path fill="none" stroke="#31cef0" d="M763.31,-65.9746C774.315,-55.1221 786.946,-42.6666 796.435,-33.3092"/>
<polygon fill="#31cef0" stroke="#31cef0" points="760.672,-63.6604 756.009,-73.174 765.587,-68.6446 760.672,-63.6604"/>
</g>
<!-- A5 -->
<g id="node18" class="node"><title>A5</title>
<ellipse fill="#eeeeee" stroke="#eeeeee" cx="871.946" cy="-18" rx="27" ry="18"/>
<text text-anchor="middle" x="871.946" y="-14.9" font-family="Verdana" font-size="12.00">A5</text>
</g>
<!-- Accounting.COMPANY&#45;&gt;A5 -->
<g id="edge17" class="edge"><title>Accounting.COMPANY&#45;&gt;A5</title>
<path fill="none" stroke="#31cef0" d="M778.312,-69.3317C797.278,-59.3297 820.33,-47.1089 840.946,-36 844.404,-34.1365 848.071,-32.1422 851.625,-30.1991"/>
<polygon fill="#31cef0" stroke="#31cef0" points="776.574,-66.2914 769.358,-74.049 779.836,-72.4845 776.574,-66.2914"/>
</g>
</g>
</svg>
