<?xml version="1.0" encoding="UTF-8" standalone="no"?>
<!DOCTYPE svg PUBLIC "-//W3C//DTD SVG 1.1//EN"
 "http://www.w3.org/Graphics/SVG/1.1/DTD/svg11.dtd">
<!-- Generated by graphviz version 2.40.1 (20161225.0304)
 -->
<!-- Title: foo Pages: 1 -->
<svg width="511pt" height="83pt"
 viewBox="0.00 0.00 511.27 83.00" xmlns="http://www.w3.org/2000/svg" xmlns:xlink="http://www.w3.org/1999/xlink">
<g id="graph0" class="graph" transform="scale(1 1) rotate(0) translate(4 79)">
<title>foo</title>
<polygon fill="#ffffff" stroke="transparent" points="-4,4 -4,-79 507.268,-79 507.268,4 -4,4"/>
<!-- Wallet API -->
<g id="node1" class="node">
<title>Wallet API</title>
<polygon fill="none" stroke="#ffffff" points="410.768,-.5 410.768,-36.5 490.768,-36.5 490.768,-.5 410.768,-.5"/>
<text text-anchor="middle" x="450.768" y="-15.4" font-family="Verdana" font-size="12.00" fill="#000000">Wallet API</text>
</g>
<!-- Blockchain API -->
<g id="node2" class="node">
<title>Blockchain API</title>
<polygon fill="none" stroke="#ffffff" points="398.268,-38.5 398.268,-74.5 503.268,-74.5 503.268,-38.5 398.268,-38.5"/>
<text text-anchor="middle" x="450.768" y="-53.4" font-family="Verdana" font-size="12.00" fill="#000000">Blockchain API</text>
</g>
<!-- P2P network -->
<g id="node3" class="node">
<title>P2P network</title>
<ellipse fill="none" stroke="#999999" cx="56.634" cy="-37.5" rx="56.7683" ry="18"/>
<text text-anchor="middle" x="56.634" y="-34.4" font-family="Verdana" font-size="12.00" fill="#000000">P2P network</text>
</g>
<!-- Trusted Full Node -->
<g id="node4" class="node">
<title>Trusted Full Node</title>
<polygon fill="#eeeeee" stroke="#eeeeee" points="149.268,-19.5 149.268,-55.5 272.268,-55.5 272.268,-19.5 149.268,-19.5"/>
<text text-anchor="middle" x="210.768" y="-34.4" font-family="Verdana" font-size="12.00" fill="#000000">Trusted Full Node</text>
</g>
<!-- P2P network&#45;&gt;Trusted Full Node -->
<g id="edge1" class="edge">
<title>P2P network&#45;&gt;Trusted Full Node</title>
<path fill="none" stroke="#31cef0" d="M123.5899,-37.5C123.5899,-37.5 139.1259,-37.5 139.1259,-37.5"/>
<polygon fill="#31cef0" stroke="#31cef0" points="139.1259,-41 149.1259,-37.5 139.1259,-34 139.1259,-41"/>
<polygon fill="#31cef0" stroke="#31cef0" points="123.5899,-34 113.5899,-37.5 123.5899,-41 123.5899,-34"/>
</g>
<!-- Trusted Full Node&#45;&gt;Blockchain API -->
<g id="edge4" class="edge">
<title>Trusted Full Node&#45;&gt;Blockchain API</title>
<path fill="none" stroke="#31cef0" d="M282.574,-51C282.574,-51 388.1175,-51 388.1175,-51"/>
<polygon fill="#31cef0" stroke="#31cef0" points="388.1175,-54.5 398.1175,-51 388.1175,-47.5 388.1175,-54.5"/>
<polygon fill="#31cef0" stroke="#31cef0" points="282.574,-47.5 272.574,-51 282.574,-54.5 282.574,-47.5"/>
</g>
<!-- Wallet -->
<g id="node5" class="node">
<title>Wallet</title>
<polygon fill="#eeeeee" stroke="#eeeeee" points="308.268,-9.5 308.268,-45.5 362.268,-45.5 362.268,-9.5 308.268,-9.5"/>
<text text-anchor="middle" x="335.268" y="-24.4" font-family="Verdana" font-size="12.00" fill="#000000">Wallet</text>
</g>
<!-- Trusted Full Node&#45;&gt;Wallet -->
<g id="edge2" class="edge">
<title>Trusted Full Node&#45;&gt;Wallet</title>
<path fill="none" stroke="#31cef0" d="M282.2885,-32.5C282.2885,-32.5 298.1934,-32.5 298.1934,-32.5"/>
<polygon fill="#31cef0" stroke="#31cef0" points="298.1934,-36 308.1934,-32.5 298.1934,-29 298.1934,-36"/>
<polygon fill="#31cef0" stroke="#31cef0" points="282.2885,-29 272.2885,-32.5 282.2885,-36 282.2885,-29"/>
</g>
<!-- Wallet&#45;&gt;Wallet API -->
<g id="edge3" class="edge">
<title>Wallet&#45;&gt;Wallet API</title>
<path fill="none" stroke="#31cef0" d="M372.3476,-23C372.3476,-23 400.7212,-23 400.7212,-23"/>
<polygon fill="#31cef0" stroke="#31cef0" points="400.7212,-26.5 410.7212,-23 400.7212,-19.5 400.7212,-26.5"/>
<polygon fill="#31cef0" stroke="#31cef0" points="372.3476,-19.5 362.3476,-23 372.3476,-26.5 372.3476,-19.5"/>
</g>
</g>
</svg>
