<?xml version="1.0" encoding="UTF-8" standalone="no"?>
<!DOCTYPE svg PUBLIC "-//W3C//DTD SVG 1.1//EN"
 "http://www.w3.org/Graphics/SVG/1.1/DTD/svg11.dtd">
<!-- Generated by graphviz version 2.38.0 (20140413.2041)
 -->
<!-- Title: foo Pages: 1 -->
<svg width="523pt" height="89pt"
 viewBox="0.00 0.00 523.00 89.00" xmlns="http://www.w3.org/2000/svg" xmlns:xlink="http://www.w3.org/1999/xlink">
<g id="graph0" class="graph" transform="scale(1 1) rotate(0) translate(4 85)">
<title>foo</title>
<polygon fill="white" stroke="none" points="-4,4 -4,-85 519,-85 519,4 -4,4"/>
<!-- P2P network -->
<g id="node1" class="node"><title>P2P network</title>
<polygon fill="#eeeeee" stroke="#eeeeee" points="0,-22.5 0,-58.5 92,-58.5 92,-22.5 0,-22.5"/>
<text text-anchor="middle" x="46" y="-37.4" font-family="Verdana" font-size="12.00">P2P network</text>
</g>
<!-- Trusted Full Node -->
<g id="node2" class="node"><title>Trusted Full Node</title>
<polygon fill="#eeeeee" stroke="#eeeeee" points="128,-22.5 128,-58.5 253,-58.5 253,-22.5 128,-22.5"/>
<text text-anchor="middle" x="190.5" y="-37.4" font-family="Verdana" font-size="12.00">Trusted Full Node</text>
</g>
<!-- P2P network&#45;&gt;Trusted Full Node -->
<g id="edge1" class="edge"><title>P2P network&#45;&gt;Trusted Full Node</title>
<path fill="none" stroke="#31cef0" d="M102.118,-40.5C102.118,-40.5 117.952,-40.5 117.952,-40.5"/>
<polygon fill="#31cef0" stroke="#31cef0" points="117.952,-44 127.952,-40.5 117.952,-37 117.952,-44"/>
<polygon fill="#31cef0" stroke="#31cef0" points="102.118,-37 92.118,-40.5 102.118,-44 102.118,-37"/>
</g>
<!-- Wallet -->
<g id="node3" class="node"><title>Wallet</title>
<polygon fill="#eeeeee" stroke="#eeeeee" points="314,-44.5 314,-80.5 371,-80.5 371,-44.5 314,-44.5"/>
<text text-anchor="middle" x="342.5" y="-59.4" font-family="Verdana" font-size="12.00">Wallet</text>
</g>
<!-- Trusted Full Node&#45;&gt;Wallet -->
<g id="edge2" class="edge"><title>Trusted Full Node&#45;&gt;Wallet</title>
<path fill="none" stroke="#31cef0" d="M263.202,-51.5C263.202,-51.5 303.952,-51.5 303.952,-51.5"/>
<polygon fill="#31cef0" stroke="#31cef0" points="303.952,-55 313.952,-51.5 303.952,-48 303.952,-55"/>
<polygon fill="#31cef0" stroke="#31cef0" points="263.202,-48 253.202,-51.5 263.202,-55 263.202,-48"/>
</g>
<!-- Blockchain API -->
<g id="node5" class="node"><title>Blockchain API</title>
<polygon fill="#eeeeee" stroke="#eeeeee" points="289,-0.5 289,-36.5 396,-36.5 396,-0.5 289,-0.5"/>
<text text-anchor="middle" x="342.5" y="-15.4" font-family="Verdana" font-size="12.00">Blockchain API</text>
</g>
<!-- Trusted Full Node&#45;&gt;Blockchain API -->
<g id="edge4" class="edge"><title>Trusted Full Node&#45;&gt;Blockchain API</title>
<path fill="none" stroke="#31cef0" d="M263.202,-29.5C263.202,-29.5 278.67,-29.5 278.67,-29.5"/>
<polygon fill="#31cef0" stroke="#31cef0" points="278.67,-33 288.67,-29.5 278.67,-26 278.67,-33"/>
<polygon fill="#31cef0" stroke="#31cef0" points="263.202,-26 253.202,-29.5 263.202,-33 263.202,-26"/>
</g>
<!-- Wallet API -->
<g id="node4" class="node"><title>Wallet API</title>
<polygon fill="#eeeeee" stroke="#eeeeee" points="432,-44.5 432,-80.5 515,-80.5 515,-44.5 432,-44.5"/>
<text text-anchor="middle" x="473.5" y="-59.4" font-family="Verdana" font-size="12.00">Wallet API</text>
</g>
<!-- Wallet&#45;&gt;Wallet API -->
<g id="edge3" class="edge"><title>Wallet&#45;&gt;Wallet API</title>
<path fill="none" stroke="#31cef0" d="M381.249,-62.5C381.249,-62.5 421.89,-62.5 421.89,-62.5"/>
<polygon fill="#31cef0" stroke="#31cef0" points="421.89,-66 431.89,-62.5 421.89,-59 421.89,-66"/>
<polygon fill="#31cef0" stroke="#31cef0" points="381.249,-59 371.249,-62.5 381.248,-66 381.249,-59"/>
</g>
</g>
</svg>
