<?xml version="1.0" encoding="UTF-8" standalone="no"?>
<!DOCTYPE svg PUBLIC "-//W3C//DTD SVG 1.1//EN"
 "http://www.w3.org/Graphics/SVG/1.1/DTD/svg11.dtd">
<!-- Generated by graphviz version 2.38.0 (20140413.2041)
 -->
<!-- Title: foo Pages: 1 -->
<svg width="562pt" height="130pt"
 viewBox="0.00 0.00 562.00 130.00" xmlns="http://www.w3.org/2000/svg" xmlns:xlink="http://www.w3.org/1999/xlink">
<g id="graph0" class="graph" transform="scale(1 1) rotate(0) translate(4 126)">
<title>foo</title>
<polygon fill="white" stroke="none" points="-4,4 -4,-126 558,-126 558,4 -4,4"/>
<!-- P2P network -->
<g id="node1" class="node"><title>P2P network</title>
<polygon fill="#eeeeee" stroke="#eeeeee" points="92,-79 0,-79 0,-43 92,-43 92,-79"/>
<text text-anchor="middle" x="46" y="-57.9" font-family="Verdana" font-size="12.00">P2P network</text>
</g>
<!-- Trusted Full Node -->
<g id="node2" class="node"><title>Trusted Full Node</title>
<polygon fill="#eeeeee" stroke="#eeeeee" points="253,-79 128,-79 128,-43 253,-43 253,-79"/>
<text text-anchor="middle" x="190.5" y="-57.9" font-family="Verdana" font-size="12.00">Trusted Full Node</text>
</g>
<!-- P2P network&#45;&gt;Trusted Full Node -->
<g id="edge1" class="edge"><title>P2P network&#45;&gt;Trusted Full Node</title>
<path fill="none" stroke="#31cef0" d="M102.14,-61C107.257,-61 112.49,-61 117.728,-61"/>
<polygon fill="#31cef0" stroke="#31cef0" points="102.088,-57.5001 92.0879,-61 102.088,-64.5001 102.088,-57.5001"/>
<polygon fill="#31cef0" stroke="#31cef0" points="117.774,-64.5001 127.774,-61 117.774,-57.5001 117.774,-64.5001"/>
</g>
<!-- Blockchain API -->
<g id="node3" class="node"><title>Blockchain API</title>
<polygon fill="#eeeeee" stroke="#eeeeee" points="406.5,-122 299.5,-122 299.5,-86 406.5,-86 406.5,-122"/>
<text text-anchor="middle" x="353" y="-100.9" font-family="Verdana" font-size="12.00">Blockchain API</text>
</g>
<!-- Trusted Full Node&#45;&gt;Blockchain API -->
<g id="edge2" class="edge"><title>Trusted Full Node&#45;&gt;Blockchain API</title>
<path fill="none" stroke="#31cef0" d="M262.878,-80.123C271.816,-82.5177 280.903,-84.9522 289.688,-87.3057"/>
<polygon fill="#31cef0" stroke="#31cef0" points="263.66,-76.7091 253.094,-77.5019 261.848,-83.4707 263.66,-76.7091"/>
<polygon fill="#31cef0" stroke="#31cef0" points="288.888,-90.7149 299.453,-89.9221 290.7,-83.9533 288.888,-90.7149"/>
</g>
<!-- Delayed Full Node -->
<g id="node4" class="node"><title>Delayed Full Node</title>
<polygon fill="#eeeeee" stroke="#eeeeee" points="417,-79 289,-79 289,-43 417,-43 417,-79"/>
<text text-anchor="middle" x="353" y="-57.9" font-family="Verdana" font-size="12.00">Delayed Full Node</text>
</g>
<!-- Trusted Full Node&#45;&gt;Delayed Full Node -->
<g id="edge3" class="edge"><title>Trusted Full Node&#45;&gt;Delayed Full Node</title>
<path fill="none" stroke="#31cef0" d="M253.094,-61C261.545,-61 270.288,-61 278.919,-61"/>
<polygon fill="#31cef0" stroke="#31cef0" points="278.976,-64.5001 288.976,-61 278.976,-57.5001 278.976,-64.5001"/>
</g>
<!-- Wallet -->
<g id="node6" class="node"><title>Wallet</title>
<polygon fill="#eeeeee" stroke="#eeeeee" points="381.5,-36 324.5,-36 324.5,-0 381.5,-0 381.5,-36"/>
<text text-anchor="middle" x="353" y="-14.9" font-family="Verdana" font-size="12.00">Wallet</text>
</g>
<!-- Trusted Full Node&#45;&gt;Wallet -->
<g id="edge5" class="edge"><title>Trusted Full Node&#45;&gt;Wallet</title>
<path fill="none" stroke="#31cef0" d="M253.094,-44.4981C273.83,-38.9427 296.325,-32.916 314.616,-28.0158"/>
<polygon fill="#31cef0" stroke="#31cef0" points="315.553,-31.3882 324.306,-25.4195 313.741,-24.6267 315.553,-31.3882"/>
</g>
<!-- Deposit API -->
<g id="node5" class="node"><title>Deposit API</title>
<polygon fill="#eeeeee" stroke="#eeeeee" points="548,-79 459,-79 459,-43 548,-43 548,-79"/>
<text text-anchor="middle" x="503.5" y="-57.9" font-family="Verdana" font-size="12.00">Deposit API</text>
</g>
<!-- Delayed Full Node&#45;&gt;Deposit API -->
<g id="edge4" class="edge"><title>Delayed Full Node&#45;&gt;Deposit API</title>
<path fill="none" stroke="#31cef0" d="M417.408,-61C427.706,-61 438.287,-61 448.338,-61"/>
<polygon fill="#31cef0" stroke="#31cef0" points="448.585,-64.5001 458.585,-61 448.585,-57.5001 448.585,-64.5001"/>
</g>
<!-- Withdraw API -->
<g id="node7" class="node"><title>Withdraw API</title>
<polygon fill="#eeeeee" stroke="#eeeeee" points="554,-36 453,-36 453,-0 554,-0 554,-36"/>
<text text-anchor="middle" x="503.5" y="-14.9" font-family="Verdana" font-size="12.00">Withdraw API</text>
</g>
<!-- Wallet&#45;&gt;Withdraw API -->
<g id="edge6" class="edge"><title>Wallet&#45;&gt;Withdraw API</title>
<path fill="none" stroke="#31cef0" d="M381.584,-18C398.739,-18 421.484,-18 442.615,-18"/>
<polygon fill="#31cef0" stroke="#31cef0" points="442.827,-21.5001 452.827,-18 442.827,-14.5001 442.827,-21.5001"/>
</g>
</g>
</svg>
