<?xml version="1.0" encoding="UTF-8" standalone="no"?>
<!DOCTYPE svg PUBLIC "-//W3C//DTD SVG 1.1//EN"
 "http://www.w3.org/Graphics/SVG/1.1/DTD/svg11.dtd">
<!-- Generated by graphviz version 2.38.0 (20140413.2041)
 -->
<!-- Title: foo Pages: 1 -->
<svg width="562pt" height="87pt"
 viewBox="0.00 0.00 562.00 87.00" xmlns="http://www.w3.org/2000/svg" xmlns:xlink="http://www.w3.org/1999/xlink">
<g id="graph0" class="graph" transform="scale(1 1) rotate(0) translate(4 83)">
<title>foo</title>
<polygon fill="white" stroke="none" points="-4,4 -4,-83 558,-83 558,4 -4,4"/>
<!-- P2P network -->
<g id="node1" class="node"><title>P2P network</title>
<polygon fill="#eeeeee" stroke="#eeeeee" points="92,-57 0,-57 0,-21 92,-21 92,-57"/>
<text text-anchor="middle" x="46" y="-35.9" font-family="Verdana" font-size="12.00">P2P network</text>
</g>
<!-- Trusted Full Node -->
<g id="node2" class="node"><title>Trusted Full Node</title>
<polygon fill="#eeeeee" stroke="#eeeeee" points="253,-57 128,-57 128,-21 253,-21 253,-57"/>
<text text-anchor="middle" x="190.5" y="-35.9" font-family="Verdana" font-size="12.00">Trusted Full Node</text>
</g>
<!-- P2P network&#45;&gt;Trusted Full Node -->
<g id="edge1" class="edge"><title>P2P network&#45;&gt;Trusted Full Node</title>
<path fill="none" stroke="#31cef0" d="M102.118,-39C102.118,-39 117.952,-39 117.952,-39"/>
<polygon fill="#31cef0" stroke="#31cef0" points="117.952,-42.5 127.952,-39 117.952,-35.5 117.952,-42.5"/>
<polygon fill="#31cef0" stroke="#31cef0" points="102.118,-35.5 92.118,-39 102.118,-42.5 102.118,-35.5"/>
</g>
<!-- Delayed Full Node -->
<g id="node3" class="node"><title>Delayed Full Node</title>
<polygon fill="#eeeeee" stroke="#eeeeee" points="417,-79 289,-79 289,-43 417,-43 417,-79"/>
<text text-anchor="middle" x="353" y="-57.9" font-family="Verdana" font-size="12.00">Delayed Full Node</text>
</g>
<!-- Trusted Full Node&#45;&gt;Delayed Full Node -->
<g id="edge2" class="edge"><title>Trusted Full Node&#45;&gt;Delayed Full Node</title>
<path fill="none" stroke="#31cef0" d="M263.327,-50C263.327,-50 288.999,-50 288.999,-50"/>
<polygon fill="#31cef0" stroke="#31cef0" points="263.327,-46.5001 253.327,-50 263.327,-53.5001 263.327,-46.5001"/>
</g>
<!-- Wallet -->
<g id="node5" class="node"><title>Wallet</title>
<polygon fill="#eeeeee" stroke="#eeeeee" points="381.5,-36 324.5,-36 324.5,-0 381.5,-0 381.5,-36"/>
<text text-anchor="middle" x="353" y="-14.9" font-family="Verdana" font-size="12.00">Wallet</text>
</g>
<!-- Trusted Full Node&#45;&gt;Wallet -->
<g id="edge4" class="edge"><title>Trusted Full Node&#45;&gt;Wallet</title>
<path fill="none" stroke="#31cef0" d="M263.327,-28.5C263.327,-28.5 324.274,-28.5 324.274,-28.5"/>
<polygon fill="#31cef0" stroke="#31cef0" points="263.327,-25.0001 253.327,-28.5 263.327,-32.0001 263.327,-25.0001"/>
</g>
<!-- Deposit API -->
<g id="node4" class="node"><title>Deposit API</title>
<polygon fill="#eeeeee" stroke="#eeeeee" points="548,-79 459,-79 459,-43 548,-43 548,-79"/>
<text text-anchor="middle" x="503.5" y="-57.9" font-family="Verdana" font-size="12.00">Deposit API</text>
</g>
<!-- Delayed Full Node&#45;&gt;Deposit API -->
<g id="edge3" class="edge"><title>Delayed Full Node&#45;&gt;Deposit API</title>
<path fill="none" stroke="#31cef0" d="M427.262,-61C427.262,-61 458.994,-61 458.994,-61"/>
<polygon fill="#31cef0" stroke="#31cef0" points="427.262,-57.5001 417.262,-61 427.262,-64.5001 427.262,-57.5001"/>
</g>
<!-- Withdraw API -->
<g id="node6" class="node"><title>Withdraw API</title>
<polygon fill="#eeeeee" stroke="#eeeeee" points="554,-36 453,-36 453,-0 554,-0 554,-36"/>
<text text-anchor="middle" x="503.5" y="-14.9" font-family="Verdana" font-size="12.00">Withdraw API</text>
</g>
<!-- Wallet&#45;&gt;Withdraw API -->
<g id="edge5" class="edge"><title>Wallet&#45;&gt;Withdraw API</title>
<path fill="none" stroke="#31cef0" d="M391.662,-18C391.662,-18 452.701,-18 452.701,-18"/>
<polygon fill="#31cef0" stroke="#31cef0" points="391.662,-14.5001 381.662,-18 391.662,-21.5001 391.662,-14.5001"/>
</g>
</g>
</svg>
