<?xml version="1.0" encoding="UTF-8" standalone="no"?>
<!DOCTYPE svg PUBLIC "-//W3C//DTD SVG 1.1//EN"
 "http://www.w3.org/Graphics/SVG/1.1/DTD/svg11.dtd">
<!-- Generated by graphviz version 2.38.0 (20140413.2041)
 -->
<!-- Title: foo Pages: 1 -->
<svg width="539pt" height="98pt"
 viewBox="0.00 0.00 539.00 98.00" xmlns="http://www.w3.org/2000/svg" xmlns:xlink="http://www.w3.org/1999/xlink">
<g id="graph0" class="graph" transform="scale(1 1) rotate(0) translate(4 94)">
<title>foo</title>
<polygon fill="white" stroke="none" points="-4,4 -4,-94 535,-94 535,4 -4,4"/>
<!-- P2P network -->
<g id="node1" class="node"><title>P2P network</title>
<polygon fill="none" stroke="black" points="87,-63 0,-63 0,-27 87,-27 87,-63"/>
<text text-anchor="middle" x="43.5" y="-41.3" font-family="Times,serif" font-size="14.00">P2P network</text>
</g>
<!-- Trusted Full Node -->
<g id="node2" class="node"><title>Trusted Full Node</title>
<polygon fill="none" stroke="black" points="241,-63 123,-63 123,-27 241,-27 241,-63"/>
<text text-anchor="middle" x="182" y="-41.3" font-family="Times,serif" font-size="14.00">Trusted Full Node</text>
</g>
<!-- P2P network&#45;&gt;Trusted Full Node -->
<g id="edge1" class="edge"><title>P2P network&#45;&gt;Trusted Full Node</title>
<path fill="none" stroke="black" d="M97.588,-45C102.5,-45 107.523,-45 112.547,-45"/>
<polygon fill="black" stroke="black" points="97.315,-41.5001 87.3149,-45 97.3149,-48.5001 97.315,-41.5001"/>
<polygon fill="black" stroke="black" points="112.827,-48.5001 122.827,-45 112.827,-41.5001 112.827,-48.5001"/>
</g>
<!-- Delayed Full Node -->
<g id="node3" class="node"><title>Delayed Full Node</title>
<polygon fill="none" stroke="black" points="396,-90 277,-90 277,-54 396,-54 396,-90"/>
<text text-anchor="middle" x="336.5" y="-68.3" font-family="Times,serif" font-size="14.00">Delayed Full Node</text>
</g>
<!-- Trusted Full Node&#45;&gt;Delayed Full Node -->
<g id="edge2" class="edge"><title>Trusted Full Node&#45;&gt;Delayed Full Node</title>
<path fill="none" stroke="black" d="M241.089,-55.2846C249.498,-56.7734 258.22,-58.3177 266.813,-59.8391"/>
<polygon fill="black" stroke="black" points="266.358,-63.3128 276.815,-61.6098 267.578,-56.42 266.358,-63.3128"/>
</g>
<!-- Wallet -->
<g id="node5" class="node"><title>Wallet</title>
<polygon fill="none" stroke="black" points="363.5,-36 309.5,-36 309.5,-0 363.5,-0 363.5,-36"/>
<text text-anchor="middle" x="336.5" y="-14.3" font-family="Times,serif" font-size="14.00">Wallet</text>
</g>
<!-- Trusted Full Node&#45;&gt;Wallet -->
<g id="edge4" class="edge"><title>Trusted Full Node&#45;&gt;Wallet</title>
<path fill="none" stroke="black" d="M241.089,-34.7154C260.606,-31.2599 281.809,-27.5059 299.168,-24.4325"/>
<polygon fill="black" stroke="black" points="300.194,-27.8054 309.431,-22.6156 298.973,-20.9126 300.194,-27.8054"/>
</g>
<!-- Deposit API -->
<g id="node4" class="node"><title>Deposit API</title>
<polygon fill="none" stroke="black" points="524.5,-90 438.5,-90 438.5,-54 524.5,-54 524.5,-90"/>
<text text-anchor="middle" x="481.5" y="-68.3" font-family="Times,serif" font-size="14.00">Deposit API</text>
</g>
<!-- Delayed Full Node&#45;&gt;Deposit API -->
<g id="edge3" class="edge"><title>Delayed Full Node&#45;&gt;Deposit API</title>
<path fill="none" stroke="black" d="M396.076,-72C406.72,-72 417.76,-72 428.208,-72"/>
<polygon fill="black" stroke="black" points="428.423,-75.5001 438.423,-72 428.423,-68.5001 428.423,-75.5001"/>
</g>
<!-- Withdraw API -->
<g id="node6" class="node"><title>Withdraw API</title>
<polygon fill="none" stroke="black" points="531,-36 432,-36 432,-0 531,-0 531,-36"/>
<text text-anchor="middle" x="481.5" y="-14.3" font-family="Times,serif" font-size="14.00">Withdraw API</text>
</g>
<!-- Wallet&#45;&gt;Withdraw API -->
<g id="edge5" class="edge"><title>Wallet&#45;&gt;Withdraw API</title>
<path fill="none" stroke="black" d="M363.728,-18C380.007,-18 401.604,-18 421.794,-18"/>
<polygon fill="black" stroke="black" points="421.875,-21.5001 431.875,-18 421.875,-14.5001 421.875,-21.5001"/>
</g>
</g>
</svg>
