<?xml version="1.0" encoding="UTF-8" standalone="no"?>
<!DOCTYPE svg PUBLIC "-//W3C//DTD SVG 1.1//EN"
 "http://www.w3.org/Graphics/SVG/1.1/DTD/svg11.dtd">
<!-- Generated by graphviz version 2.38.0 (20140413.2041)
 -->
<!-- Title: foo Pages: 1 -->
<svg width="556pt" height="87pt"
 viewBox="0.00 0.00 556.00 87.00" xmlns="http://www.w3.org/2000/svg" xmlns:xlink="http://www.w3.org/1999/xlink">
<g id="graph0" class="graph" transform="scale(1 1) rotate(0) translate(4 83)">
<title>foo</title>
<polygon fill="white" stroke="none" points="-4,4 -4,-83 552,-83 552,4 -4,4"/>
<!-- P2P network -->
<g id="node1" class="node"><title>P2P network</title>
<polygon fill="#eeeeee" stroke="#eeeeee" points="92,-57 0,-57 0,-21 92,-21 92,-57"/>
<text text-anchor="middle" x="46" y="-35.9" font-family="Verdana" font-size="12.00">P2P network</text>
</g>
<!-- Trusted Full Node -->
<g id="node2" class="node"><title>Trusted Full Node</title>
<polygon fill="#eeeeee" stroke="#eeeeee" points="251,-57 128,-57 128,-21 251,-21 251,-57"/>
<text text-anchor="middle" x="189.5" y="-35.9" font-family="Verdana" font-size="12.00">Trusted Full Node</text>
</g>
<!-- P2P network&#45;&gt;Trusted Full Node -->
<g id="edge1" class="edge"><title>P2P network&#45;&gt;Trusted Full Node</title>
<path fill="none" stroke="#31cef0" d="M102.194,-39C102.194,-39 117.949,-39 117.949,-39"/>
<polygon fill="#31cef0" stroke="#31cef0" points="117.949,-42.5 127.949,-39 117.949,-35.5 117.949,-42.5"/>
<polygon fill="#31cef0" stroke="#31cef0" points="102.194,-35.5 92.1942,-39 102.194,-42.5 102.194,-35.5"/>
</g>
<!-- Delayed Full Node -->
<g id="node3" class="node"><title>Delayed Full Node</title>
<polygon fill="#eeeeee" stroke="#eeeeee" points="413,-79 287,-79 287,-43 413,-43 413,-79"/>
<text text-anchor="middle" x="350" y="-57.9" font-family="Verdana" font-size="12.00">Delayed Full Node</text>
</g>
<!-- Trusted Full Node&#45;&gt;Delayed Full Node -->
<g id="edge2" class="edge"><title>Trusted Full Node&#45;&gt;Delayed Full Node</title>
<path fill="none" stroke="#31cef0" d="M261.094,-50C261.094,-50 286.976,-50 286.976,-50"/>
<polygon fill="#31cef0" stroke="#31cef0" points="261.095,-46.5001 251.094,-50 261.094,-53.5001 261.095,-46.5001"/>
</g>
<!-- Wallet -->
<g id="node5" class="node"><title>Wallet</title>
<polygon fill="#eeeeee" stroke="#eeeeee" points="377,-36 323,-36 323,-0 377,-0 377,-36"/>
<text text-anchor="middle" x="350" y="-14.9" font-family="Verdana" font-size="12.00">Wallet</text>
</g>
<!-- Trusted Full Node&#45;&gt;Wallet -->
<g id="edge4" class="edge"><title>Trusted Full Node&#45;&gt;Wallet</title>
<path fill="none" stroke="#31cef0" d="M261.094,-28.5C261.094,-28.5 322.728,-28.5 322.728,-28.5"/>
<polygon fill="#31cef0" stroke="#31cef0" points="261.095,-25.0001 251.094,-28.5 261.094,-32.0001 261.095,-25.0001"/>
</g>
<!-- Deposit API -->
<g id="node4" class="node"><title>Deposit API</title>
<polygon fill="#eeeeee" stroke="#eeeeee" points="542,-79 455,-79 455,-43 542,-43 542,-79"/>
<text text-anchor="middle" x="498.5" y="-57.9" font-family="Verdana" font-size="12.00">Deposit API</text>
</g>
<!-- Delayed Full Node&#45;&gt;Deposit API -->
<g id="edge3" class="edge"><title>Delayed Full Node&#45;&gt;Deposit API</title>
<path fill="none" stroke="#31cef0" d="M423.408,-61C423.408,-61 454.585,-61 454.585,-61"/>
<polygon fill="#31cef0" stroke="#31cef0" points="423.408,-57.5001 413.408,-61 423.408,-64.5001 423.408,-57.5001"/>
</g>
<!-- Withdraw API -->
<g id="node6" class="node"><title>Withdraw API</title>
<polygon fill="#eeeeee" stroke="#eeeeee" points="548,-36 449,-36 449,-0 548,-0 548,-36"/>
<text text-anchor="middle" x="498.5" y="-14.9" font-family="Verdana" font-size="12.00">Withdraw API</text>
</g>
<!-- Wallet&#45;&gt;Withdraw API -->
<g id="edge5" class="edge"><title>Wallet&#45;&gt;Withdraw API</title>
<path fill="none" stroke="#31cef0" d="M387.237,-18C387.237,-18 448.907,-18 448.907,-18"/>
<polygon fill="#31cef0" stroke="#31cef0" points="387.237,-14.5001 377.237,-18 387.237,-21.5001 387.237,-14.5001"/>
</g>
</g>
</svg>
