<?xml version="1.0" encoding="UTF-8" standalone="no"?>
<!DOCTYPE svg PUBLIC "-//W3C//DTD SVG 1.1//EN"
 "http://www.w3.org/Graphics/SVG/1.1/DTD/svg11.dtd">
<!-- Generated by graphviz version 2.40.1 (20161225.0304)
 -->
<!-- Title: foo Pages: 1 -->
<svg width="440pt" height="87pt"
 viewBox="0.00 0.00 440.00 87.00" xmlns="http://www.w3.org/2000/svg" xmlns:xlink="http://www.w3.org/1999/xlink">
<g id="graph0" class="graph" transform="scale(1 1) rotate(0) translate(4 83)">
<title>foo</title>
<polygon fill="#ffffff" stroke="transparent" points="-4,4 -4,-83 436,-83 436,4 -4,4"/>
<!-- P2P network -->
<g id="node1" class="node">
<title>P2P network</title>
<polygon fill="#eeeeee" stroke="#eeeeee" points="92,-57 0,-57 0,-21 92,-21 92,-57"/>
<text text-anchor="middle" x="46" y="-35.9" font-family="Verdana" font-size="12.00" fill="#000000">P2P network</text>
</g>
<!-- Full Node -->
<g id="node2" class="node">
<title>Full Node</title>
<polygon fill="#eeeeee" stroke="#eeeeee" points="201,-57 128,-57 128,-21 201,-21 201,-57"/>
<text text-anchor="middle" x="164.5" y="-35.9" font-family="Verdana" font-size="12.00" fill="#000000">Full Node</text>
</g>
<!-- P2P network&#45;&gt;Full Node -->
<g id="edge1" class="edge">
<title>P2P network&#45;&gt;Full Node</title>
<path fill="none" stroke="#31cef0" d="M102.1545,-39C102.1545,-39 117.8199,-39 117.8199,-39"/>
<polygon fill="#31cef0" stroke="#31cef0" points="117.8199,-42.5 127.8199,-39 117.8199,-35.5 117.8199,-42.5"/>
<polygon fill="#31cef0" stroke="#31cef0" points="102.1545,-35.5 92.1545,-39 102.1545,-42.5 102.1545,-35.5"/>
</g>
<!-- Blockchain API -->
<g id="node3" class="node">
<title>Blockchain API</title>
<polygon fill="#eeeeee" stroke="#eeeeee" points="432,-79 327,-79 327,-43 432,-43 432,-79"/>
<text text-anchor="middle" x="379.5" y="-57.9" font-family="Verdana" font-size="12.00" fill="#000000">Blockchain API</text>
</g>
<!-- Full Node&#45;&gt;Blockchain API -->
<g id="edge2" class="edge">
<title>Full Node&#45;&gt;Blockchain API</title>
<path fill="none" stroke="#31cef0" d="M211.4598,-50C211.4598,-50 326.9395,-50 326.9395,-50"/>
<polygon fill="#31cef0" stroke="#31cef0" points="211.4599,-46.5001 201.4598,-50 211.4598,-53.5001 211.4599,-46.5001"/>
</g>
<!-- Wallet -->
<g id="node4" class="node">
<title>Wallet</title>
<polygon fill="#eeeeee" stroke="#eeeeee" points="291,-43 237,-43 237,-7 291,-7 291,-43"/>
<text text-anchor="middle" x="264" y="-21.9" font-family="Verdana" font-size="12.00" fill="#000000">Wallet</text>
</g>
<!-- Full Node&#45;&gt;Wallet -->
<g id="edge3" class="edge">
<title>Full Node&#45;&gt;Wallet</title>
<path fill="none" stroke="#31cef0" d="M211.2674,-32C211.2674,-32 236.7146,-32 236.7146,-32"/>
<polygon fill="#31cef0" stroke="#31cef0" points="211.2675,-28.5001 201.2674,-32 211.2674,-35.5001 211.2675,-28.5001"/>
</g>
<!-- Withdraw API -->
<g id="node5" class="node">
<title>Withdraw API</title>
<polygon fill="#eeeeee" stroke="#eeeeee" points="429,-36 330,-36 330,0 429,0 429,-36"/>
<text text-anchor="middle" x="379.5" y="-14.9" font-family="Verdana" font-size="12.00" fill="#000000">Withdraw API</text>
</g>
<!-- Wallet&#45;&gt;Withdraw API -->
<g id="edge4" class="edge">
<title>Wallet&#45;&gt;Withdraw API</title>
<path fill="none" stroke="#31cef0" d="M301.0796,-21.5C301.0796,-21.5 329.9429,-21.5 329.9429,-21.5"/>
<polygon fill="#31cef0" stroke="#31cef0" points="301.0797,-18.0001 291.0796,-21.5 301.0796,-25.0001 301.0797,-18.0001"/>
</g>
</g>
</svg>
