<?xml version="1.0" encoding="UTF-8" standalone="no"?>
<!DOCTYPE svg PUBLIC "-//W3C//DTD SVG 1.1//EN"
 "http://www.w3.org/Graphics/SVG/1.1/DTD/svg11.dtd">
<!-- Generated by graphviz version 2.38.0 (20140413.2041)
 -->
<!-- Title: foo Pages: 1 -->
<svg width="65pt" height="188pt"
 viewBox="0.00 0.00 65.19 188.00" xmlns="http://www.w3.org/2000/svg" xmlns:xlink="http://www.w3.org/1999/xlink">
<g id="graph0" class="graph" transform="scale(1 1) rotate(0) translate(4 184)">
<title>foo</title>
<polygon fill="white" stroke="none" points="-4,4 -4,-184 61.1949,-184 61.1949,4 -4,4"/>
<!-- bar -->
<g id="node1" class="node"><title>bar</title>
<ellipse fill="none" stroke="black" cx="28.5975" cy="-162" rx="27" ry="18"/>
<text text-anchor="middle" x="28.5975" y="-158.3" font-family="Times,serif" font-size="14.00">bar</text>
</g>
<!-- baz -->
<g id="node2" class="node"><title>baz</title>
<ellipse fill="none" stroke="black" cx="28.5975" cy="-90" rx="27" ry="18"/>
<text text-anchor="middle" x="28.5975" y="-86.3" font-family="Times,serif" font-size="14.00">baz</text>
</g>
<!-- bar&#45;&gt;baz -->
<g id="edge1" class="edge"><title>bar&#45;&gt;baz</title>
<path fill="none" stroke="black" d="M28.5975,-143.697C28.5975,-135.983 28.5975,-126.712 28.5975,-118.112"/>
<polygon fill="black" stroke="black" points="32.0976,-118.104 28.5975,-108.104 25.0976,-118.104 32.0976,-118.104"/>
</g>
<!-- quux -->
<g id="node3" class="node"><title>quux</title>
<ellipse fill="none" stroke="black" cx="28.5975" cy="-18" rx="28.6953" ry="18"/>
<text text-anchor="middle" x="28.5975" y="-14.3" font-family="Times,serif" font-size="14.00">quux</text>
</g>
<!-- baz&#45;&gt;quux -->
<g id="edge2" class="edge"><title>baz&#45;&gt;quux</title>
<path fill="none" stroke="black" d="M28.5975,-71.6966C28.5975,-63.9827 28.5975,-54.7125 28.5975,-46.1124"/>
<polygon fill="black" stroke="black" points="32.0976,-46.1043 28.5975,-36.1043 25.0976,-46.1044 32.0976,-46.1043"/>
</g>
</g>
</svg>
