<?xml version="1.0" encoding="UTF-8" standalone="no"?>
<!DOCTYPE svg PUBLIC "-//W3C//DTD SVG 1.1//EN"
 "http://www.w3.org/Graphics/SVG/1.1/DTD/svg11.dtd">
<!-- Generated by graphviz version 2.40.1 (20161225.0304)
 -->
<!-- Title: G Pages: 1 -->
<svg width="634pt" height="332pt"
 viewBox="0.00 0.00 633.57 332.00" xmlns="http://www.w3.org/2000/svg" xmlns:xlink="http://www.w3.org/1999/xlink">
<g id="graph0" class="graph" transform="scale(1 1) rotate(0) translate(4 328)">
<title>G</title>
<polygon fill="#ffffff" stroke="transparent" points="-4,4 -4,-328 629.5666,-328 629.5666,4 -4,4"/>
<!-- proposal -->
<g id="node1" class="node">
<title>proposal</title>
<ellipse fill="#eeeeee" stroke="#eeeeee" cx="256.7067" cy="-306" rx="41.7203" ry="18"/>
<text text-anchor="middle" x="256.7067" y="-302.9" font-family="Verdana" font-size="12.00" fill="#000000">proposal</text>
</g>
<!-- Level_1a -->
<g id="node2" class="node">
<title>Level_1a</title>
<ellipse fill="#eeeeee" stroke="#eeeeee" cx="162.7067" cy="-234" rx="43.9143" ry="18"/>
<text text-anchor="middle" x="162.7067" y="-230.9" font-family="Verdana" font-size="12.00" fill="#000000">Level_1a</text>
</g>
<!-- proposal&#45;&gt;Level_1a -->
<g id="edge1" class="edge">
<title>proposal&#45;&gt;Level_1a</title>
<path fill="none" stroke="#31cef0" d="M227.7741,-283.8389C213.4648,-272.8786 196.52,-259.8996 183.51,-249.9345"/>
<polygon fill="#31cef0" stroke="#31cef0" points="225.7779,-286.7186 235.845,-290.0209 230.0345,-281.1615 225.7779,-286.7186"/>
</g>
<!-- Level_1b -->
<g id="node3" class="node">
<title>Level_1b</title>
<ellipse fill="#eeeeee" stroke="#eeeeee" cx="256.7067" cy="-234" rx="43.9143" ry="18"/>
<text text-anchor="middle" x="256.7067" y="-230.9" font-family="Verdana" font-size="12.00" fill="#000000">Level_1b</text>
</g>
<!-- proposal&#45;&gt;Level_1b -->
<g id="edge2" class="edge">
<title>proposal&#45;&gt;Level_1b</title>
<path fill="none" stroke="#31cef0" d="M256.7067,-277.5726C256.7067,-269.1084 256.7067,-260.0593 256.7067,-252.4133"/>
<polygon fill="#31cef0" stroke="#31cef0" points="253.2068,-277.8313 256.7067,-287.8314 260.2068,-277.8314 253.2068,-277.8313"/>
</g>
<!-- Level_1c -->
<g id="node4" class="node">
<title>Level_1c</title>
<ellipse fill="#eeeeee" stroke="#eeeeee" cx="443.7067" cy="-234" rx="42.451" ry="18"/>
<text text-anchor="middle" x="443.7067" y="-230.9" font-family="Verdana" font-size="12.00" fill="#000000">Level_1c</text>
</g>
<!-- proposal&#45;&gt;Level_1c -->
<g id="edge3" class="edge">
<title>proposal&#45;&gt;Level_1c</title>
<path fill="none" stroke="#31cef0" d="M297.7508,-290.1969C332.1379,-276.957 380.5194,-258.3288 411.9921,-246.211"/>
<polygon fill="#31cef0" stroke="#31cef0" points="296.0808,-287.0894 288.0063,-293.9488 298.5961,-293.6219 296.0808,-287.0894"/>
</g>
<!-- Level_2a -->
<g id="node5" class="node">
<title>Level_2a</title>
<ellipse fill="#eeeeee" stroke="#eeeeee" cx="116.7067" cy="-162" rx="43.9143" ry="18"/>
<text text-anchor="middle" x="116.7067" y="-158.9" font-family="Verdana" font-size="12.00" fill="#000000">Level_2a</text>
</g>
<!-- Level_1b&#45;&gt;Level_2a -->
<g id="edge4" class="edge">
<title>Level_1b&#45;&gt;Level_2a</title>
<path fill="none" stroke="#31cef0" d="M220.3355,-215.2948C196.6354,-203.1062 166.1891,-187.4481 144.442,-176.2639"/>
<polygon fill="#31cef0" stroke="#31cef0" points="218.8873,-218.4857 229.3809,-219.9468 222.0888,-212.2607 218.8873,-218.4857"/>
</g>
<!-- Level_2b -->
<g id="node6" class="node">
<title>Level_2b</title>
<ellipse fill="#eeeeee" stroke="#eeeeee" cx="210.7067" cy="-162" rx="43.9143" ry="18"/>
<text text-anchor="middle" x="210.7067" y="-158.9" font-family="Verdana" font-size="12.00" fill="#000000">Level_2b</text>
</g>
<!-- Level_1b&#45;&gt;Level_2b -->
<g id="edge5" class="edge">
<title>Level_1b&#45;&gt;Level_2b</title>
<path fill="none" stroke="#31cef0" d="M240.0417,-207.9157C234.01,-198.4747 227.3478,-188.047 221.8989,-179.5182"/>
<polygon fill="#31cef0" stroke="#31cef0" points="237.238,-210.0282 245.5714,-216.5708 243.1369,-206.2595 237.238,-210.0282"/>
</g>
<!-- Level_2c -->
<g id="node7" class="node">
<title>Level_2c</title>
<ellipse fill="#eeeeee" stroke="#eeeeee" cx="303.7067" cy="-162" rx="42.451" ry="18"/>
<text text-anchor="middle" x="303.7067" y="-158.9" font-family="Verdana" font-size="12.00" fill="#000000">Level_2c</text>
</g>
<!-- Level_1b&#45;&gt;Level_2c -->
<g id="edge6" class="edge">
<title>Level_1b&#45;&gt;Level_2c</title>
<path fill="none" stroke="#31cef0" d="M273.7339,-207.9157C279.8968,-198.4747 286.7038,-188.047 292.2712,-179.5182"/>
<polygon fill="#31cef0" stroke="#31cef0" points="270.6195,-206.2838 268.0841,-216.5708 276.4812,-210.1102 270.6195,-206.2838"/>
</g>
<!-- Level_2d -->
<g id="node8" class="node">
<title>Level_2d</title>
<ellipse fill="#eeeeee" stroke="#eeeeee" cx="396.7067" cy="-162" rx="43.9143" ry="18"/>
<text text-anchor="middle" x="396.7067" y="-158.9" font-family="Verdana" font-size="12.00" fill="#000000">Level_2d</text>
</g>
<!-- Level_1c&#45;&gt;Level_2d -->
<g id="edge7" class="edge">
<title>Level_1c&#45;&gt;Level_2d</title>
<path fill="none" stroke="#31cef0" d="M426.6794,-207.9157C420.5166,-198.4747 413.7096,-188.047 408.1422,-179.5182"/>
<polygon fill="#31cef0" stroke="#31cef0" points="423.9322,-210.1102 432.3293,-216.5708 429.7939,-206.2838 423.9322,-210.1102"/>
</g>
<!-- Level_2e -->
<g id="node9" class="node">
<title>Level_2e</title>
<ellipse fill="#eeeeee" stroke="#eeeeee" cx="490.7067" cy="-162" rx="43.9143" ry="18"/>
<text text-anchor="middle" x="490.7067" y="-158.9" font-family="Verdana" font-size="12.00" fill="#000000">Level_2e</text>
</g>
<!-- Level_1c&#45;&gt;Level_2e -->
<g id="edge8" class="edge">
<title>Level_1c&#45;&gt;Level_2e</title>
<path fill="none" stroke="#31cef0" d="M460.7339,-207.9157C466.8968,-198.4747 473.7038,-188.047 479.2712,-179.5182"/>
<polygon fill="#31cef0" stroke="#31cef0" points="457.6195,-206.2838 455.0841,-216.5708 463.4812,-210.1102 457.6195,-206.2838"/>
</g>
<!-- Level_2f -->
<g id="node10" class="node">
<title>Level_2f</title>
<ellipse fill="#eeeeee" stroke="#eeeeee" cx="583.7067" cy="-162" rx="41.7203" ry="18"/>
<text text-anchor="middle" x="583.7067" y="-158.9" font-family="Verdana" font-size="12.00" fill="#000000">Level_2f</text>
</g>
<!-- Level_1c&#45;&gt;Level_2f -->
<g id="edge9" class="edge">
<title>Level_1c&#45;&gt;Level_2f</title>
<path fill="none" stroke="#31cef0" d="M480.1391,-215.2633C504.0049,-202.9895 534.6911,-187.208 556.4498,-176.0178"/>
<polygon fill="#31cef0" stroke="#31cef0" points="478.3246,-212.2607 471.0324,-219.9468 481.5261,-218.4857 478.3246,-212.2607"/>
</g>
<!-- Level_3a -->
<g id="node11" class="node">
<title>Level_3a</title>
<ellipse fill="#eeeeee" stroke="#eeeeee" cx="43.7067" cy="-90" rx="43.9143" ry="18"/>
<text text-anchor="middle" x="43.7067" y="-86.9" font-family="Verdana" font-size="12.00" fill="#000000">Level_3a</text>
</g>
<!-- Level_2a&#45;&gt;Level_3a -->
<g id="edge10" class="edge">
<title>Level_2a&#45;&gt;Level_3a</title>
<path fill="none" stroke="#31cef0" d="M92.5348,-138.1592C82.1467,-127.9134 70.249,-116.1788 60.7989,-106.8581"/>
<polygon fill="#31cef0" stroke="#31cef0" points="90.1981,-140.7705 99.7755,-145.3008 95.1136,-135.7867 90.1981,-140.7705"/>
</g>
<!-- Level_3b -->
<g id="node12" class="node">
<title>Level_3b</title>
<ellipse fill="#eeeeee" stroke="#eeeeee" cx="137.7067" cy="-90" rx="43.9143" ry="18"/>
<text text-anchor="middle" x="137.7067" y="-86.9" font-family="Verdana" font-size="12.00" fill="#000000">Level_3b</text>
</g>
<!-- Level_2a&#45;&gt;Level_3b -->
<g id="edge11" class="edge">
<title>Level_2a&#45;&gt;Level_3b</title>
<path fill="none" stroke="#31cef0" d="M124.8791,-133.9801C127.4357,-125.2148 130.1861,-115.7848 132.4819,-107.9134"/>
<polygon fill="#31cef0" stroke="#31cef0" points="121.4459,-133.2513 122.0059,-143.8314 128.1659,-135.2114 121.4459,-133.2513"/>
</g>
<!-- Level_2b&#45;&gt;Level_3b -->
<g id="edge12" class="edge">
<title>Level_2b&#45;&gt;Level_3b</title>
<path fill="none" stroke="#31cef0" d="M186.5348,-138.1592C176.1467,-127.9134 164.249,-116.1788 154.7989,-106.8581"/>
<polygon fill="#31cef0" stroke="#31cef0" points="184.1981,-140.7705 193.7755,-145.3008 189.1136,-135.7867 184.1981,-140.7705"/>
</g>
<!-- Level_3c -->
<g id="node13" class="node">
<title>Level_3c</title>
<ellipse fill="#eeeeee" stroke="#eeeeee" cx="230.7067" cy="-90" rx="42.451" ry="18"/>
<text text-anchor="middle" x="230.7067" y="-86.9" font-family="Verdana" font-size="12.00" fill="#000000">Level_3c</text>
</g>
<!-- Level_2b&#45;&gt;Level_3c -->
<g id="edge13" class="edge">
<title>Level_2b&#45;&gt;Level_3c</title>
<path fill="none" stroke="#31cef0" d="M218.49,-133.9801C220.9248,-125.2148 223.5442,-115.7848 225.7307,-107.9134"/>
<polygon fill="#31cef0" stroke="#31cef0" points="215.0577,-133.2594 215.7535,-143.8314 221.8023,-135.133 215.0577,-133.2594"/>
</g>
<!-- Level_4a -->
<g id="node17" class="node">
<title>Level_4a</title>
<ellipse fill="#eeeeee" stroke="#eeeeee" cx="303.7067" cy="-18" rx="43.9143" ry="18"/>
<text text-anchor="middle" x="303.7067" y="-14.9" font-family="Verdana" font-size="12.00" fill="#000000">Level_4a</text>
</g>
<!-- Level_2c&#45;&gt;Level_4a -->
<g id="edge22" class="edge">
<title>Level_2c&#45;&gt;Level_4a</title>
<path fill="none" stroke="#31cef0" d="M303.7067,-133.4713C303.7067,-104.5174 303.7067,-60.5727 303.7067,-36.0896"/>
<polygon fill="#31cef0" stroke="#31cef0" points="300.2068,-133.7623 303.7067,-143.7623 307.2068,-133.7623 300.2068,-133.7623"/>
</g>
<!-- Level_3e -->
<g id="node14" class="node">
<title>Level_3e</title>
<ellipse fill="#eeeeee" stroke="#eeeeee" cx="490.7067" cy="-90" rx="43.9143" ry="18"/>
<text text-anchor="middle" x="490.7067" y="-86.9" font-family="Verdana" font-size="12.00" fill="#000000">Level_3e</text>
</g>
<!-- Level_2e&#45;&gt;Level_3e -->
<g id="edge14" class="edge">
<title>Level_2e&#45;&gt;Level_3e</title>
<path fill="none" stroke="#31cef0" d="M490.7067,-133.5726C490.7067,-125.1084 490.7067,-116.0593 490.7067,-108.4133"/>
<polygon fill="#31cef0" stroke="#31cef0" points="487.2068,-133.8313 490.7067,-143.8314 494.2068,-133.8314 487.2068,-133.8313"/>
</g>
<!-- Level_3d -->
<g id="node15" class="node">
<title>Level_3d</title>
<ellipse fill="#eeeeee" stroke="#eeeeee" cx="396.7067" cy="-90" rx="43.9143" ry="18"/>
<text text-anchor="middle" x="396.7067" y="-86.9" font-family="Verdana" font-size="12.00" fill="#000000">Level_3d</text>
</g>
<!-- Level_2e&#45;&gt;Level_3d -->
<g id="edge15" class="edge">
<title>Level_2e&#45;&gt;Level_3d</title>
<path fill="none" stroke="#31cef0" d="M461.7741,-139.8389C447.4648,-128.8786 430.52,-115.8996 417.51,-105.9345"/>
<polygon fill="#31cef0" stroke="#31cef0" points="459.7779,-142.7186 469.845,-146.0209 464.0345,-137.1615 459.7779,-142.7186"/>
</g>
<!-- Level_2f&#45;&gt;Level_3e -->
<g id="edge16" class="edge">
<title>Level_2f&#45;&gt;Level_3e</title>
<path fill="none" stroke="#31cef0" d="M555.0819,-139.8389C540.9248,-128.8786 524.1603,-115.8996 511.2887,-105.9345"/>
<polygon fill="#31cef0" stroke="#31cef0" points="553.0171,-142.6666 563.067,-146.0209 557.3023,-137.1316 553.0171,-142.6666"/>
</g>
<!-- Level_3f -->
<g id="node16" class="node">
<title>Level_3f</title>
<ellipse fill="#eeeeee" stroke="#eeeeee" cx="583.7067" cy="-90" rx="41.7203" ry="18"/>
<text text-anchor="middle" x="583.7067" y="-86.9" font-family="Verdana" font-size="12.00" fill="#000000">Level_3f</text>
</g>
<!-- Level_2f&#45;&gt;Level_3f -->
<g id="edge17" class="edge">
<title>Level_2f&#45;&gt;Level_3f</title>
<path fill="none" stroke="#31cef0" d="M583.7067,-133.5726C583.7067,-125.1084 583.7067,-116.0593 583.7067,-108.4133"/>
<polygon fill="#31cef0" stroke="#31cef0" points="580.2068,-133.8313 583.7067,-143.8314 587.2068,-133.8314 580.2068,-133.8313"/>
</g>
<!-- Level_4b -->
<g id="node18" class="node">
<title>Level_4b</title>
<ellipse fill="#eeeeee" stroke="#eeeeee" cx="397.7067" cy="-18" rx="43.9143" ry="18"/>
<text text-anchor="middle" x="397.7067" y="-14.9" font-family="Verdana" font-size="12.00" fill="#000000">Level_4b</text>
</g>
<!-- Level_3e&#45;&gt;Level_4b -->
<g id="edge20" class="edge">
<title>Level_3e&#45;&gt;Level_4b</title>
<path fill="none" stroke="#31cef0" d="M462.0819,-67.8389C447.9248,-56.8786 431.1603,-43.8996 418.2887,-33.9345"/>
<polygon fill="#31cef0" stroke="#31cef0" points="460.0171,-70.6666 470.067,-74.0209 464.3023,-65.1316 460.0171,-70.6666"/>
</g>
<!-- Level_4c -->
<g id="node19" class="node">
<title>Level_4c</title>
<ellipse fill="#eeeeee" stroke="#eeeeee" cx="490.7067" cy="-18" rx="42.451" ry="18"/>
<text text-anchor="middle" x="490.7067" y="-14.9" font-family="Verdana" font-size="12.00" fill="#000000">Level_4c</text>
</g>
<!-- Level_3e&#45;&gt;Level_4c -->
<g id="edge21" class="edge">
<title>Level_3e&#45;&gt;Level_4c</title>
<path fill="none" stroke="#31cef0" d="M490.7067,-61.5726C490.7067,-53.1084 490.7067,-44.0593 490.7067,-36.4133"/>
<polygon fill="#31cef0" stroke="#31cef0" points="487.2068,-61.8313 490.7067,-71.8314 494.2068,-61.8314 487.2068,-61.8313"/>
</g>
<!-- Level_3d&#45;&gt;Level_4a -->
<g id="edge18" class="edge">
<title>Level_3d&#45;&gt;Level_4a</title>
<path fill="none" stroke="#31cef0" d="M368.0819,-67.8389C353.9248,-56.8786 337.1603,-43.8996 324.2887,-33.9345"/>
<polygon fill="#31cef0" stroke="#31cef0" points="366.0171,-70.6666 376.067,-74.0209 370.3023,-65.1316 366.0171,-70.6666"/>
</g>
<!-- Level_3d&#45;&gt;Level_4b -->
<g id="edge19" class="edge">
<title>Level_3d&#45;&gt;Level_4b</title>
<path fill="none" stroke="#31cef0" d="M397.1015,-61.5726C397.2191,-53.1084 397.3447,-44.0593 397.4509,-36.4133"/>
<polygon fill="#31cef0" stroke="#31cef0" points="393.5983,-61.7837 396.959,-71.8314 400.5977,-61.881 393.5983,-61.7837"/>
</g>
</g>
</svg>
