<?xml version="1.0" encoding="UTF-8" standalone="no"?>
<!DOCTYPE svg PUBLIC "-//W3C//DTD SVG 1.1//EN"
 "http://www.w3.org/Graphics/SVG/1.1/DTD/svg11.dtd">
<!-- Generated by graphviz version 2.38.0 (20140413.2041)
 -->
<!-- Title: G Pages: 1 -->
<svg width="634pt" height="332pt"
 viewBox="0.00 0.00 633.57 332.00" xmlns="http://www.w3.org/2000/svg" xmlns:xlink="http://www.w3.org/1999/xlink">
<g id="graph0" class="graph" transform="scale(1 1) rotate(0) translate(4 328)">
<title>G</title>
<polygon fill="white" stroke="none" points="-4,4 -4,-328 629.567,-328 629.567,4 -4,4"/>
<!-- proposal -->
<g id="node1" class="node"><title>proposal</title>
<ellipse fill="#eeeeee" stroke="#eeeeee" cx="303.707" cy="-306" rx="41.7203" ry="18"/>
<text text-anchor="middle" x="303.707" y="-302.9" font-family="Verdana" font-size="12.00">proposal</text>
</g>
<!-- Level_1a -->
<g id="node2" class="node"><title>Level_1a</title>
<ellipse fill="#eeeeee" stroke="#eeeeee" cx="209.707" cy="-234" rx="43.9143" ry="18"/>
<text text-anchor="middle" x="209.707" y="-230.9" font-family="Verdana" font-size="12.00">Level_1a</text>
</g>
<!-- proposal&#45;&gt;Level_1a -->
<g id="edge1" class="edge"><title>proposal&#45;&gt;Level_1a</title>
<path fill="none" stroke="#31cef0" d="M275.525,-284.014C260.851,-273.086 243.246,-259.976 229.937,-250.065"/>
<polygon fill="#31cef0" stroke="#31cef0" points="273.661,-286.989 283.772,-290.155 277.842,-281.375 273.661,-286.989"/>
</g>
<!-- Level_1b -->
<g id="node3" class="node"><title>Level_1b</title>
<ellipse fill="#eeeeee" stroke="#eeeeee" cx="303.707" cy="-234" rx="43.9143" ry="18"/>
<text text-anchor="middle" x="303.707" y="-230.9" font-family="Verdana" font-size="12.00">Level_1b</text>
</g>
<!-- proposal&#45;&gt;Level_1b -->
<g id="edge2" class="edge"><title>proposal&#45;&gt;Level_1b</title>
<path fill="none" stroke="#31cef0" d="M303.707,-277.665C303.707,-269.054 303.707,-259.791 303.707,-252.104"/>
<polygon fill="#31cef0" stroke="#31cef0" points="300.207,-277.697 303.707,-287.697 307.207,-277.697 300.207,-277.697"/>
</g>
<!-- Level_1c -->
<g id="node4" class="node"><title>Level_1c</title>
<ellipse fill="#eeeeee" stroke="#eeeeee" cx="443.707" cy="-234" rx="42.451" ry="18"/>
<text text-anchor="middle" x="443.707" y="-230.9" font-family="Verdana" font-size="12.00">Level_1c</text>
</g>
<!-- proposal&#45;&gt;Level_1c -->
<g id="edge3" class="edge"><title>proposal&#45;&gt;Level_1c</title>
<path fill="none" stroke="#31cef0" d="M339.249,-287.229C363.444,-275.132 394.956,-259.375 417.016,-248.345"/>
<polygon fill="#31cef0" stroke="#31cef0" points="337.419,-284.231 330.04,-291.834 340.549,-290.492 337.419,-284.231"/>
</g>
<!-- Level_2a -->
<g id="node5" class="node"><title>Level_2a</title>
<ellipse fill="#eeeeee" stroke="#eeeeee" cx="116.707" cy="-162" rx="43.9143" ry="18"/>
<text text-anchor="middle" x="116.707" y="-158.9" font-family="Verdana" font-size="12.00">Level_2a</text>
</g>
<!-- Level_1b&#45;&gt;Level_2a -->
<g id="edge4" class="edge"><title>Level_1b&#45;&gt;Level_2a</title>
<path fill="none" stroke="#31cef0" d="M262.632,-217.624C228.132,-204.71 179.563,-186.529 148.108,-174.755"/>
<polygon fill="#31cef0" stroke="#31cef0" points="261.815,-221.056 272.407,-221.284 264.269,-214.5 261.815,-221.056"/>
</g>
<!-- Level_2b -->
<g id="node6" class="node"><title>Level_2b</title>
<ellipse fill="#eeeeee" stroke="#eeeeee" cx="210.707" cy="-162" rx="43.9143" ry="18"/>
<text text-anchor="middle" x="210.707" y="-158.9" font-family="Verdana" font-size="12.00">Level_2b</text>
</g>
<!-- Level_1b&#45;&gt;Level_2b -->
<g id="edge5" class="edge"><title>Level_1b&#45;&gt;Level_2b</title>
<path fill="none" stroke="#31cef0" d="M275.426,-211.713C261.035,-200.881 243.879,-187.968 230.847,-178.159"/>
<polygon fill="#31cef0" stroke="#31cef0" points="273.433,-214.594 283.527,-217.811 277.642,-209.001 273.433,-214.594"/>
</g>
<!-- Level_2c -->
<g id="node7" class="node"><title>Level_2c</title>
<ellipse fill="#eeeeee" stroke="#eeeeee" cx="303.707" cy="-162" rx="42.451" ry="18"/>
<text text-anchor="middle" x="303.707" y="-158.9" font-family="Verdana" font-size="12.00">Level_2c</text>
</g>
<!-- Level_1b&#45;&gt;Level_2c -->
<g id="edge6" class="edge"><title>Level_1b&#45;&gt;Level_2c</title>
<path fill="none" stroke="#31cef0" d="M303.707,-205.665C303.707,-197.054 303.707,-187.791 303.707,-180.104"/>
<polygon fill="#31cef0" stroke="#31cef0" points="300.207,-205.697 303.707,-215.697 307.207,-205.697 300.207,-205.697"/>
</g>
<!-- Level_2d -->
<g id="node8" class="node"><title>Level_2d</title>
<ellipse fill="#eeeeee" stroke="#eeeeee" cx="396.707" cy="-162" rx="43.9143" ry="18"/>
<text text-anchor="middle" x="396.707" y="-158.9" font-family="Verdana" font-size="12.00">Level_2d</text>
</g>
<!-- Level_1c&#45;&gt;Level_2d -->
<g id="edge7" class="edge"><title>Level_1c&#45;&gt;Level_2d</title>
<path fill="none" stroke="#31cef0" d="M426.975,-208.08C420.595,-198.579 413.488,-187.994 407.765,-179.47"/>
<polygon fill="#31cef0" stroke="#31cef0" points="424.088,-210.06 432.568,-216.411 429.9,-206.158 424.088,-210.06"/>
</g>
<!-- Level_2e -->
<g id="node9" class="node"><title>Level_2e</title>
<ellipse fill="#eeeeee" stroke="#eeeeee" cx="490.707" cy="-162" rx="43.9143" ry="18"/>
<text text-anchor="middle" x="490.707" y="-158.9" font-family="Verdana" font-size="12.00">Level_2e</text>
</g>
<!-- Level_1c&#45;&gt;Level_2e -->
<g id="edge8" class="edge"><title>Level_1c&#45;&gt;Level_2e</title>
<path fill="none" stroke="#31cef0" d="M460.439,-208.08C466.818,-198.579 473.925,-187.994 479.648,-179.47"/>
<polygon fill="#31cef0" stroke="#31cef0" points="457.514,-206.158 454.845,-216.411 463.325,-210.06 457.514,-206.158"/>
</g>
<!-- Level_2f -->
<g id="node10" class="node"><title>Level_2f</title>
<ellipse fill="#eeeeee" stroke="#eeeeee" cx="583.707" cy="-162" rx="41.7203" ry="18"/>
<text text-anchor="middle" x="583.707" y="-158.9" font-family="Verdana" font-size="12.00">Level_2f</text>
</g>
<!-- Level_1c&#45;&gt;Level_2f -->
<g id="edge9" class="edge"><title>Level_1c&#45;&gt;Level_2f</title>
<path fill="none" stroke="#31cef0" d="M478.987,-215.36C503.39,-203.158 535.332,-187.187 557.492,-176.107"/>
<polygon fill="#31cef0" stroke="#31cef0" points="477.419,-212.231 470.04,-219.834 480.549,-218.492 477.419,-212.231"/>
</g>
<!-- Level_3a -->
<g id="node11" class="node"><title>Level_3a</title>
<ellipse fill="#eeeeee" stroke="#eeeeee" cx="43.7067" cy="-90" rx="43.9143" ry="18"/>
<text text-anchor="middle" x="43.7067" y="-86.9" font-family="Verdana" font-size="12.00">Level_3a</text>
</g>
<!-- Level_2a&#45;&gt;Level_3a -->
<g id="edge10" class="edge"><title>Level_2a&#45;&gt;Level_3a</title>
<path fill="none" stroke="#31cef0" d="M92.7327,-138.011C82.08,-127.796 69.8073,-116.028 60.206,-106.821"/>
<polygon fill="#31cef0" stroke="#31cef0" points="90.5016,-140.721 100.142,-145.116 95.3464,-135.668 90.5016,-140.721"/>
</g>
<!-- Level_3b -->
<g id="node12" class="node"><title>Level_3b</title>
<ellipse fill="#eeeeee" stroke="#eeeeee" cx="137.707" cy="-90" rx="43.9143" ry="18"/>
<text text-anchor="middle" x="137.707" y="-86.9" font-family="Verdana" font-size="12.00">Level_3b</text>
</g>
<!-- Level_2a&#45;&gt;Level_3b -->
<g id="edge11" class="edge"><title>Level_2a&#45;&gt;Level_3b</title>
<path fill="none" stroke="#31cef0" d="M124.72,-134.29C127.337,-125.567 130.172,-116.115 132.524,-108.275"/>
<polygon fill="#31cef0" stroke="#31cef0" points="121.311,-133.471 121.79,-144.055 128.016,-135.482 121.311,-133.471"/>
</g>
<!-- Level_2b&#45;&gt;Level_3b -->
<g id="edge12" class="edge"><title>Level_2b&#45;&gt;Level_3b</title>
<path fill="none" stroke="#31cef0" d="M186.733,-138.011C176.08,-127.796 163.807,-116.028 154.206,-106.821"/>
<polygon fill="#31cef0" stroke="#31cef0" points="184.502,-140.721 194.142,-145.116 189.346,-135.668 184.502,-140.721"/>
</g>
<!-- Level_3c -->
<g id="node13" class="node"><title>Level_3c</title>
<ellipse fill="#eeeeee" stroke="#eeeeee" cx="230.707" cy="-90" rx="42.451" ry="18"/>
<text text-anchor="middle" x="230.707" y="-86.9" font-family="Verdana" font-size="12.00">Level_3c</text>
</g>
<!-- Level_2b&#45;&gt;Level_3c -->
<g id="edge13" class="edge"><title>Level_2b&#45;&gt;Level_3c</title>
<path fill="none" stroke="#31cef0" d="M218.338,-134.29C220.83,-125.567 223.531,-116.115 225.771,-108.275"/>
<polygon fill="#31cef0" stroke="#31cef0" points="214.93,-133.478 215.548,-144.055 221.661,-135.401 214.93,-133.478"/>
</g>
<!-- Level_4a -->
<g id="node17" class="node"><title>Level_4a</title>
<ellipse fill="#eeeeee" stroke="#eeeeee" cx="303.707" cy="-18" rx="43.9143" ry="18"/>
<text text-anchor="middle" x="303.707" y="-14.9" font-family="Verdana" font-size="12.00">Level_4a</text>
</g>
<!-- Level_2c&#45;&gt;Level_4a -->
<g id="edge22" class="edge"><title>Level_2c&#45;&gt;Level_4a</title>
<path fill="none" stroke="#31cef0" d="M303.707,-133.679C303.707,-104.888 303.707,-60.4244 303.707,-36.1893"/>
<polygon fill="#31cef0" stroke="#31cef0" points="300.207,-133.871 303.707,-143.871 307.207,-133.872 300.207,-133.871"/>
</g>
<!-- Level_3e -->
<g id="node14" class="node"><title>Level_3e</title>
<ellipse fill="#eeeeee" stroke="#eeeeee" cx="490.707" cy="-90" rx="43.9143" ry="18"/>
<text text-anchor="middle" x="490.707" y="-86.9" font-family="Verdana" font-size="12.00">Level_3e</text>
</g>
<!-- Level_2e&#45;&gt;Level_3e -->
<g id="edge14" class="edge"><title>Level_2e&#45;&gt;Level_3e</title>
<path fill="none" stroke="#31cef0" d="M490.707,-133.665C490.707,-125.054 490.707,-115.791 490.707,-108.104"/>
<polygon fill="#31cef0" stroke="#31cef0" points="487.207,-133.697 490.707,-143.697 494.207,-133.697 487.207,-133.697"/>
</g>
<!-- Level_3d -->
<g id="node15" class="node"><title>Level_3d</title>
<ellipse fill="#eeeeee" stroke="#eeeeee" cx="396.707" cy="-90" rx="43.9143" ry="18"/>
<text text-anchor="middle" x="396.707" y="-86.9" font-family="Verdana" font-size="12.00">Level_3d</text>
</g>
<!-- Level_2e&#45;&gt;Level_3d -->
<g id="edge15" class="edge"><title>Level_2e&#45;&gt;Level_3d</title>
<path fill="none" stroke="#31cef0" d="M462.122,-139.713C447.576,-128.881 430.235,-115.968 417.063,-106.159"/>
<polygon fill="#31cef0" stroke="#31cef0" points="460.199,-142.645 470.31,-145.811 464.38,-137.031 460.199,-142.645"/>
</g>
<!-- Level_2f&#45;&gt;Level_3e -->
<g id="edge16" class="edge"><title>Level_2f&#45;&gt;Level_3e</title>
<path fill="none" stroke="#31cef0" d="M555.426,-139.713C541.035,-128.881 523.879,-115.968 510.847,-106.159"/>
<polygon fill="#31cef0" stroke="#31cef0" points="553.433,-142.594 563.527,-145.811 557.642,-137.001 553.433,-142.594"/>
</g>
<!-- Level_3f -->
<g id="node16" class="node"><title>Level_3f</title>
<ellipse fill="#eeeeee" stroke="#eeeeee" cx="583.707" cy="-90" rx="41.7203" ry="18"/>
<text text-anchor="middle" x="583.707" y="-86.9" font-family="Verdana" font-size="12.00">Level_3f</text>
</g>
<!-- Level_2f&#45;&gt;Level_3f -->
<g id="edge17" class="edge"><title>Level_2f&#45;&gt;Level_3f</title>
<path fill="none" stroke="#31cef0" d="M583.707,-133.665C583.707,-125.054 583.707,-115.791 583.707,-108.104"/>
<polygon fill="#31cef0" stroke="#31cef0" points="580.207,-133.697 583.707,-143.697 587.207,-133.697 580.207,-133.697"/>
</g>
<!-- Level_4b -->
<g id="node18" class="node"><title>Level_4b</title>
<ellipse fill="#eeeeee" stroke="#eeeeee" cx="397.707" cy="-18" rx="43.9143" ry="18"/>
<text text-anchor="middle" x="397.707" y="-14.9" font-family="Verdana" font-size="12.00">Level_4b</text>
</g>
<!-- Level_3e&#45;&gt;Level_4b -->
<g id="edge20" class="edge"><title>Level_3e&#45;&gt;Level_4b</title>
<path fill="none" stroke="#31cef0" d="M462.426,-67.7132C448.035,-56.8814 430.879,-43.9681 417.847,-34.1593"/>
<polygon fill="#31cef0" stroke="#31cef0" points="460.433,-70.5937 470.527,-73.811 464.642,-65.0009 460.433,-70.5937"/>
</g>
<!-- Level_4c -->
<g id="node19" class="node"><title>Level_4c</title>
<ellipse fill="#eeeeee" stroke="#eeeeee" cx="490.707" cy="-18" rx="42.451" ry="18"/>
<text text-anchor="middle" x="490.707" y="-14.9" font-family="Verdana" font-size="12.00">Level_4c</text>
</g>
<!-- Level_3e&#45;&gt;Level_4c -->
<g id="edge21" class="edge"><title>Level_3e&#45;&gt;Level_4c</title>
<path fill="none" stroke="#31cef0" d="M490.707,-61.6651C490.707,-53.0537 490.707,-43.7913 490.707,-36.1043"/>
<polygon fill="#31cef0" stroke="#31cef0" points="487.207,-61.6966 490.707,-71.6966 494.207,-61.6967 487.207,-61.6966"/>
</g>
<!-- Level_3d&#45;&gt;Level_4a -->
<g id="edge18" class="edge"><title>Level_3d&#45;&gt;Level_4a</title>
<path fill="none" stroke="#31cef0" d="M368.426,-67.7132C354.035,-56.8814 336.879,-43.9681 323.847,-34.1593"/>
<polygon fill="#31cef0" stroke="#31cef0" points="366.433,-70.5937 376.527,-73.811 370.642,-65.0009 366.433,-70.5937"/>
</g>
<!-- Level_3d&#45;&gt;Level_4b -->
<g id="edge19" class="edge"><title>Level_3d&#45;&gt;Level_4b</title>
<path fill="none" stroke="#31cef0" d="M397.097,-61.6651C397.22,-53.0537 397.353,-43.7913 397.462,-36.1043"/>
<polygon fill="#31cef0" stroke="#31cef0" points="393.597,-61.6476 396.954,-71.6966 400.596,-61.7477 393.597,-61.6476"/>
</g>
</g>
</svg>
