<?xml version="1.0" encoding="UTF-8" standalone="no"?>
<svg width="420px" height="420px" viewBox="0 0 420 420" version="1.1" xmlns="http://www.w3.org/2000/svg" xmlns:xlink="http://www.w3.org/1999/xlink" xmlns:sketch="http://www.bohemiancoding.com/sketch/ns">
    <!-- Generator: Sketch 3.3.3 (12072) - http://www.bohemiancoding.com/sketch -->
    <title>github-bitshares</title>
    <desc>Created with Sketch.</desc>
    <defs></defs>
    <g id="Github-avatars" stroke="none" stroke-width="1" fill="none" fill-rule="evenodd" sketch:type="MSPage">
        <g id="github-bitshares" sketch:type="MSArtboardGroup">
            <g id="Group" sketch:type="MSLayerGroup" transform="translate(130.000000, 78.000000)">
                <g transform="translate(0.000000, 0.550000)" sketch:type="MSShapeGroup">
                    <path d="M57.4816996,164.132968 L-7.10542736e-15,108.047845 L-7.10542736e-15,175.212722 L52.5747252,175.212722 C53.4760062,171.192634 55.1784259,167.368649 57.4816996,164.132968 L57.4816996,164.132968 Z" id="Shape-13" fill="#4BAFCE"></path>
                    <path d="M52.9595379,186.89357 L7.10542736e-15,186.89357 C1.20590978,205.272843 8.64235343,221.863862 20.1989888,235.077068 L57.4816996,198.219176 C55.3713575,194.742016 53.6629853,190.966814 52.9595379,186.89357 L52.9595379,186.89357 Z" id="Shape-14" fill="#62B5D0"></path>
                    <path d="M135.597855,120.757404 C122.460484,109.408398 105.612556,102.0415 86.9594942,100.747315 L86.9594942,153.012474 C91.171476,153.808895 94.8820314,155.302185 98.0911604,157.69145 L135.597855,120.757404 L135.597855,120.757404 Z" id="Shape-15" fill="#B2D4DF"></path>
                    <path d="M106.120061,197.080641 L142.899837,233.616962 C153.845025,220.785171 160.747396,204.720944 162.127871,186.89357 L110.360089,186.89357 C109.374036,190.713722 108.092167,194.04411 106.120061,197.080641 L106.120061,197.080641 Z" id="Shape-16" fill="#9EC8D7"></path>
                    <path d="M110.843207,175.212722 L163.60176,175.212722 C162.395851,156.833449 154.959407,140.24243 143.402771,127.029223 L106.120061,163.887116 C108.330895,167.364276 109.938775,171.238825 110.843207,175.212722 L110.843207,175.212722 Z" id="Shape-17" fill="#B1D0DA"></path>
                    <path d="M28.0039049,242.808994 C41.1412767,254.157999 57.9892039,261.524898 76.6422661,262.819083 L76.6422661,210.553924 C72.4302843,209.757503 68.7197289,208.264213 65.5105999,205.874948 L28.0039049,242.808994 L28.0039049,242.808994 Z" id="Shape-18" fill="#77BBD2"></path>
                    <path d="M88.433384,210.553924 L88.433384,262.819083 C107.086446,261.624451 123.934373,254.157999 137.071745,242.808994 L99.9661913,205.874948 C96.3559211,208.264213 92.5450805,209.757503 88.433384,210.553924 L88.433384,210.553924 Z" id="Shape-19" fill="#8AC1D5"></path>
                    <path d="M0.200634204,90.9126098 C14.3453456,104.845955 58.7858219,148.81999 66.2092875,156.231344 C69.4194347,154.452619 72.7298991,152.87153 76.6422661,152.080985 L76.6422661,66.9986407 L0,2.84217094e-14 C-7.12795883e-15,0.0988180542 0.200634204,88.8374307 0.200634204,90.9126098 L0.200634204,90.9126098 Z" id="Shape-20" fill="#00587C"></path>
                </g>
            </g>
        </g>
    </g>
</svg>