<?xml version="1.0" encoding="UTF-8" standalone="no"?>
<svg width="512px" height="512px" viewBox="0 0 512 512" version="1.1" xmlns="http://www.w3.org/2000/svg" xmlns:xlink="http://www.w3.org/1999/xlink" xmlns:sketch="http://www.bohemiancoding.com/sketch/ns">
    <!-- Generator: Sketch 3.3.3 (12072) - http://www.bohemiancoding.com/sketch -->
    <title>512</title>
    <desc>Created with Sketch.</desc>
    <defs></defs>
    <g id="CNX-icons" stroke="none" stroke-width="1" fill="none" fill-rule="evenodd" sketch:type="MSPage">
        <g id="512" sketch:type="MSArtboardGroup" stroke="#92A9B9" stroke-width="4.4" stroke-linecap="round" stroke-linejoin="round">
            <g id="Group" sketch:type="MSLayerGroup" transform="translate(97.000000, 113.000000)">
                <rect id="Rectangle-path" fill="#ACD7F7" sketch:type="MSShapeGroup" x="0.330103806" y="0.109961686" width="316.899654" height="184.735632"></rect>
                <g transform="translate(13.204152, 13.195402)" sketch:type="MSShapeGroup">
                    <path d="M145.575779,17.7038314 C145.575779,8.02720307 153.49827,0.109961686 163.181315,0.109961686 L290.821453,0.109961686 L290.821453,158.454789 L0.330103806,158.454789 L0.330103806,0.109961686 L127.970242,0.109961686 C137.653287,0.109961686 145.575779,8.02720307 145.575779,17.7038314" id="Shape" fill="#FFFFFF"></path>
                    <g transform="translate(0.000000, 17.593870)">
                        <path d="M145.575779,140.86092 C145.575779,131.184291 137.653287,123.26705 127.970242,123.26705" id="Shape"></path>
                        <path d="M145.575779,140.86092 C145.575779,131.184291 153.49827,123.26705 163.181315,123.26705 L290.821453,123.26705" id="Shape"></path>
                        <path d="M127.970242,123.157088 L0.330103806,123.157088" id="Shape"></path>
                        <path d="M145.245675,0.109961686 L145.245675,140.86092" id="Shape"></path>
                        <path d="M163.181315,0 L273.215917,0" id="Shape"></path>
                        <path d="M163.181315,17.5938697 L273.215917,17.5938697" id="Shape"></path>
                        <path d="M163.181315,87.9693487 L273.215917,87.9693487" id="Shape"></path>
                        <path d="M163.181315,105.563218 L273.215917,105.563218" id="Shape"></path>
                        <path d="M78.4546713,0 L127.970242,0" id="Shape"></path>
                        <path d="M78.4546713,17.5938697 L127.970242,17.5938697" id="Shape"></path>
                        <path d="M78.4546713,35.1877395 L127.970242,35.1877395" id="Shape"></path>
                        <path d="M17.9356401,52.7816092 L127.970242,52.7816092" id="Shape"></path>
                        <path d="M17.9356401,70.3754789 L127.970242,70.3754789" id="Shape"></path>
                        <path d="M17.9356401,87.9693487 L127.970242,87.9693487" id="Shape"></path>
                        <path d="M17.9356401,105.563218 L127.970242,105.563218" id="Shape"></path>
                        <rect id="Rectangle-path" fill="#FBD764" x="20.1363322" y="0.109961686" width="42.9134948" height="35.1877395"></rect>
                        <rect id="Rectangle-path" fill="#FBD764" x="165.382007" y="35.2977011" width="52.816609" height="35.1877395"></rect>
                        <rect id="Rectangle-path" fill="#FBD764" x="235.804152" y="35.2977011" width="35.2110727" height="35.1877395"></rect>
                    </g>
                </g>
                <rect id="Rectangle-path" fill="#FFFFFF" sketch:type="MSShapeGroup" x="0.330103806" y="184.845594" width="316.899654" height="43.9846743"></rect>
                <g transform="translate(101.231834, 228.720307)" id="Rectangle-path" fill="#FFFFFF" sketch:type="MSShapeGroup">
                    <rect x="17.9356401" y="0.109961686" width="79.2249135" height="43.9846743"></rect>
                    <rect x="0.330103806" y="44.094636" width="114.435986" height="13.1954023"></rect>
                </g>
                <rect id="Rectangle-path" fill="#FFFFFF" sketch:type="MSShapeGroup" transform="translate(158.657517, 207.020171) rotate(-44.991897) translate(-158.657517, -207.020171) " x="152.440622" y="200.807395" width="12.4337909" height="12.4255515"></rect>
            </g>
        </g>
    </g>
</svg>